<svg width="980" height="172" viewBox="0 0 980 172" fill="none" xmlns="http://www.w3.org/2000/svg">
<g clip-path="url(#clip0_4001_11848)">
<rect width="980" height="172" fill="#DE5737"/>
<path fill-rule="evenodd" clip-rule="evenodd" d="M360.243 -4.32047L372.444 -16.5219L384.646 -4.32047L372.444 7.88099L360.243 -4.32047ZM367.835 -4.32047L372.444 -8.92991L377.054 -4.32047L372.444 0.288973L367.835 -4.32047Z" fill="#F46442"/>
<path fill-rule="evenodd" clip-rule="evenodd" d="M407.896 0.899127L402.677 -4.32038L407.896 -9.5399L403.829 -13.6071L398.61 -8.38754L393.865 -13.1325L396.576 -15.844L392.509 -19.9111L389.797 -17.1997L385.324 -21.6736L388.035 -24.385L383.968 -28.4522L381.256 -25.7407L376.511 -30.4857L381.731 -35.7052L377.664 -39.7724L372.444 -34.5529L367.225 -39.7724L363.158 -35.7052L368.377 -30.4857L363.632 -25.7407L360.921 -28.4522L356.853 -24.385L359.565 -21.6736L355.091 -17.1997L352.38 -19.9111L348.312 -15.844L351.024 -13.1325L346.279 -8.38754L341.059 -13.6071L336.992 -9.5399L342.212 -4.32038L336.992 0.899127L341.059 4.96628L346.279 -0.253227L351.024 4.49178L348.312 7.20322L352.38 11.2704L355.091 8.55893L359.565 13.0328L356.853 15.7442L360.921 19.8114L363.632 17.1L368.377 21.845L363.158 27.0645L367.225 31.1316L372.444 25.9121L377.664 31.1316L381.731 27.0645L376.511 21.845L381.256 17.1L383.968 19.8114L388.035 15.7442L385.324 13.0328L389.797 8.55893L392.509 11.2704L396.576 7.20322L393.865 4.49178L398.61 -0.253227L403.829 4.96628L407.896 0.899127ZM372.444 17.7778L350.346 -4.32038L372.444 -26.4186L394.542 -4.32038L372.444 17.7778Z" fill="#F46442"/>
<rect x="454.078" y="12.2841" width="7.90428" height="7.90428" transform="rotate(-135 454.078 12.2841)" fill="#F46442"/>
<path d="M465.365 6.72437L454.711 -3.46381H465.829L476.483 6.72437L465.365 6.72437Z" fill="#F46442"/>
<path d="M442.615 -3.46246L431.961 6.72571H443.079L453.733 -3.46246L442.615 -3.46246Z" fill="#F46442"/>
<path d="M526.68 31.1642L534.209 23.2492V0.760533L526.68 8.67553V31.1642Z" fill="#F46442"/>
<path d="M545.508 31.1642L537.978 23.2492V0.760533L545.508 8.67553V31.1642Z" fill="#F46442"/>
<path d="M500.578 5.09491L508.484 -2.44319L530.947 -2.44319L523.041 5.09491L500.578 5.09491Z" fill="#F46442"/>
<path d="M571.484 5.09491L563.578 -2.44319L541.115 -2.44319L549.021 5.09491L571.484 5.09491Z" fill="#F46442"/>
<rect x="612.395" y="-4.15747" width="7.90428" height="7.90428" transform="rotate(135 612.395 -4.15747)" fill="#F46442"/>
<rect x="634.434" y="-4.15747" width="7.90428" height="7.90428" transform="rotate(135 634.434 -4.15747)" fill="#F46442"/>
<rect x="621.082" y="17.9636" width="4.65906" height="4.65906" transform="rotate(135 621.082 17.9636)" fill="#F46442"/>
<path d="M616.918 7.30412L606.73 17.9585V6.84088L616.918 -3.8135V7.30412Z" fill="#F46442"/>
<path d="M618.684 7.30412L628.872 17.9585V6.84088L618.684 -3.8135V7.30412Z" fill="#F46442"/>
<rect x="715.738" y="11.7922" width="12.8915" height="12.8915" transform="rotate(180 715.738 11.7922)" fill="#F46442"/>
<rect width="12.8915" height="12.8915" transform="matrix(1 0 0 -1 683.504 11.7922)" fill="#F46442"/>
<rect width="12.8915" height="12.8915" transform="matrix(1 0 0 -1 677.059 17.2725)" fill="#F46442"/>
<rect x="722.18" y="17.2725" width="12.8915" height="12.8915" transform="rotate(180 722.18 17.2725)" fill="#F46442"/>
<rect x="670.617" y="-1.09766" width="6.44575" height="6.44575" fill="#F46442"/>
<rect x="696.398" y="24.6847" width="6.44575" height="6.44575" fill="#F46442"/>
<rect x="722.18" y="-1.09766" width="6.44575" height="6.44575" fill="#F46442"/>
<rect x="702.844" y="18.2384" width="6.44575" height="6.44575" fill="#F46442"/>
<rect x="689.949" y="18.2384" width="6.44575" height="6.44575" fill="#F46442"/>
<rect x="696.398" y="18.2384" width="6.44575" height="6.44575" fill="#F46442"/>
<rect x="696.398" y="11.7922" width="6.44575" height="6.44575" fill="#F46442"/>
<rect x="781.25" y="12.2841" width="7.90428" height="7.90428" transform="rotate(-135 781.25 12.2841)" fill="#F46442"/>
<path d="M792.537 6.72437L781.883 -3.46381H793L803.655 6.72437L792.537 6.72437Z" fill="#F46442"/>
<path d="M769.791 -3.46246L759.137 6.72571H770.254L780.909 -3.46246L769.791 -3.46246Z" fill="#F46442"/>
<rect x="836.684" y="-17.3003" width="6.38476" height="55.8667" transform="rotate(-45 836.684 -17.3003)" fill="#F46442"/>
<rect x="827.656" y="-8.26892" width="6.38476" height="55.8667" transform="rotate(-45 827.656 -8.26892)" fill="#F46442"/>
<rect x="845.715" y="-26.3291" width="6.38476" height="55.8667" transform="rotate(-45 845.715 -26.3291)" fill="#F46442"/>
<rect x="854.742" y="-35.3579" width="6.38476" height="55.8667" transform="rotate(-45 854.742 -35.3579)" fill="#F46442"/>
<rect x="850.227" y="22.202" width="6.38476" height="55.8667" transform="rotate(-135 850.227 22.202)" fill="#F46442"/>
<rect x="859.262" y="31.2334" width="6.38476" height="55.8667" transform="rotate(-135 859.262 31.2334)" fill="#F46442"/>
<rect x="841.199" y="13.1758" width="6.38476" height="55.8667" transform="rotate(-135 841.199 13.1758)" fill="#F46442"/>
<rect x="832.172" y="4.14441" width="6.38476" height="55.8667" transform="rotate(-135 832.172 4.14441)" fill="#F46442"/>
<rect x="939.566" y="-4.15747" width="7.90428" height="7.90428" transform="rotate(135 939.566 -4.15747)" fill="#F46442"/>
<rect x="961.602" y="-4.15747" width="7.90428" height="7.90428" transform="rotate(135 961.602 -4.15747)" fill="#F46442"/>
<rect x="948.254" y="17.9636" width="4.65906" height="4.65906" transform="rotate(135 948.254 17.9636)" fill="#F46442"/>
<path d="M944.09 7.30412L933.902 17.9585V6.84088L944.09 -3.8135V7.30412Z" fill="#F46442"/>
<path d="M945.852 7.30412L956.04 17.9585V6.84088L945.852 -3.8135V7.30412Z" fill="#F46442"/>
<rect x="61.1445" y="11.7922" width="12.8915" height="12.8915" transform="rotate(180 61.1445 11.7922)" fill="#F46442"/>
<rect width="12.8915" height="12.8915" transform="matrix(1 0 0 -1 28.918 11.7922)" fill="#F46442"/>
<rect width="12.8915" height="12.8915" transform="matrix(1 0 0 -1 22.4688 17.2725)" fill="#F46442"/>
<rect x="67.5898" y="17.2725" width="12.8915" height="12.8915" transform="rotate(180 67.5898 17.2725)" fill="#F46442"/>
<rect x="16.0273" y="-1.09766" width="6.44575" height="6.44575" fill="#F46442"/>
<rect x="41.8086" y="24.6847" width="6.44575" height="6.44575" fill="#F46442"/>
<rect x="67.5898" y="-1.09766" width="6.44575" height="6.44575" fill="#F46442"/>
<rect x="48.2539" y="18.2384" width="6.44575" height="6.44575" fill="#F46442"/>
<rect x="35.3633" y="18.2384" width="6.44575" height="6.44575" fill="#F46442"/>
<rect x="41.8086" y="18.2384" width="6.44575" height="6.44575" fill="#F46442"/>
<rect x="41.8086" y="11.7922" width="6.44575" height="6.44575" fill="#F46442"/>
<rect x="126.66" y="12.2841" width="7.90428" height="7.90428" transform="rotate(-135 126.66 12.2841)" fill="#F46442"/>
<path d="M137.951 6.72437L127.297 -3.46381H138.414L149.069 6.72437L137.951 6.72437Z" fill="#F46442"/>
<path d="M115.201 -3.46246L104.547 6.72571H115.664L126.319 -3.46246L115.201 -3.46246Z" fill="#F46442"/>
<rect x="182.098" y="-17.3003" width="6.38476" height="55.8667" transform="rotate(-45 182.098 -17.3003)" fill="#F46442"/>
<rect x="173.07" y="-8.26892" width="6.38476" height="55.8667" transform="rotate(-45 173.07 -8.26892)" fill="#F46442"/>
<rect x="191.125" y="-26.3291" width="6.38476" height="55.8667" transform="rotate(-45 191.125 -26.3291)" fill="#F46442"/>
<rect x="200.156" y="-35.3579" width="6.38476" height="55.8667" transform="rotate(-45 200.156 -35.3579)" fill="#F46442"/>
<rect x="195.641" y="22.2046" width="6.38476" height="55.8667" transform="rotate(-135 195.641 22.2046)" fill="#F46442"/>
<rect x="204.668" y="31.2334" width="6.38476" height="55.8667" transform="rotate(-135 204.668 31.2334)" fill="#F46442"/>
<rect x="186.613" y="13.1758" width="6.38476" height="55.8667" transform="rotate(-135 186.613 13.1758)" fill="#F46442"/>
<rect x="177.582" y="4.14441" width="6.38476" height="55.8667" transform="rotate(-135 177.582 4.14441)" fill="#F46442"/>
<rect x="284.984" y="-4.15747" width="7.90428" height="7.90428" transform="rotate(135 284.984 -4.15747)" fill="#F46442"/>
<rect x="307.023" y="-4.15747" width="7.90428" height="7.90428" transform="rotate(135 307.023 -4.15747)" fill="#F46442"/>
<rect x="293.672" y="17.9636" width="4.65906" height="4.65906" transform="rotate(135 293.672 17.9636)" fill="#F46442"/>
<path d="M289.508 7.30412L279.32 17.9585V6.84088L289.508 -3.8135V7.30412Z" fill="#F46442"/>
<path d="M291.27 7.30412L301.458 17.9585V6.84088L291.27 -3.8135V7.30412Z" fill="#F46442"/>
<path fill-rule="evenodd" clip-rule="evenodd" d="M523.825 86.2033L536.026 74.0018L548.228 86.2033L536.026 98.4047L523.825 86.2033ZM531.417 86.2033L536.026 81.5938L540.636 86.2033L536.026 90.8127L531.417 86.2033Z" fill="#F46442"/>
<path fill-rule="evenodd" clip-rule="evenodd" d="M571.478 91.4229L566.259 86.2034L571.478 80.9838L567.411 76.9167L562.192 82.1362L557.447 77.3912L560.158 74.6798L556.091 70.6126L553.379 73.324L548.906 68.8502L551.617 66.1387L547.55 62.0716L544.838 64.783L540.093 60.038L545.313 54.8185L541.246 50.7513L536.026 55.9709L530.807 50.7513L526.74 54.8185L531.959 60.038L527.214 64.783L524.503 62.0716L520.435 66.1387L523.147 68.8502L518.673 73.324L515.962 70.6126L511.894 74.6798L514.606 77.3912L509.861 82.1362L504.641 76.9167L500.574 80.9838L505.794 86.2034L500.574 91.4229L504.641 95.49L509.861 90.2705L514.606 95.0155L511.894 97.727L515.962 101.794L518.673 99.0827L523.147 103.557L520.435 106.268L524.503 110.335L527.214 107.624L531.959 112.369L526.74 117.588L530.807 121.655L536.026 116.436L541.246 121.655L545.313 117.588L540.093 112.369L544.838 107.624L547.55 110.335L551.617 106.268L548.906 103.557L553.379 99.0827L556.091 101.794L560.158 97.727L557.447 95.0155L562.192 90.2705L567.411 95.49L571.478 91.4229ZM536.026 108.302L513.928 86.2034L536.026 64.1052L558.124 86.2034L536.026 108.302Z" fill="#F46442"/>
<rect x="617.66" y="80.7765" width="7.90428" height="7.90428" transform="rotate(-135 617.66 80.7765)" fill="#F46442"/>
<rect x="617.66" y="102.81" width="7.90428" height="7.90428" transform="rotate(-135 617.66 102.81)" fill="#F46442"/>
<rect x="595.543" y="89.462" width="4.65906" height="4.65906" transform="rotate(-135 595.543 89.462)" fill="#F46442"/>
<rect x="640.105" y="89.462" width="4.65906" height="4.65906" transform="rotate(-135 640.105 89.462)" fill="#F46442"/>
<path d="M628.943 97.2482L618.289 87.06H629.407L640.061 97.2482H628.943Z" fill="#F46442"/>
<path d="M606.201 85.296L595.547 75.1078H606.664L617.319 85.296H606.201Z" fill="#F46442"/>
<path d="M606.201 87.0638L595.547 97.252H606.664L617.319 87.0638H606.201Z" fill="#F46442"/>
<path d="M629.408 85.296L640.062 75.1078H628.945L618.291 85.296H629.408Z" fill="#F46442"/>
<path d="M690.266 50.7206L697.795 58.6356V81.1242L690.266 73.2092V50.7206Z" fill="#F46442"/>
<path d="M690.266 121.688L697.795 113.773V91.2843L690.266 99.1993V121.688Z" fill="#F46442"/>
<path d="M709.086 50.7206L701.556 58.6356V81.1242L709.086 73.2092V50.7206Z" fill="#F46442"/>
<path d="M709.086 121.688L701.556 113.773V91.2843L709.086 99.1993V121.688Z" fill="#F46442"/>
<path d="M664.164 95.6187L672.07 88.0806H694.533L686.627 95.6187H664.164Z" fill="#F46442"/>
<path d="M735.066 95.6187L727.16 88.0806H704.697L712.603 95.6187H735.066Z" fill="#F46442"/>
<path d="M664.164 76.7745L672.07 84.3126H694.533L686.627 76.7745H664.164Z" fill="#F46442"/>
<path d="M735.066 76.7745L727.16 84.3126H704.697L712.603 76.7745H735.066Z" fill="#F46442"/>
<rect width="5.02255" height="5.02255" transform="matrix(0.706706 -0.707507 0.706706 0.707507 696.164 86.1697)" fill="#F46442"/>
<rect x="775.98" y="86.3693" width="7.90428" height="7.90428" transform="rotate(135 775.98 86.3693)" fill="#F46442"/>
<rect x="798.02" y="86.3693" width="7.90428" height="7.90428" transform="rotate(135 798.02 86.3693)" fill="#F46442"/>
<rect x="784.668" y="108.488" width="4.65906" height="4.65906" transform="rotate(135 784.668 108.488)" fill="#F46442"/>
<rect x="784.668" y="63.9228" width="4.65906" height="4.65906" transform="rotate(135 784.668 63.9228)" fill="#F46442"/>
<path d="M792.453 75.0821L782.265 85.7365V74.6188L792.453 63.9645V75.0821Z" fill="#F46442"/>
<path d="M780.504 97.8283L770.316 108.483V97.3651L780.504 86.7107V97.8283Z" fill="#F46442"/>
<path d="M782.266 97.8283L792.454 108.483V97.3651L782.266 86.7107V97.8283Z" fill="#F46442"/>
<path d="M780.504 74.6182L770.316 63.9638V75.0814L780.504 85.7358V74.6182Z" fill="#F46442"/>
<rect width="12.8915" height="12.8915" transform="matrix(-1 0 0 1 879.316 70.09)" fill="#F46442"/>
<rect width="12.8915" height="12.8915" transform="matrix(-1 0 0 1 885.766 64.6123)" fill="#F46442"/>
<rect x="879.316" y="102.319" width="12.8915" height="12.8915" transform="rotate(180 879.316 102.319)" fill="#F46442"/>
<rect width="12.8915" height="12.8915" transform="matrix(1 0 0 -1 847.09 102.319)" fill="#F46442"/>
<rect x="853.535" y="77.5048" width="12.8915" height="12.8915" transform="rotate(180 853.535 77.5048)" fill="#F46442"/>
<rect width="12.8915" height="12.8915" transform="matrix(1 0 0 -1 840.641 107.799)" fill="#F46442"/>
<rect x="885.766" y="107.799" width="12.8915" height="12.8915" transform="rotate(180 885.766 107.799)" fill="#F46442"/>
<rect x="859.984" y="82.9825" width="12.8915" height="12.8915" transform="rotate(180 859.984 82.9825)" fill="#F46442"/>
<rect x="859.984" y="82.9825" width="6.44575" height="6.44575" fill="#F46442"/>
<rect x="859.984" y="63.6438" width="6.44575" height="6.44575" fill="#F46442"/>
<rect x="834.203" y="89.4261" width="6.44575" height="6.44575" fill="#F46442"/>
<rect x="859.984" y="115.211" width="6.44575" height="6.44575" fill="#F46442"/>
<rect x="885.766" y="89.4261" width="6.44575" height="6.44575" fill="#F46442"/>
<rect x="866.43" y="57.1976" width="6.44575" height="6.44575" fill="#F46442"/>
<rect x="840.641" y="82.9825" width="6.44575" height="6.44575" fill="#F46442"/>
<rect x="866.43" y="108.762" width="6.44575" height="6.44575" fill="#F46442"/>
<rect x="892.211" y="82.9825" width="6.44575" height="6.44575" fill="#F46442"/>
<rect x="853.535" y="57.1976" width="6.44575" height="6.44575" fill="#F46442"/>
<rect x="827.754" y="82.9825" width="6.44575" height="6.44575" fill="#F46442"/>
<rect x="853.535" y="108.762" width="6.44575" height="6.44575" fill="#F46442"/>
<rect x="879.316" y="82.9825" width="6.44575" height="6.44575" fill="#F46442"/>
<rect x="859.984" y="57.1976" width="6.44575" height="6.44575" fill="#F46442"/>
<rect x="834.203" y="82.9825" width="6.44575" height="6.44575" fill="#F46442"/>
<rect x="859.984" y="108.762" width="6.44575" height="6.44575" fill="#F46442"/>
<rect x="885.766" y="82.9825" width="6.44575" height="6.44575" fill="#F46442"/>
<rect x="859.984" y="50.7539" width="6.44575" height="6.44575" fill="#F46442"/>
<rect x="834.203" y="76.5363" width="6.44575" height="6.44575" fill="#F46442"/>
<rect x="859.984" y="102.319" width="6.44575" height="6.44575" fill="#F46442"/>
<rect x="885.766" y="76.5363" width="6.44575" height="6.44575" fill="#F46442"/>
<rect x="944.836" y="80.7765" width="7.90428" height="7.90428" transform="rotate(-135 944.836 80.7765)" fill="#F46442"/>
<rect x="944.836" y="102.81" width="7.90428" height="7.90428" transform="rotate(-135 944.836 102.81)" fill="#F46442"/>
<rect x="922.715" y="89.462" width="4.65906" height="4.65906" transform="rotate(-135 922.715 89.462)" fill="#F46442"/>
<rect x="967.281" y="89.462" width="4.65906" height="4.65906" transform="rotate(-135 967.281 89.462)" fill="#F46442"/>
<path d="M956.123 97.2482L945.469 87.06H956.586L967.241 97.2482H956.123Z" fill="#F46442"/>
<path d="M933.373 85.296L922.719 75.1078H933.836L944.491 85.296H933.373Z" fill="#F46442"/>
<path d="M933.373 87.0638L922.719 97.252H933.836L944.491 87.0638H933.373Z" fill="#F46442"/>
<path d="M956.588 85.296L967.242 75.1078H956.125L945.47 85.296H956.588Z" fill="#F46442"/>
<path d="M35.9375 50.7206L43.4671 58.6356V81.1242L35.9375 73.2092V50.7206Z" fill="#F46442"/>
<path d="M35.9375 121.688L43.4671 113.773V91.2843L35.9375 99.1993V121.688Z" fill="#F46442"/>
<path d="M54.7578 50.7206L47.2283 58.6356V81.1242L54.7578 73.2092V50.7206Z" fill="#F46442"/>
<path d="M54.7578 121.688L47.2283 113.773V91.2843L54.7578 99.1993V121.688Z" fill="#F46442"/>
<path d="M9.83203 95.6187L17.7381 88.0806H40.2012L32.2952 95.6187H9.83203Z" fill="#F46442"/>
<path d="M80.7383 95.6187L72.8322 88.0806H50.3691L58.2751 95.6187H80.7383Z" fill="#F46442"/>
<path d="M9.83203 76.7745L17.7381 84.3126H40.2012L32.2952 76.7745H9.83203Z" fill="#F46442"/>
<path d="M80.7383 76.7745L72.8322 84.3126H50.3691L58.2751 76.7745H80.7383Z" fill="#F46442"/>
<rect width="5.02255" height="5.02255" transform="matrix(0.706706 -0.707507 0.706706 0.707507 41.832 86.1722)" fill="#F46442"/>
<rect x="121.645" y="86.3667" width="7.90428" height="7.90428" transform="rotate(135 121.645 86.3667)" fill="#F46442"/>
<rect x="143.684" y="86.3667" width="7.90428" height="7.90428" transform="rotate(135 143.684 86.3667)" fill="#F46442"/>
<rect x="130.332" y="108.488" width="4.65906" height="4.65906" transform="rotate(135 130.332 108.488)" fill="#F46442"/>
<rect x="130.332" y="63.9228" width="4.65906" height="4.65906" transform="rotate(135 130.332 63.9228)" fill="#F46442"/>
<path d="M138.117 75.0795L127.929 85.7339V74.6163L138.117 63.9619V75.0795Z" fill="#F46442"/>
<path d="M126.168 97.8283L115.98 108.483V97.3651L126.168 86.7107V97.8283Z" fill="#F46442"/>
<path d="M127.93 97.8283L138.118 108.483V97.3651L127.93 86.7107V97.8283Z" fill="#F46442"/>
<path d="M126.168 74.6156L115.98 63.9612V75.0789L126.168 85.7332V74.6156Z" fill="#F46442"/>
<rect width="12.8915" height="12.8915" transform="matrix(-1 0 0 1 224.988 70.09)" fill="#F46442"/>
<rect width="12.8915" height="12.8915" transform="matrix(-1 0 0 1 231.434 64.6123)" fill="#F46442"/>
<rect x="224.988" y="102.319" width="12.8915" height="12.8915" transform="rotate(180 224.988 102.319)" fill="#F46442"/>
<rect width="12.8915" height="12.8915" transform="matrix(1 0 0 -1 192.754 102.319)" fill="#F46442"/>
<rect x="199.199" y="77.5048" width="12.8915" height="12.8915" transform="rotate(180 199.199 77.5048)" fill="#F46442"/>
<rect width="12.8915" height="12.8915" transform="matrix(1 0 0 -1 186.309 107.799)" fill="#F46442"/>
<rect x="231.434" y="107.799" width="12.8915" height="12.8915" transform="rotate(180 231.434 107.799)" fill="#F46442"/>
<rect x="205.645" y="82.9825" width="12.8915" height="12.8915" transform="rotate(180 205.645 82.9825)" fill="#F46442"/>
<rect x="205.645" y="82.9825" width="6.44575" height="6.44575" fill="#F46442"/>
<rect x="205.645" y="63.6438" width="6.44575" height="6.44575" fill="#F46442"/>
<rect x="179.863" y="89.4287" width="6.44575" height="6.44575" fill="#F46442"/>
<rect x="205.645" y="115.211" width="6.44575" height="6.44575" fill="#F46442"/>
<rect x="231.434" y="89.4287" width="6.44575" height="6.44575" fill="#F46442"/>
<rect x="212.094" y="57.1976" width="6.44575" height="6.44575" fill="#F46442"/>
<rect x="186.309" y="82.9825" width="6.44575" height="6.44575" fill="#F46442"/>
<rect x="212.094" y="108.765" width="6.44575" height="6.44575" fill="#F46442"/>
<rect x="237.875" y="82.9825" width="6.44575" height="6.44575" fill="#F46442"/>
<rect x="199.199" y="57.1976" width="6.44575" height="6.44575" fill="#F46442"/>
<rect x="173.418" y="82.9825" width="6.44575" height="6.44575" fill="#F46442"/>
<rect x="199.199" y="108.765" width="6.44575" height="6.44575" fill="#F46442"/>
<rect x="224.988" y="82.9825" width="6.44575" height="6.44575" fill="#F46442"/>
<rect x="205.645" y="57.1976" width="6.44575" height="6.44575" fill="#F46442"/>
<rect x="179.863" y="82.9825" width="6.44575" height="6.44575" fill="#F46442"/>
<rect x="205.645" y="108.765" width="6.44575" height="6.44575" fill="#F46442"/>
<rect x="231.434" y="82.9825" width="6.44575" height="6.44575" fill="#F46442"/>
<rect x="205.645" y="50.7539" width="6.44575" height="6.44575" fill="#F46442"/>
<rect x="179.863" y="76.5363" width="6.44575" height="6.44575" fill="#F46442"/>
<rect x="205.645" y="102.319" width="6.44575" height="6.44575" fill="#F46442"/>
<rect x="231.434" y="76.5363" width="6.44575" height="6.44575" fill="#F46442"/>
<rect x="290.5" y="80.7765" width="7.90428" height="7.90428" transform="rotate(-135 290.5 80.7765)" fill="#F46442"/>
<rect x="290.5" y="102.81" width="7.90428" height="7.90428" transform="rotate(-135 290.5 102.81)" fill="#F46442"/>
<rect x="268.383" y="89.462" width="4.65906" height="4.65906" transform="rotate(-135 268.383 89.462)" fill="#F46442"/>
<rect x="312.949" y="89.462" width="4.65906" height="4.65906" transform="rotate(-135 312.949 89.462)" fill="#F46442"/>
<path d="M301.787 97.2482L291.133 87.06H302.25L312.905 97.2482H301.787Z" fill="#F46442"/>
<path d="M279.041 85.2986L268.387 75.1104H279.504L290.159 85.2986H279.041Z" fill="#F46442"/>
<path d="M279.041 87.0638L268.387 97.252H279.504L290.159 87.0638H279.041Z" fill="#F46442"/>
<path d="M302.252 85.2986L312.906 75.1104H301.789L291.134 85.2986H302.252Z" fill="#F46442"/>
<rect x="345.934" y="73.2261" width="6.38476" height="55.8667" transform="rotate(-45 345.934 73.2261)" fill="#F46442"/>
<rect x="336.906" y="82.2549" width="6.38476" height="55.8667" transform="rotate(-45 336.906 82.2549)" fill="#F46442"/>
<rect x="354.961" y="64.1947" width="6.38476" height="55.8667" transform="rotate(-45 354.961 64.1947)" fill="#F46442"/>
<rect x="363.992" y="55.1659" width="6.38476" height="55.8667" transform="rotate(-45 363.992 55.1659)" fill="#F46442"/>
<rect x="359.477" y="112.728" width="6.38476" height="55.8667" transform="rotate(-135 359.477 112.728)" fill="#F46442"/>
<rect x="368.508" y="121.76" width="6.38476" height="55.8667" transform="rotate(-135 368.508 121.76)" fill="#F46442"/>
<rect x="350.449" y="103.7" width="6.38476" height="55.8667" transform="rotate(-135 350.449 103.7)" fill="#F46442"/>
<rect x="341.418" y="94.6707" width="6.38476" height="55.8667" transform="rotate(-135 341.418 94.6707)" fill="#F46442"/>
<rect x="448.82" y="86.3693" width="7.90428" height="7.90428" transform="rotate(135 448.82 86.3693)" fill="#F46442"/>
<rect x="470.859" y="86.3693" width="7.90428" height="7.90428" transform="rotate(135 470.859 86.3693)" fill="#F46442"/>
<rect x="457.508" y="108.488" width="4.65906" height="4.65906" transform="rotate(135 457.508 108.488)" fill="#F46442"/>
<rect x="457.508" y="63.9228" width="4.65906" height="4.65906" transform="rotate(135 457.508 63.9228)" fill="#F46442"/>
<path d="M465.293 75.0821L455.105 85.7365V74.6188L465.293 63.9645V75.0821Z" fill="#F46442"/>
<path d="M453.344 97.8308L443.156 108.485V97.3676L453.344 86.7132V97.8308Z" fill="#F46442"/>
<path d="M455.105 97.8308L465.294 108.485V97.3676L455.105 86.7132V97.8308Z" fill="#F46442"/>
<path d="M453.344 74.6182L443.156 63.9638V75.0814L453.344 85.7358V74.6182Z" fill="#F46442"/>
<path fill-rule="evenodd" clip-rule="evenodd" d="M687.672 176.607L699.874 164.405L712.075 176.607L699.874 188.808L687.672 176.607ZM695.264 176.607L699.874 171.997L704.483 176.607L699.874 181.216L695.264 176.607Z" fill="#F46442"/>
<path fill-rule="evenodd" clip-rule="evenodd" d="M735.326 181.826L730.106 176.607L735.326 171.387L731.259 167.32L726.039 172.54L721.294 167.795L724.006 165.083L719.939 161.016L717.227 163.727L712.753 159.254L715.465 156.542L711.397 152.475L708.686 155.186L703.941 150.441L709.161 145.222L705.093 141.155L699.874 146.374L694.654 141.155L690.587 145.222L695.807 150.441L691.062 155.186L688.35 152.475L684.283 156.542L686.995 159.254L682.521 163.727L679.809 161.016L675.742 165.083L678.454 167.795L673.709 172.54L668.489 167.32L664.422 171.387L669.641 176.607L664.422 181.826L668.489 185.893L673.709 180.674L678.454 185.419L675.742 188.13L679.809 192.198L682.521 189.486L686.995 193.96L684.283 196.671L688.35 200.739L691.062 198.027L695.807 202.772L690.587 207.992L694.654 212.059L699.874 206.839L705.093 212.059L709.161 207.992L703.941 202.772L708.686 198.027L711.397 200.739L715.465 196.671L712.753 193.96L717.227 189.486L719.939 192.198L724.006 188.13L721.294 185.419L726.039 180.674L731.259 185.893L735.326 181.826ZM699.874 198.705L677.776 176.607L699.874 154.509L721.972 176.607L699.874 198.705Z" fill="#F46442"/>
<rect x="781.504" y="171.18" width="7.90428" height="7.90428" transform="rotate(-135 781.504 171.18)" fill="#F46442"/>
<path d="M770.041 175.699L759.387 165.511H770.504L781.159 175.699H770.041Z" fill="#F46442"/>
<path d="M793.252 175.699L803.906 165.511H792.789L782.134 175.699H793.252Z" fill="#F46442"/>
<path d="M854.109 141.124L861.639 149.039V171.528L854.109 163.613V141.124Z" fill="#F46442"/>
<path d="M872.93 141.124L865.4 149.039V171.528L872.93 163.613V141.124Z" fill="#F46442"/>
<path d="M828.004 167.178L835.91 174.716H858.373L850.467 167.178H828.004Z" fill="#F46442"/>
<path d="M898.91 167.178L891.004 174.716H868.541L876.447 167.178H898.91Z" fill="#F46442"/>
<rect x="939.82" y="176.768" width="7.90428" height="7.90428" transform="rotate(135 939.82 176.768)" fill="#F46442"/>
<rect x="961.859" y="176.768" width="7.90428" height="7.90428" transform="rotate(135 961.859 176.768)" fill="#F46442"/>
<rect x="948.508" y="154.322" width="4.65906" height="4.65906" transform="rotate(135 948.508 154.322)" fill="#F46442"/>
<path d="M956.293 165.483L946.105 176.138V165.02L956.293 154.366V165.483Z" fill="#F46442"/>
<path d="M944.344 165.017L934.156 154.363V165.48L944.344 176.135V165.017Z" fill="#F46442"/>
<path fill-rule="evenodd" clip-rule="evenodd" d="M33.3365 176.607L45.538 164.405L57.7394 176.607L45.538 188.808L33.3365 176.607ZM40.9285 176.607L45.538 171.997L50.1474 176.607L45.538 181.216L40.9285 176.607Z" fill="#F46442"/>
<path fill-rule="evenodd" clip-rule="evenodd" d="M80.99 181.826L75.7705 176.607L80.99 171.387L76.9228 167.32L71.7033 172.54L66.9583 167.795L69.6697 165.083L65.6026 161.016L62.8911 163.727L58.4173 159.254L61.1287 156.542L57.0616 152.475L54.3501 155.186L49.6051 150.441L54.8246 145.222L50.7575 141.155L45.538 146.374L40.3184 141.155L36.2513 145.222L41.4708 150.441L36.7258 155.186L34.0144 152.475L29.9472 156.542L32.6586 159.254L28.1848 163.727L25.4733 161.016L21.4062 165.083L24.1176 167.795L19.3726 172.54L14.1531 167.32L10.0859 171.387L15.3055 176.607L10.0859 181.826L14.1531 185.893L19.3726 180.674L24.1176 185.419L21.4062 188.13L25.4733 192.198L28.1848 189.486L32.6586 193.96L29.9472 196.671L34.0144 200.739L36.7258 198.027L41.4708 202.772L36.2513 207.992L40.3184 212.059L45.538 206.839L50.7575 212.059L54.8246 207.992L49.6051 202.772L54.3501 198.027L57.0616 200.739L61.1287 196.671L58.4173 193.96L62.8911 189.486L65.6026 192.198L69.6697 188.13L66.9583 185.419L71.7033 180.674L76.9228 185.893L80.99 181.826ZM45.538 198.705L23.4398 176.607L45.538 154.509L67.6362 176.607L45.538 198.705Z" fill="#F46442"/>
<rect x="127.164" y="171.18" width="7.90428" height="7.90428" transform="rotate(-135 127.164 171.18)" fill="#F46442"/>
<path d="M115.709 175.699L105.055 165.511H116.172L126.827 175.699H115.709Z" fill="#F46442"/>
<path d="M138.916 175.699L149.57 165.511H138.453L127.798 175.699H138.916Z" fill="#F46442"/>
<path d="M199.773 141.124L207.303 149.039V171.528L199.773 163.613V141.124Z" fill="#F46442"/>
<path d="M218.594 141.124L211.064 149.039V171.528L218.594 163.613V141.124Z" fill="#F46442"/>
<path d="M173.668 167.178L181.574 174.716H204.037L196.131 167.178H173.668Z" fill="#F46442"/>
<path d="M244.57 167.178L236.664 174.716H214.201L222.107 167.178H244.57Z" fill="#F46442"/>
<rect x="285.488" y="176.768" width="7.90428" height="7.90428" transform="rotate(135 285.488 176.768)" fill="#F46442"/>
<rect x="307.527" y="176.768" width="7.90428" height="7.90428" transform="rotate(135 307.527 176.768)" fill="#F46442"/>
<rect x="294.176" y="154.322" width="4.65906" height="4.65906" transform="rotate(135 294.176 154.322)" fill="#F46442"/>
<path d="M301.961 165.483L291.773 176.138V165.02L301.961 154.366V165.483Z" fill="#F46442"/>
<path d="M290.012 165.017L279.824 154.363V165.48L290.012 176.135V165.017Z" fill="#F46442"/>
<rect width="12.8915" height="12.8915" transform="matrix(-1 0 0 1 388.824 160.493)" fill="#F46442"/>
<rect width="12.8915" height="12.8915" transform="matrix(-1 0 0 1 395.273 155.013)" fill="#F46442"/>
<rect x="363.043" y="167.906" width="12.8915" height="12.8915" transform="rotate(180 363.043 167.906)" fill="#F46442"/>
<rect x="369.492" y="173.383" width="12.8915" height="12.8915" transform="rotate(180 369.492 173.383)" fill="#F46442"/>
<rect x="369.492" y="154.047" width="6.44575" height="6.44575" fill="#F46442"/>
<rect x="375.934" y="147.601" width="6.44575" height="6.44575" fill="#F46442"/>
<rect x="363.043" y="147.601" width="6.44575" height="6.44575" fill="#F46442"/>
<rect x="369.492" y="147.601" width="6.44575" height="6.44575" fill="#F46442"/>
<rect x="369.492" y="141.155" width="6.44575" height="6.44575" fill="#F46442"/>
<rect x="343.707" y="166.94" width="6.44575" height="6.44575" fill="#F46442"/>
<rect x="395.273" y="166.94" width="6.44575" height="6.44575" fill="#F46442"/>
<rect x="454.344" y="171.18" width="7.90428" height="7.90428" transform="rotate(-135 454.344 171.18)" fill="#F46442"/>
<path d="M442.881 175.699L432.227 165.511H443.344L453.999 175.699H442.881Z" fill="#F46442"/>
<path d="M466.096 175.699L476.75 165.511H465.632L454.978 175.699H466.096Z" fill="#F46442"/>
<rect x="509.777" y="163.629" width="6.38476" height="55.8667" transform="rotate(-45 509.777 163.629)" fill="#F46442"/>
<rect x="500.75" y="172.656" width="6.38476" height="55.8667" transform="rotate(-45 500.75 172.656)" fill="#F46442"/>
<rect x="518.805" y="154.598" width="6.38476" height="55.8667" transform="rotate(-45 518.805 154.598)" fill="#F46442"/>
<rect x="527.836" y="145.569" width="6.38476" height="55.8667" transform="rotate(-45 527.836 145.569)" fill="#F46442"/>
<rect x="523.32" y="203.132" width="6.38476" height="55.8667" transform="rotate(-135 523.32 203.132)" fill="#F46442"/>
<rect x="532.352" y="212.161" width="6.38476" height="55.8667" transform="rotate(-135 532.352 212.161)" fill="#F46442"/>
<rect x="514.293" y="194.103" width="6.38476" height="55.8667" transform="rotate(-135 514.293 194.103)" fill="#F46442"/>
<rect x="505.262" y="185.072" width="6.38476" height="55.8667" transform="rotate(-135 505.262 185.072)" fill="#F46442"/>
<rect x="612.664" y="176.768" width="7.90428" height="7.90428" transform="rotate(135 612.664 176.768)" fill="#F46442"/>
<rect x="634.703" y="176.768" width="7.90428" height="7.90428" transform="rotate(135 634.703 176.768)" fill="#F46442"/>
<rect x="621.352" y="154.322" width="4.65906" height="4.65906" transform="rotate(135 621.352 154.322)" fill="#F46442"/>
<path d="M629.137 165.483L618.949 176.138V165.02L629.137 154.366V165.483Z" fill="#F46442"/>
<path d="M617.188 165.017L606.999 154.363V165.48L617.188 176.135V165.017Z" fill="#F46442"/>
</g>
<defs>
<clipPath id="clip0_4001_11848">
<rect width="980" height="172" fill="white"/>
</clipPath>
</defs>
</svg>
