<svg xmlns="http://www.w3.org/2000/svg" width="30" height="87" viewBox="0 0 30 87" fill="none">
    <path
        d="M29.4891 43.8152C29.4891 35.672 22.8877 29.0707 14.7445 29.0707C6.60135 29.0707 0 35.672 0 43.8152C0 51.9584 6.60135 58.5598 14.7445 58.5598C22.8877 58.5598 29.4891 51.9584 29.4891 43.8152Z"
        fill="white" />
    <path
        d="M21.8292 78.9051C21.8292 74.8335 18.5285 71.5328 14.4569 71.5328C10.3853 71.5328 7.08463 74.8335 7.08463 78.9051C7.08463 82.9767 10.3853 86.2773 14.4569 86.2773C18.5285 86.2773 21.8292 82.9767 21.8292 78.9051Z"
        fill="white" />
    <path
        d="M21.8292 8.13325C21.8292 4.06165 18.5285 0.760979 14.4569 0.760979C10.3853 0.760979 7.08463 4.06165 7.08463 8.13325C7.08463 12.2048 10.3853 15.5055 14.4569 15.5055C18.5285 15.5055 21.8292 12.2048 21.8292 8.13325Z"
        fill="white" />
</svg>