<svg xmlns="http://www.w3.org/2000/svg" width="143" height="35" viewBox="0 0 143 35" fill="none">
    <g opacity="0.3">
        <path
            d="M15.9321 1.13812C15.9321 0.509555 16.4416 0 17.0702 0C17.6988 0 18.2083 0.509553 18.2083 1.13812V12.5193C18.2083 13.1479 17.6988 13.6574 17.0702 13.6574C16.4416 13.6574 15.9321 13.1479 15.9321 12.5193V1.13812Z"
            fill="white" />
        <path
            d="M18.7751 7.39759C18.7751 7.08331 19.0299 6.82853 19.3442 6.82853C19.6585 6.82853 19.9133 7.08331 19.9133 7.39759V13.0882C19.9133 13.4025 19.6585 13.6572 19.3442 13.6572C19.0299 13.6572 18.7751 13.4025 18.7751 13.0882V7.39759Z"
            fill="white" />
        <path
            d="M14.2239 7.39759C14.2239 7.08331 14.4787 6.82853 14.7929 6.82853C15.1072 6.82853 15.362 7.08331 15.362 7.39759V13.0882C15.362 13.4025 15.1072 13.6572 14.7929 13.6572C14.4787 13.6572 14.2239 13.4025 14.2239 13.0882V7.39759Z"
            fill="white" />
        <path
            d="M15.9343 33.0056C15.9343 33.6341 16.4439 34.1437 17.0725 34.1437C17.701 34.1437 18.2106 33.6341 18.2106 33.0056V21.6244C18.2106 20.9958 17.701 20.4862 17.0725 20.4862C16.4439 20.4862 15.9343 20.9958 15.9343 21.6244V33.0056Z"
            fill="white" />
        <path
            d="M18.7789 26.7461C18.7789 27.0604 19.0336 27.3151 19.3479 27.3151C19.6622 27.3151 19.917 27.0604 19.917 26.7461V21.0555C19.917 20.7412 19.6622 20.4864 19.3479 20.4864C19.0336 20.4864 18.7789 20.7412 18.7789 21.0555V26.7461Z"
            fill="white" />
        <path
            d="M14.2276 26.7461C14.2276 27.0604 14.4824 27.3151 14.7967 27.3151C15.111 27.3151 15.3657 27.0604 15.3657 26.7461V21.0555C15.3657 20.7412 15.111 20.4864 14.7967 20.4864C14.4824 20.4864 14.2276 20.7412 14.2276 21.0555V26.7461Z"
            fill="white" />
        <path
            d="M33.0029 18.2097C33.6314 18.2097 34.141 17.7001 34.141 17.0716C34.141 16.443 33.6314 15.9334 33.0029 15.9334H21.6217C20.9931 15.9334 20.4836 16.443 20.4836 17.0716C20.4836 17.7001 20.9931 18.2097 21.6217 18.2097H33.0029Z"
            fill="white" />
        <path
            d="M26.7436 15.3644C27.0579 15.3644 27.3126 15.1096 27.3126 14.7954C27.3126 14.4811 27.0579 14.2263 26.7436 14.2263H21.053C20.7387 14.2263 20.4839 14.4811 20.4839 14.7954C20.4839 15.1096 20.7387 15.3644 21.053 15.3644H26.7436Z"
            fill="white" />
        <path
            d="M26.7436 19.9168C27.0579 19.9168 27.3126 19.662 27.3126 19.3477C27.3126 19.0334 27.0579 18.7787 26.7436 18.7787H21.053C20.7387 18.7787 20.4839 19.0334 20.4839 19.3477C20.4839 19.662 20.7387 19.9168 21.053 19.9168H26.7436Z"
            fill="white" />
        <path
            d="M1.13812 18.2097C0.509555 18.2097 0 17.7001 0 17.0716C0 16.443 0.509553 15.9335 1.13812 15.9335H12.5193C13.1479 15.9335 13.6574 16.443 13.6574 17.0716C13.6574 17.7001 13.1479 18.2097 12.5193 18.2097H1.13812Z"
            fill="white" />
        <path
            d="M7.39741 15.3644C7.08312 15.3644 6.82834 15.1096 6.82834 14.7954C6.82834 14.4811 7.08312 14.2263 7.3974 14.2263H13.088C13.4023 14.2263 13.6571 14.4811 13.6571 14.7954C13.6571 15.1096 13.4023 15.3644 13.088 15.3644H7.39741Z"
            fill="white" />
        <path
            d="M7.39741 19.9168C7.08312 19.9168 6.82834 19.662 6.82834 19.3477C6.82834 19.0334 7.08312 18.7787 7.3974 18.7787H13.088C13.4023 18.7787 13.6571 19.0334 13.6571 19.3477C13.6571 19.662 13.4023 19.9168 13.088 19.9168H7.39741Z"
            fill="white" />
        <path
            d="M19.117 17.0717C19.117 18.2032 18.1998 19.1204 17.0684 19.1204C15.937 19.1204 15.0198 18.2032 15.0198 17.0717C15.0198 15.9403 15.937 15.0231 17.0684 15.0231C18.1998 15.0231 19.117 15.9403 19.117 17.0717Z"
            fill="white" />
        <path
            d="M56.1864 24.1852C56.1864 25.7566 54.9125 27.0305 53.3411 27.0305C51.7696 27.0305 50.4958 25.7566 50.4958 24.1852C50.4958 22.6138 51.7696 21.3399 53.3411 21.3399C54.9125 21.3399 56.1864 22.6138 56.1864 24.1852Z"
            fill="white" />
        <path
            d="M63.3006 17.0716C63.3006 18.643 62.0267 19.9169 60.4553 19.9169C58.8839 19.9169 57.61 18.643 57.61 17.0716C57.61 15.5002 58.8839 14.2263 60.4553 14.2263C62.0267 14.2263 63.3006 15.5002 63.3006 17.0716Z"
            fill="white" />
        <path
            d="M63.3006 2.8453C63.3006 4.41671 62.0267 5.6906 60.4553 5.6906C58.8839 5.6906 57.61 4.41671 57.61 2.8453C57.61 1.27388 58.8839 0 60.4553 0C62.0267 0 63.3006 1.27388 63.3006 2.8453Z"
            fill="white" />
        <path
            d="M63.3006 31.2983C63.3006 32.8697 62.0267 34.1436 60.4553 34.1436C58.8839 34.1436 57.61 32.8697 57.61 31.2983C57.61 29.7269 58.8839 28.453 60.4553 28.453C62.0267 28.453 63.3006 29.7269 63.3006 31.2983Z"
            fill="white" />
        <path
            d="M56.1864 9.95846C56.1864 11.5299 54.9125 12.8038 53.3411 12.8038C51.7696 12.8038 50.4958 11.5299 50.4958 9.95846C50.4958 8.38705 51.7696 7.11317 53.3411 7.11317C54.9125 7.11317 56.1864 8.38705 56.1864 9.95846Z"
            fill="white" />
        <path
            d="M45.5156 17.0717C45.5156 15.9403 46.4328 15.0231 47.5642 15.0231H54.1653C55.2968 15.0231 56.2139 15.9403 56.2139 17.0717C56.2139 18.2032 55.2967 19.1204 54.1653 19.1204H47.5642C46.4328 19.1204 45.5156 18.2032 45.5156 17.0717Z"
            fill="white" />
        <path
            d="M57.5776 10.2428C57.5776 9.11143 58.4948 8.19423 59.6262 8.19423H66.2273C67.3587 8.19423 68.2759 9.11143 68.2759 10.2428C68.2759 11.3743 67.3587 12.2915 66.2273 12.2915H59.6262C58.4948 12.2915 57.5776 11.3743 57.5776 10.2428Z"
            fill="white" />
        <path
            d="M45.5156 2.84541C45.5156 1.714 46.4328 0.7968 47.5642 0.7968H54.1653C55.2968 0.7968 56.2139 1.714 56.2139 2.84541C56.2139 3.97683 55.2967 4.89403 54.1653 4.89403H47.5642C46.4328 4.89403 45.5156 3.97683 45.5156 2.84541Z"
            fill="white" />
        <path
            d="M57.5776 24.1284C57.5776 22.9969 58.4948 22.0797 59.6262 22.0797H66.2273C67.3587 22.0797 68.2759 22.9969 68.2759 24.1284C68.2759 25.2598 67.3587 26.177 66.2273 26.177H59.6262C58.4948 26.177 57.5776 25.2598 57.5776 24.1284Z"
            fill="white" />
        <path
            d="M45.5156 31.2983C45.5156 30.1668 46.4328 29.2496 47.5642 29.2496H54.1653C55.2968 29.2496 56.2139 30.1668 56.2139 31.2983C56.2139 32.4297 55.2967 33.3469 54.1653 33.3469H47.5642C46.4328 33.3469 45.5156 32.4297 45.5156 31.2983Z"
            fill="white" />
        <path
            d="M98.7011 15.1372C99.7768 16.2128 99.7768 17.9568 98.7011 19.0324C97.6255 20.1081 95.8815 20.1081 94.8059 19.0324C93.7303 17.9568 93.7303 16.2128 94.8059 15.1372C95.8815 14.0616 97.6255 14.0616 98.7011 15.1372Z"
            fill="white" />
        <path
            d="M91.0856 16.1242C91.6161 16.6547 91.6161 17.5149 91.0856 18.0454C90.5551 18.5759 89.6949 18.5759 89.1644 18.0454C88.6339 17.5149 88.6339 16.6547 89.1644 16.1242C89.6949 15.5937 90.5551 15.5937 91.0856 16.1242Z"
            fill="white" />
        <path
            d="M97.7133 22.6763C98.2438 23.2068 98.2438 24.0668 97.7133 24.5973C97.1828 25.1278 96.3228 25.1278 95.7923 24.5973C95.2618 24.0668 95.2618 23.2068 95.7923 22.6763C96.3228 22.1458 97.1828 22.1458 97.7133 22.6763Z"
            fill="white" />
        <path
            d="M93.031 7.64416C94.611 9.22416 94.611 11.7858 93.031 13.3658C91.451 14.9458 88.8893 14.9458 87.3093 13.3658C85.7293 11.7858 85.7293 9.22416 87.3093 7.64416C88.8893 6.06417 91.451 6.06417 93.031 7.64416Z"
            fill="white" />
        <path
            d="M93.031 20.8038C94.611 22.3838 94.611 24.9455 93.031 26.5255C91.451 28.1055 88.8893 28.1055 87.3093 26.5255C85.7293 24.9455 85.7293 22.3838 87.3093 20.8038C88.8893 19.2238 91.451 19.2238 93.031 20.8038Z"
            fill="white" />
        <path
            d="M106.191 7.64416C107.771 9.22416 107.771 11.7858 106.191 13.3658C104.611 14.9458 102.049 14.9458 100.469 13.3658C98.8893 11.7858 98.8893 9.22416 100.469 7.64416C102.049 6.06417 104.611 6.06417 106.191 7.64416Z"
            fill="white" />
        <path
            d="M106.191 20.8038C107.771 22.3838 107.771 24.9455 106.191 26.5255C104.611 28.1055 102.049 28.1055 100.469 26.5255C98.8893 24.9455 98.8893 22.3838 100.469 20.8038C102.049 19.2238 104.611 19.2238 106.191 20.8038Z"
            fill="white" />
        <path
            d="M97.6994 9.5122C98.2222 10.035 98.2222 10.8825 97.6994 11.4053C97.1767 11.9281 96.3291 11.9281 95.8063 11.4053C95.2836 10.8825 95.2836 10.035 95.8063 9.5122C96.3291 8.98944 97.1767 8.98944 97.6994 9.5122Z"
            fill="white" />
        <path
            d="M104.256 16.1345C104.781 16.6594 104.781 17.5103 104.256 18.0351C103.731 18.5599 102.88 18.5599 102.355 18.0351C101.831 17.5103 101.831 16.6594 102.355 16.1345C102.88 15.6097 103.731 15.6097 104.256 16.1345Z"
            fill="white" />
        <path
            d="M80.6472 19.3735C79.3832 18.1095 79.3832 16.0601 80.6472 14.7961C81.9112 13.5321 83.9606 13.5321 85.2245 14.7961C86.4885 16.0601 86.4885 18.1095 85.2245 19.3735C83.9606 20.6375 81.9112 20.6375 80.6472 19.3735Z"
            fill="white" />
        <path
            d="M108.201 19.3735C106.937 18.1095 106.937 16.0601 108.201 14.7961C109.465 13.5321 111.514 13.5321 112.778 14.7961C114.042 16.0601 114.042 18.1095 112.778 19.3735C111.514 20.6375 109.465 20.6375 108.201 19.3735Z"
            fill="white" />
        <path
            d="M94.4248 5.55853C93.1608 4.29454 93.1608 2.24519 94.4248 0.981199C95.6888 -0.282796 97.7381 -0.282796 99.0021 0.981199C100.266 2.24519 100.266 4.29454 99.0021 5.55853C97.7381 6.82253 95.6888 6.82253 94.4248 5.55853Z"
            fill="white" />
        <path
            d="M94.4248 33.1127C93.1608 31.8487 93.1608 29.7994 94.4248 28.5354C95.6888 27.2714 97.7381 27.2714 99.0021 28.5354C100.266 29.7994 100.266 31.8487 99.0021 33.1127C97.7381 34.3767 95.6888 34.3767 94.4248 33.1127Z"
            fill="white" />
        <path
            d="M136.567 17.0716C136.567 18.643 135.293 19.9169 133.722 19.9169C132.15 19.9169 130.877 18.643 130.877 17.0716C130.877 15.5002 132.15 14.2263 133.722 14.2263C135.293 14.2263 136.567 15.5002 136.567 17.0716Z"
            fill="white" />
        <path
            d="M135.621 11.3813C135.621 12.4289 134.772 13.2781 133.724 13.2781C132.676 13.2781 131.827 12.4289 131.827 11.3813C131.827 10.3337 132.676 9.48441 133.724 9.48441C134.772 9.48441 135.621 10.3337 135.621 11.3813Z"
            fill="white" />
        <path
            d="M142.26 17.0716C142.26 18.3811 141.198 19.4427 139.889 19.4427C138.579 19.4427 137.518 18.3811 137.518 17.0716C137.518 15.7621 138.579 14.7005 139.889 14.7005C141.198 14.7005 142.26 15.7621 142.26 17.0716Z"
            fill="white" />
        <path
            d="M129.93 17.0716C129.93 18.3811 128.868 19.4427 127.559 19.4427C126.249 19.4427 125.188 18.3811 125.188 17.0716C125.188 15.7621 126.249 14.7005 127.559 14.7005C128.868 14.7005 129.93 15.7621 129.93 17.0716Z"
            fill="white" />
        <path
            d="M128.698 11.4288C128.698 12.0836 128.167 12.6143 127.512 12.6143C126.858 12.6143 126.327 12.0836 126.327 11.4288C126.327 10.774 126.858 10.2433 127.512 10.2433C128.167 10.2433 128.698 10.774 128.698 11.4288Z"
            fill="white" />
        <path
            d="M141.025 11.4288C141.025 12.0836 140.494 12.6143 139.84 12.6143C139.185 12.6143 138.654 12.0836 138.654 11.4288C138.654 10.774 139.185 10.2433 139.84 10.2433C140.494 10.2433 141.025 10.774 141.025 11.4288Z"
            fill="white" />
        <path
            d="M141.025 22.8097C141.025 23.4644 140.494 23.9952 139.84 23.9952C139.185 23.9952 138.654 23.4644 138.654 22.8097C138.654 22.1549 139.185 21.6241 139.84 21.6241C140.494 21.6241 141.025 22.1549 141.025 22.8097Z"
            fill="white" />
        <path
            d="M128.698 22.8097C128.698 23.4644 128.167 23.9952 127.512 23.9952C126.858 23.9952 126.327 23.4644 126.327 22.8097C126.327 22.1549 126.858 21.6241 127.512 21.6241C128.167 21.6241 128.698 22.1549 128.698 22.8097Z"
            fill="white" />
        <path
            d="M135.621 32.2467C135.621 33.2943 134.772 34.1436 133.724 34.1436C132.676 34.1436 131.827 33.2943 131.827 32.2467C131.827 31.1991 132.676 30.3499 133.724 30.3499C134.772 30.3499 135.621 31.1991 135.621 32.2467Z"
            fill="white" />
        <path
            d="M135.621 6.63934C135.621 7.68695 134.772 8.53621 133.724 8.53621C132.676 8.53621 131.827 7.68695 131.827 6.63934C131.827 5.59173 132.676 4.74248 133.724 4.74248C134.772 4.74248 135.621 5.59173 135.621 6.63934Z"
            fill="white" />
        <path
            d="M135.621 27.5046C135.621 28.5522 134.772 29.4015 133.724 29.4015C132.676 29.4015 131.827 28.5522 131.827 27.5046C131.827 26.457 132.676 25.6078 133.724 25.6078C134.772 25.6078 135.621 26.457 135.621 27.5046Z"
            fill="white" />
        <path
            d="M135.621 1.89687C135.621 2.94447 134.772 3.79373 133.724 3.79373C132.676 3.79373 131.827 2.94447 131.827 1.89687C131.827 0.849255 132.676 0 133.724 0C134.772 0 135.621 0.849255 135.621 1.89687Z"
            fill="white" />
        <path
            d="M135.621 22.7622C135.621 23.8098 134.772 24.659 133.724 24.659C132.676 24.659 131.827 23.8098 131.827 22.7622C131.827 21.7145 132.676 20.8653 133.724 20.8653C134.772 20.8653 135.621 21.7145 135.621 22.7622Z"
            fill="white" />
    </g>
</svg>