<svg xmlns="http://www.w3.org/2000/svg" width="153" height="33" viewBox="0 0 153 33" fill="none">
    <g opacity="0.3">
        <path d="M11.5889 2.12598L14.7041 5.39694V14.6906L11.5889 11.4197V2.12598Z" fill="white" />
        <path d="M11.5889 31.4543L14.7041 28.1833V18.8896L11.5889 22.1606V31.4543Z" fill="white" />
        <path d="M19.3767 2.12598L16.2615 5.39694V14.6906L19.3767 11.4197V2.12598Z" fill="white" />
        <path d="M19.3767 31.4543L16.2615 28.1833V18.8896L19.3767 22.1606V31.4543Z" fill="white" />
        <path d="M0.788086 20.6809L4.05905 17.5657H13.3528L10.0818 20.6809H0.788086Z" fill="white" />
        <path d="M30.1236 20.6809L26.8526 17.5657H17.5589L20.8299 20.6809H30.1236Z" fill="white" />
        <path d="M0.788086 12.8929L4.05905 16.0081H13.3528L10.0818 12.8929H0.788086Z" fill="white" />
        <path d="M30.1236 12.8929L26.8526 16.0081H17.5589L20.8299 12.8929H30.1236Z" fill="white" />
        <path d="M14.0281 16.7757L15.4966 15.3072L16.9652 16.7757L15.4966 18.2442L14.0281 16.7757Z" fill="white" />
        <path d="M145.66 16.7258L149.147 13.239L152.634 16.7258L149.147 20.2126L145.66 16.7258Z" fill="white" />
        <path d="M131.915 16.7258L135.402 13.239L138.889 16.7258L135.402 20.2126L131.915 16.7258Z" fill="white" />
        <path d="M140.242 2.92634L142.298 0.871094L144.353 2.92634L142.298 4.98159L140.242 2.92634Z" fill="white" />
        <path d="M140.242 30.7281L142.298 28.6729L144.353 30.7281L142.298 32.7834L140.242 30.7281Z" fill="white" />
        <path d="M135.386 23.7677L141.742 17.121V24.0567L135.386 30.7035V23.7677Z" fill="white" />
        <path d="M142.842 9.57586L149.198 2.92911V9.86485L142.842 16.5116V9.57586Z" fill="white" />
        <path d="M141.74 9.57586L135.384 2.92911V9.86485L141.74 16.5116V9.57586Z" fill="white" />
        <path d="M142.842 24.0569L149.198 30.7036V23.7679L142.842 17.1211V24.0569Z" fill="white" />
        <path d="M64.7173 10.1264H59.3837V15.46H64.7173V10.1264Z" fill="white" />
        <path d="M67.3835 7.85944H62.0499V13.1931H67.3835V7.85944Z" fill="white" />
        <path d="M64.7173 23.4603H59.3837V18.1267H64.7173V23.4603Z" fill="white" />
        <path d="M51.3819 23.4603H56.7155V18.1267H51.3819V23.4603Z" fill="white" />
        <path d="M54.0496 13.1931H48.7159V7.8595H54.0496V13.1931Z" fill="white" />
        <path d="M48.7142 25.7271H54.0478V20.3935H48.7142V25.7271Z" fill="white" />
        <path d="M67.3835 25.7271H62.0499V20.3935H67.3835V25.7271Z" fill="white" />
        <path d="M56.7158 15.4599H51.3821V10.1263H56.7158V15.4599Z" fill="white" />
        <path d="M56.7158 15.4599H59.3826V18.1267L56.7155 18.1267L56.7158 15.4599Z" fill="white" />
        <path d="M56.7158 7.45984H59.3826V10.1266L56.7158 10.1263V7.45984Z" fill="white" />
        <path d="M46.048 18.1266H48.7148V20.7934H46.048V18.1266Z" fill="white" />
        <path d="M56.7158 28.7936H59.3826V31.4604H56.7158V28.7936Z" fill="white" />
        <path d="M67.3835 18.1266H70.0503V20.7934H67.3835V18.1266Z" fill="white" />
        <path d="M59.3819 4.79272H62.0488V7.45953L59.3826 7.45984L59.3819 4.79272Z" fill="white" />
        <path d="M48.7142 15.4599H51.381V18.1267L48.7148 18.1266L48.7142 15.4599Z" fill="white" />
        <path d="M59.3819 26.1271H62.0488V28.7939L59.3826 28.7936L59.3819 26.1271Z" fill="white" />
        <path d="M70.0497 15.4599H72.7165V18.1267L70.0503 18.1266L70.0497 15.4599Z" fill="white" />
        <path d="M54.0496 4.79272H56.7164L56.7158 7.45984L54.0496 7.45953V4.79272Z" fill="white" />
        <path d="M43.3818 15.4599H46.0486L46.048 18.1266L43.3818 18.1267V15.4599Z" fill="white" />
        <path d="M54.0496 26.1271H56.7164L56.7158 28.7936L54.0496 28.7939V26.1271Z" fill="white" />
        <path d="M64.7173 15.46L67.3841 15.4599L67.3835 18.1266L64.7173 18.1267V15.46Z" fill="white" />
        <path d="M56.7164 4.79272H59.3819L59.3826 7.45984H56.7158L56.7164 4.79272Z" fill="white" />
        <path d="M46.0486 15.4599H48.7142L48.7148 18.1266H46.048L46.0486 15.4599Z" fill="white" />
        <path d="M56.7164 26.1271H59.3819L59.3826 28.7936H56.7158L56.7164 26.1271Z" fill="white" />
        <path d="M67.3841 15.4599H70.0497L70.0503 18.1266H67.3835L67.3841 15.4599Z" fill="white" />
        <path d="M56.7158 2.12598H59.3826L59.3819 4.79272H56.7164L56.7158 2.12598Z" fill="white" />
        <path d="M46.048 12.793H48.7148L48.7142 15.4599H46.0486L46.048 12.793Z" fill="white" />
        <path d="M56.7155 23.4603H59.3826L59.3819 26.1271H56.7164L56.7155 23.4603Z" fill="white" />
        <path d="M67.3835 12.793H70.0503L70.0497 15.4599H67.3841L67.3835 12.793Z" fill="white" />
        <path d="M91.3304 11.4118L93.1962 9.54603L109.522 25.8714L107.656 27.7372L91.3304 11.4118Z" fill="white" />
        <path d="M87.5986 15.143L89.4644 13.2773L105.79 29.6027L103.924 31.4684L87.5986 15.143Z" fill="white" />
        <path d="M95.0622 7.68018L96.928 5.81443L113.253 22.1398L111.388 24.0056L95.0622 7.68018Z" fill="white" />
        <path d="M98.7925 3.94876L100.658 2.08301L116.984 18.4084L115.118 20.2741L98.7925 3.94876Z" fill="white" />
        <path d="M96.932 27.7372L95.0663 25.8714L111.392 9.54605L113.257 11.4118L96.932 27.7372Z" fill="white" />
        <path d="M100.664 31.4688L98.7981 29.603L115.123 13.2777L116.989 15.1434L100.664 31.4688Z" fill="white" />
        <path d="M93.2017 24.0058L91.336 22.14L107.661 5.81463L109.527 7.68039L93.2017 24.0058Z" fill="white" />
        <path d="M89.4699 20.2743L87.6042 18.4086L103.93 2.08321L105.795 3.94897L89.4699 20.2743Z" fill="white" />
    </g>
</svg>