<svg xmlns="http://www.w3.org/2000/svg" width="703" height="331" viewBox="0 0 703 331" fill="none">
    <path
        d="M3.23773 226.443L11.8717 174.64H33.3216C39.145 174.64 43.5632 175.888 46.5761 178.383C49.6114 180.879 50.7694 184.241 50.0499 188.468C49.5552 191.525 48.1837 193.943 45.9353 195.719C43.6868 197.473 40.9438 198.653 37.706 199.26C39.9545 199.53 41.9556 200.227 43.7093 201.351C45.4631 202.453 46.7672 203.948 47.6216 205.837C48.476 207.703 48.7008 209.918 48.2961 212.481C47.8239 215.224 46.6997 217.652 44.9235 219.766C43.1472 221.857 40.8201 223.498 37.9421 224.69C35.0866 225.859 31.7702 226.443 27.9929 226.443H3.23773ZM14.1313 218.012H29.4094C31.9276 218.012 33.9961 217.416 35.615 216.224C37.2339 215.01 38.1895 213.391 38.4817 211.368C38.9089 208.94 38.5155 207.04 37.3013 205.668C36.1097 204.297 34.2884 203.611 31.8377 203.611H16.5596L14.1313 218.012ZM17.7401 196.225H29.8141C31.7028 196.225 33.3778 195.955 34.8393 195.415C36.3008 194.876 37.4812 194.111 38.3806 193.122C39.2799 192.11 39.842 190.918 40.0669 189.547C40.4266 187.568 39.8645 186.017 38.3806 184.893C36.9191 183.746 34.7606 183.173 31.9051 183.173H19.9323L17.7401 196.225Z"
        fill="url(#paint0_linear_2082_27492)" />
    <path
        d="M76.4674 226.443L85.1013 174.64H95.1855L91.5431 196.36H96.3997L117.141 174.64H129.62L105.337 199.833L121.222 226.443H108.71L96.5683 205.736H89.9916L86.5516 226.443H76.4674Z"
        fill="url(#paint1_linear_2082_27492)" />
    <path
        d="M141.113 227.59C137.83 227.59 134.964 226.983 132.513 225.769C130.062 224.532 128.252 222.745 127.083 220.406C125.914 218.068 125.61 215.201 126.172 211.806C126.667 208.883 127.634 206.477 129.073 204.589C130.534 202.7 132.31 201.205 134.401 200.103C136.493 198.979 138.763 198.136 141.214 197.574C143.665 197.012 146.138 196.596 148.634 196.326C151.782 195.966 154.334 195.663 156.29 195.415C158.268 195.168 159.752 194.786 160.742 194.269C161.731 193.729 162.327 192.852 162.529 191.638V191.402C163.001 188.479 162.574 186.208 161.248 184.589C159.944 182.948 157.673 182.127 154.435 182.127C151.062 182.127 148.229 182.869 145.936 184.353C143.665 185.837 141.99 187.501 140.911 189.345L131.872 187.186C133.491 184.038 135.548 181.498 138.044 179.564C140.562 177.608 143.316 176.191 146.307 175.314C149.297 174.415 152.355 173.965 155.48 173.965C157.549 173.965 159.696 174.213 161.922 174.707C164.148 175.179 166.172 176.056 167.993 177.338C169.837 178.62 171.208 180.452 172.108 182.835C173.007 185.196 173.142 188.265 172.512 192.043L166.812 226.443H156.964L158.179 219.361H157.774C156.919 220.665 155.728 221.947 154.199 223.206C152.692 224.465 150.849 225.51 148.668 226.342C146.487 227.174 143.969 227.59 141.113 227.59ZM144.553 219.496C147.364 219.496 149.848 218.945 152.007 217.843C154.188 216.742 155.953 215.303 157.302 213.526C158.651 211.728 159.494 209.805 159.831 207.759L160.944 201.081C160.517 201.441 159.764 201.767 158.684 202.059C157.628 202.352 156.436 202.61 155.109 202.835C153.783 203.06 152.479 203.251 151.197 203.408C149.938 203.566 148.893 203.712 148.061 203.847C146.082 204.094 144.227 204.51 142.496 205.095C140.787 205.679 139.359 206.522 138.213 207.624C137.066 208.703 136.346 210.142 136.054 211.941C135.649 214.437 136.245 216.326 137.842 217.607C139.46 218.866 141.698 219.496 144.553 219.496Z"
        fill="url(#paint2_linear_2082_27492)" />
    <path
        d="M174.09 226.443L198.541 199.935L182.96 174.64H194.696L207.141 196.157H210.75L214.325 174.64H224.409L220.868 196.157H224.376L243.937 174.64H255.674L231.66 199.935L247.276 226.443H235.303L222.79 204.859H219.418L215.775 226.443H205.691L209.334 204.859H205.961L186.062 226.443H174.09Z"
        fill="url(#paint3_linear_2082_27492)" />
    <path
        d="M247.192 241.384L251.206 217.708H255.388C256.624 216.719 257.726 215.539 258.693 214.167C259.682 212.796 260.593 211.165 261.425 209.277C262.257 207.388 263.055 205.185 263.819 202.666C264.606 200.126 265.416 197.225 266.247 193.965L271.037 174.64H306.247L299.164 217.708H307.158L303.144 241.384H293.296L295.724 226.443H259.637L257.175 241.384H247.192ZM266.18 217.708H289.35L295.016 183.274H278.659L275.792 193.965C274.398 199.406 272.97 204.128 271.509 208.13C270.07 212.11 268.294 215.303 266.18 217.708Z"
        fill="url(#paint4_linear_2082_27492)" />
    <path
        d="M334.729 227.489C329.805 227.489 325.691 226.365 322.386 224.116C319.08 221.845 316.753 218.675 315.404 214.606C314.078 210.513 313.853 205.758 314.73 200.339C315.584 195.033 317.304 190.401 319.89 186.444C322.498 182.487 325.758 179.418 329.671 177.237C333.605 175.056 337.978 173.965 342.79 173.965C347.714 173.965 351.817 175.101 355.1 177.372C358.405 179.643 360.732 182.824 362.082 186.916C363.431 191.008 363.667 195.775 362.79 201.216C361.935 206.477 360.193 211.087 357.562 215.044C354.954 218.979 351.694 222.037 347.782 224.218C343.869 226.399 339.519 227.489 334.729 227.489ZM335.303 219.024C338.541 219.024 341.362 218.169 343.768 216.46C346.196 214.752 348.175 212.481 349.704 209.648C351.233 206.815 352.278 203.712 352.841 200.339C353.358 197.079 353.346 194.1 352.807 191.402C352.29 188.681 351.165 186.5 349.434 184.859C347.703 183.218 345.297 182.397 342.217 182.397C338.979 182.397 336.135 183.263 333.684 184.994C331.256 186.703 329.277 188.985 327.748 191.84C326.242 194.696 325.219 197.81 324.679 201.182C324.162 204.42 324.162 207.399 324.679 210.12C325.196 212.818 326.32 214.977 328.052 216.595C329.783 218.214 332.2 219.024 335.303 219.024Z"
        fill="url(#paint5_linear_2082_27492)" />
    <path
        d="M398.212 213.965L421.516 174.64H430.218L399.898 226.443H392.411L379.797 174.64H388.397L398.212 213.965ZM385.564 174.64L376.93 226.443H367.082L375.716 174.64H385.564ZM415.614 226.443L424.248 174.64H434.063L425.429 226.443H415.614Z"
        fill="url(#paint6_linear_2082_27492)" />
    <path
        d="M457.622 212.751H467.908C467.684 214.864 468.369 216.494 469.966 217.641C471.562 218.788 473.788 219.361 476.643 219.361C479.544 219.361 482.118 218.743 484.367 217.506C486.615 216.247 487.953 214.302 488.38 211.671C488.65 210.097 488.493 208.726 487.908 207.557C487.346 206.365 486.413 205.443 485.109 204.791C483.805 204.139 482.208 203.813 480.32 203.813H471.888L473.237 195.887H481.669C484.479 195.887 486.705 195.247 488.347 193.965C489.988 192.661 490.966 191.02 491.281 189.041C491.618 186.927 491.135 185.23 489.83 183.948C488.549 182.644 486.537 181.992 483.793 181.992C481.073 181.992 478.701 182.61 476.677 183.847C474.654 185.061 473.428 186.635 473.001 188.569H462.782C463.367 185.668 464.682 183.128 466.728 180.947C468.797 178.743 471.382 177.034 474.485 175.82C477.588 174.584 480.983 173.965 484.67 173.965C488.515 173.965 491.742 174.584 494.35 175.82C496.958 177.057 498.847 178.766 500.016 180.947C501.208 183.128 501.556 185.635 501.061 188.468C500.589 191.323 499.353 193.661 497.351 195.483C495.35 197.281 492.945 198.574 490.134 199.361L489.999 199.901C491.978 200.036 493.653 200.643 495.024 201.722C496.396 202.801 497.374 204.229 497.959 206.005C498.543 207.782 498.644 209.794 498.262 212.042C497.745 215.213 496.418 217.956 494.282 220.272C492.169 222.587 489.471 224.375 486.188 225.634C482.928 226.871 479.319 227.489 475.362 227.489C471.54 227.489 468.223 226.893 465.413 225.702C462.602 224.487 460.5 222.779 459.106 220.575C457.712 218.372 457.217 215.763 457.622 212.751Z"
        fill="url(#paint7_linear_2082_27492)" />
    <path
        d="M503.499 226.443L512.133 174.64H533.583C539.406 174.64 543.824 175.888 546.837 178.383C549.872 180.879 551.03 184.241 550.311 188.468C549.816 191.525 548.445 193.943 546.196 195.719C543.948 197.473 541.205 198.653 537.967 199.26C540.216 199.53 542.217 200.227 543.97 201.351C545.724 202.453 547.028 203.948 547.883 205.837C548.737 207.703 548.962 209.918 548.557 212.481C548.085 215.224 546.961 217.652 545.185 219.766C543.408 221.857 541.081 223.498 538.203 224.69C535.348 225.859 532.031 226.443 528.254 226.443H503.499ZM514.392 218.012H529.67C532.189 218.012 534.257 217.416 535.876 216.224C537.495 215.01 538.451 213.391 538.743 211.368C539.17 208.94 538.777 207.04 537.562 205.668C536.371 204.297 534.549 203.611 532.099 203.611H516.821L514.392 218.012ZM518.001 196.225H530.075C531.964 196.225 533.639 195.955 535.1 195.415C536.562 194.876 537.742 194.111 538.642 193.122C539.541 192.11 540.103 190.918 540.328 189.547C540.688 187.568 540.126 186.017 538.642 184.893C537.18 183.746 535.022 183.173 532.166 183.173H520.193L518.001 196.225Z"
        fill="url(#paint8_linear_2082_27492)" />
    <path
        d="M557.613 245.87C556.084 245.87 554.724 245.746 553.532 245.499C552.341 245.274 551.453 245.027 550.868 244.757L554.713 236.494C556.489 236.989 558.074 237.18 559.468 237.067C560.885 236.955 562.211 236.37 563.448 235.313C564.685 234.257 565.944 232.593 567.225 230.322L569.114 226.916L558.962 174.64H569.35L575.758 214.943H576.298L596.129 174.64H607.36L576.298 233.29C574.836 236.078 573.172 238.394 571.306 240.238C569.463 242.104 567.394 243.509 565.101 244.453C562.83 245.398 560.334 245.87 557.613 245.87Z"
        fill="url(#paint9_linear_2082_27492)" />
    <path
        d="M605.387 226.443L614.021 174.64H624.105L620.463 196.36H625.32L646.061 174.64H658.54L634.257 199.833L650.142 226.443H637.63L625.488 205.736H618.912L615.472 226.443H605.387Z"
        fill="url(#paint10_linear_2082_27492)" />
    <path
        d="M675.151 227.489C670.07 227.489 665.865 226.399 662.537 224.218C659.232 222.014 656.916 218.923 655.59 214.943C654.263 210.941 654.05 206.253 654.949 200.879C655.826 195.573 657.591 190.896 660.244 186.849C662.897 182.802 666.202 179.643 670.159 177.372C674.139 175.101 678.535 173.965 683.346 173.965C686.269 173.965 689.024 174.449 691.609 175.416C694.218 176.382 696.432 177.9 698.253 179.969C700.075 182.037 701.334 184.724 702.031 188.029C702.75 191.312 702.728 195.303 701.963 200.002L701.39 203.577H660.177L661.357 196.022H692.655C693.127 193.369 693.003 191.02 692.284 188.974C691.565 186.905 690.328 185.275 688.574 184.083C686.843 182.892 684.662 182.296 682.031 182.296C679.333 182.296 676.815 183.004 674.476 184.42C672.138 185.837 670.182 187.647 668.608 189.85C667.057 192.031 666.079 194.28 665.674 196.596L664.493 203.51C663.909 207.287 664.01 210.322 664.797 212.616C665.606 214.909 667.023 216.573 669.047 217.607C671.07 218.641 673.6 219.159 676.635 219.159C678.591 219.159 680.401 218.889 682.065 218.349C683.751 217.787 685.246 216.966 686.55 215.887C687.855 214.785 688.945 213.414 689.822 211.773L699.063 213.493C697.826 216.303 696.05 218.765 693.734 220.879C691.418 222.97 688.686 224.6 685.539 225.769C682.413 226.916 678.951 227.489 675.151 227.489Z"
        fill="url(#paint11_linear_2082_27492)" />
    <path
        d="M0 156.253L11.9391 85.0235H21.7872L20.4044 93.4213H21.2476C22.0121 92.3421 23.0463 91.0942 24.3504 89.6777C25.677 88.2612 27.4195 87.0246 29.578 85.9678C31.7365 84.8886 34.4233 84.3489 37.6386 84.3489C41.8207 84.3489 45.3619 85.4057 48.2624 87.5192C51.1629 89.6327 53.2314 92.6793 54.468 96.659C55.7047 100.639 55.8621 105.428 54.9402 111.026C54.0183 116.625 52.2871 121.425 49.7463 125.428C47.2056 129.407 44.1253 132.476 40.5053 134.635C36.9079 136.771 33.0068 137.839 28.8023 137.839C25.6545 137.839 23.17 137.311 21.3488 136.254C19.55 135.197 18.2122 133.96 17.3353 132.544C16.4585 131.127 15.7952 129.868 15.3455 128.767H14.7384L10.1516 156.253H0ZM17.504 110.925C16.9194 114.568 16.9194 117.76 17.504 120.504C18.0886 123.247 19.2577 125.394 21.0115 126.945C22.7878 128.474 25.1261 129.239 28.0266 129.239C31.0395 129.239 33.6814 128.44 35.9523 126.844C38.2232 125.225 40.1006 123.033 41.5846 120.267C43.091 117.502 44.1365 114.388 44.7211 110.925C45.2832 107.508 45.272 104.439 44.6874 101.718C44.1253 98.9974 42.9674 96.8501 41.2136 95.2763C39.4598 93.7024 37.0652 92.9154 34.0299 92.9154C31.0844 92.9154 28.4763 93.6686 26.2054 95.1751C23.9569 96.6815 22.0908 98.7838 20.6068 101.482C19.1228 104.18 18.0886 107.328 17.504 110.925Z"
        fill="url(#paint12_linear_2082_27492)" />
    <path
        d="M74.0047 137.974C70.722 137.974 67.8552 137.367 65.4045 136.153C62.9537 134.916 61.1437 133.128 59.9745 130.79C58.8053 128.452 58.5018 125.585 59.0639 122.19C59.5586 119.267 60.5254 116.861 61.9644 114.972C63.4259 113.084 65.2021 111.589 67.2931 110.487C69.3842 109.363 71.6551 108.519 74.1059 107.957C76.5566 107.395 79.0299 106.979 81.5257 106.709C84.6734 106.35 87.2254 106.046 89.1815 105.799C91.1601 105.552 92.6441 105.169 93.6334 104.652C94.6227 104.113 95.2185 103.236 95.4209 102.022V101.785C95.8931 98.8625 95.4659 96.5916 94.1393 94.9727C92.8352 93.3314 90.5643 92.5107 87.3266 92.5107C83.954 92.5107 81.1209 93.2527 78.8275 94.7366C76.5566 96.2206 74.8816 97.8844 73.8023 99.7281L64.7637 97.5696C66.3825 94.4219 68.4398 91.8811 70.9356 89.9475C73.4538 87.9914 76.2081 86.5749 79.1985 85.698C82.1889 84.7986 85.2468 84.3489 88.3721 84.3489C90.4406 84.3489 92.5879 84.5963 94.8138 85.0909C97.0398 85.5631 99.0633 86.44 100.885 87.7216C102.728 89.0032 104.1 90.8356 104.999 93.2189C105.899 95.5798 106.033 98.6489 105.404 102.426L99.7042 136.827H89.8561L91.0702 129.745H90.6655C89.8111 131.049 88.6194 132.33 87.0905 133.589C85.5841 134.848 83.7403 135.894 81.5594 136.726C79.3784 137.558 76.8602 137.974 74.0047 137.974ZM77.4448 129.879C80.2553 129.879 82.7398 129.329 84.8983 128.227C87.0793 127.125 88.8443 125.686 90.1933 123.91C91.5424 122.111 92.3855 120.189 92.7228 118.143L93.8358 111.465C93.4086 111.825 92.6553 112.151 91.5761 112.443C90.5193 112.735 89.3277 112.994 88.0011 113.219C86.6745 113.444 85.3705 113.635 84.0889 113.792C82.8297 113.949 81.7842 114.096 80.9523 114.23C78.9737 114.478 77.1188 114.894 75.3875 115.478C73.6787 116.063 72.2509 116.906 71.1042 118.008C69.9575 119.087 69.238 120.526 68.9457 122.325C68.541 124.821 69.1369 126.709 70.7332 127.991C72.3521 129.25 74.5893 129.879 77.4448 129.879Z"
        fill="url(#paint13_linear_2082_27492)" />
    <path
        d="M131.972 137.873C126.936 137.873 122.81 136.737 119.595 134.466C116.38 132.173 114.143 129.014 112.883 124.989C111.624 120.964 111.422 116.355 112.276 111.161C113.131 105.9 114.873 101.257 117.504 97.2324C120.157 93.1852 123.473 90.0262 127.453 87.7553C131.455 85.4844 135.896 84.3489 140.775 84.3489C144.71 84.3489 148.094 85.0797 150.927 86.5411C153.76 87.9801 155.907 90.0037 157.368 92.6119C158.83 95.22 159.459 98.2667 159.257 101.752H149.443C149.285 99.3234 148.386 97.2324 146.745 95.4786C145.103 93.7248 142.686 92.848 139.493 92.848C136.683 92.848 134.097 93.5899 131.736 95.0739C129.376 96.5354 127.386 98.6264 125.767 101.347C124.148 104.045 123.046 107.238 122.462 110.925C121.832 114.703 121.866 117.963 122.563 120.706C123.26 123.449 124.541 125.574 126.408 127.08C128.274 128.587 130.623 129.34 133.456 129.34C135.39 129.34 137.189 128.991 138.853 128.294C140.539 127.575 142.023 126.552 143.305 125.225C144.609 123.899 145.62 122.302 146.34 120.436H156.188C155.221 123.786 153.602 126.777 151.331 129.407C149.083 132.038 146.317 134.107 143.035 135.613C139.752 137.119 136.065 137.873 131.972 137.873Z"
        fill="url(#paint14_linear_2082_27492)" />
    <path
        d="M183.01 137.873C177.973 137.873 173.847 136.737 170.632 134.466C167.417 132.173 165.18 129.014 163.92 124.989C162.661 120.964 162.459 116.355 163.313 111.161C164.168 105.9 165.91 101.257 168.541 97.2324C171.194 93.1852 174.511 90.0262 178.49 87.7553C182.492 85.4844 186.933 84.3489 191.812 84.3489C195.747 84.3489 199.131 85.0797 201.964 86.5411C204.797 87.9801 206.944 90.0037 208.405 92.6119C209.867 95.22 210.497 98.2667 210.294 101.752H200.48C200.322 99.3234 199.423 97.2324 197.782 95.4786C196.14 93.7248 193.723 92.848 190.531 92.848C187.72 92.848 185.134 93.5899 182.773 95.0739C180.413 96.5354 178.423 98.6264 176.804 101.347C175.185 104.045 174.083 107.238 173.499 110.925C172.869 114.703 172.903 117.963 173.6 120.706C174.297 123.449 175.579 125.574 177.445 127.08C179.311 128.587 181.66 129.34 184.493 129.34C186.427 129.34 188.226 128.991 189.89 128.294C191.576 127.575 193.06 126.552 194.342 125.225C195.646 123.899 196.657 122.302 197.377 120.436H207.225C206.258 123.786 204.639 126.777 202.368 129.407C200.12 132.038 197.354 134.107 194.072 135.613C190.789 137.119 187.102 137.873 183.01 137.873Z"
        fill="url(#paint15_linear_2082_27492)" />
    <path
        d="M208.28 136.827L209.696 128.092H211.517C212.956 128.092 214.216 127.788 215.295 127.181C216.396 126.552 217.386 125.495 218.263 124.011C219.14 122.527 219.971 120.481 220.758 117.873C221.545 115.242 222.355 111.937 223.187 107.957L227.875 85.0235H264.029L255.395 136.827H245.514L252.731 93.7248H235.767L232.023 111.33C231.124 115.602 230.078 119.334 228.886 122.527C227.695 125.72 226.29 128.384 224.671 130.52C223.052 132.634 221.163 134.219 219.005 135.276C216.846 136.31 214.35 136.827 211.517 136.827H208.28Z"
        fill="url(#paint16_linear_2082_27492)" />
    <path
        d="M280.935 137.974C277.653 137.974 274.786 137.367 272.335 136.153C269.884 134.916 268.074 133.128 266.905 130.79C265.736 128.452 265.432 125.585 265.995 122.19C266.489 119.267 267.456 116.861 268.895 114.972C270.356 113.084 272.133 111.589 274.224 110.487C276.315 109.363 278.586 108.519 281.036 107.957C283.487 107.395 285.961 106.979 288.456 106.709C291.604 106.35 294.156 106.046 296.112 105.799C298.091 105.552 299.575 105.169 300.564 104.652C301.553 104.113 302.149 103.236 302.352 102.022V101.785C302.824 98.8625 302.396 96.5916 301.07 94.9727C299.766 93.3314 297.495 92.5107 294.257 92.5107C290.885 92.5107 288.052 93.2527 285.758 94.7366C283.487 96.2206 281.812 97.8844 280.733 99.7281L271.694 97.5696C273.313 94.4219 275.37 91.8811 277.866 89.9475C280.384 87.9914 283.139 86.5749 286.129 85.698C289.12 84.7986 292.177 84.3489 295.303 84.3489C297.371 84.3489 299.519 84.5963 301.744 85.0909C303.97 85.5631 305.994 86.44 307.815 87.7216C309.659 89.0032 311.03 90.8356 311.93 93.2189C312.829 95.5798 312.964 98.6489 312.335 102.426L306.635 136.827H296.787L298.001 129.745H297.596C296.742 131.049 295.55 132.33 294.021 133.589C292.515 134.848 290.671 135.894 288.49 136.726C286.309 137.558 283.791 137.974 280.935 137.974ZM284.375 129.879C287.186 129.879 289.67 129.329 291.829 128.227C294.01 127.125 295.775 125.686 297.124 123.91C298.473 122.111 299.316 120.189 299.653 118.143L300.766 111.465C300.339 111.825 299.586 112.151 298.507 112.443C297.45 112.735 296.258 112.994 294.932 113.219C293.605 113.444 292.301 113.635 291.019 113.792C289.76 113.949 288.715 114.096 287.883 114.23C285.904 114.478 284.049 114.894 282.318 115.478C280.609 116.063 279.182 116.906 278.035 118.008C276.888 119.087 276.169 120.526 275.876 122.325C275.472 124.821 276.067 126.709 277.664 127.991C279.283 129.25 281.52 129.879 284.375 129.879Z"
        fill="url(#paint17_linear_2082_27492)" />
    <path
        d="M369.122 65.732L372.225 72.1063C370.471 73.5228 368.56 74.5346 366.491 75.1416C364.423 75.7262 362.096 76.0972 359.51 76.2546C356.947 76.3895 354.013 76.5132 350.707 76.6256C346.93 76.738 343.703 77.5474 341.028 79.0539C338.375 80.5378 336.16 82.7413 334.384 85.6643C332.63 88.5647 331.191 92.2072 330.067 96.5916H330.708C332.934 93.3763 335.677 90.9705 338.937 89.3742C342.197 87.7778 345.727 86.9796 349.527 86.9796C353.686 86.9796 357.228 87.9352 360.151 89.8463C363.096 91.7575 365.198 94.5568 366.458 98.2442C367.739 101.909 367.941 106.395 367.065 111.701C366.165 117.075 364.411 121.718 361.803 125.63C359.195 129.542 355.935 132.566 352.023 134.702C348.11 136.816 343.748 137.873 338.937 137.873C334.103 137.873 330.067 136.782 326.829 134.601C323.614 132.398 321.365 129.138 320.084 124.821C318.802 120.504 318.679 115.175 319.713 108.834L320.59 103.708C322.568 91.8587 326.166 82.9437 331.382 76.9629C336.621 70.9821 343.467 67.913 351.921 67.7556C354.62 67.6881 357.037 67.6769 359.173 67.7218C361.309 67.7443 363.197 67.6431 364.839 67.4183C366.48 67.171 367.908 66.6089 369.122 65.732ZM340.286 129.407C343.119 129.407 345.671 128.699 347.942 127.283C350.235 125.844 352.146 123.809 353.675 121.178C355.204 118.547 356.272 115.445 356.879 111.87C357.441 108.362 357.374 105.383 356.677 102.932C355.98 100.481 354.71 98.6152 352.866 97.3336C351.022 96.0295 348.684 95.3774 345.851 95.3774C343.76 95.3774 341.815 95.7484 340.016 96.4904C338.217 97.2099 336.61 98.2779 335.193 99.6944C333.777 101.111 332.585 102.842 331.618 104.888C330.651 106.912 329.932 109.239 329.46 111.87C328.56 117.221 329.078 121.482 331.011 124.652C332.945 127.822 336.036 129.407 340.286 129.407Z"
        fill="url(#paint18_linear_2082_27492)" />
    <path
        d="M367.419 136.827L368.836 128.092H370.657C372.096 128.092 373.355 127.788 374.434 127.181C375.536 126.552 376.526 125.495 377.402 124.011C378.279 122.527 379.111 120.481 379.898 117.873C380.685 115.242 381.495 111.937 382.326 107.957L387.014 85.0235H423.169L414.535 136.827H404.653L411.871 93.7248H394.906L391.163 111.33C390.263 115.602 389.218 119.334 388.026 122.527C386.835 125.72 385.429 128.384 383.81 130.52C382.192 132.634 380.303 134.219 378.144 135.276C375.986 136.31 373.49 136.827 370.657 136.827H367.419Z"
        fill="url(#paint19_linear_2082_27492)" />
    <path
        d="M456.028 136.827L463.211 93.6237H450.8C447.832 93.6237 445.415 94.3094 443.549 95.681C441.683 97.0525 440.581 98.8512 440.244 101.077C439.839 103.281 440.289 105.057 441.593 106.406C442.897 107.733 444.92 108.396 447.663 108.396H463.683L462.334 116.558H446.314C442.492 116.558 439.299 115.928 436.736 114.669C434.173 113.387 432.34 111.577 431.239 109.239C430.137 106.901 429.856 104.135 430.396 100.942C430.935 97.6821 432.172 94.8715 434.105 92.5107C436.039 90.1274 438.546 88.2837 441.626 86.9796C444.729 85.6755 448.271 85.0235 452.25 85.0235H474.139L465.505 136.827H456.028ZM422.031 136.827L440.986 110.655H451.34L432.352 136.827H422.031Z"
        fill="url(#paint20_linear_2082_27492)" />
    <path
        d="M476.871 93.7248L478.288 85.0235H521.997L520.581 93.7248H503.684L496.601 136.827H486.719L493.802 93.7248H476.871Z"
        fill="url(#paint21_linear_2082_27492)" />
    <path
        d="M534.468 102.831H549.544C555.862 102.831 560.46 104.405 563.338 107.553C566.238 110.7 567.295 114.759 566.508 119.728C565.946 122.966 564.676 125.877 562.697 128.463C560.718 131.049 558.133 133.095 554.94 134.601C551.77 136.085 548.071 136.827 543.844 136.827H521.214L529.847 85.0235H539.696L532.512 128.126H545.26C548.183 128.126 550.702 127.372 552.815 125.866C554.951 124.36 556.199 122.415 556.559 120.031C556.986 117.513 556.39 115.467 554.771 113.893C553.175 112.319 550.949 111.532 548.093 111.532H533.051L534.468 102.831Z"
        fill="url(#paint22_linear_2082_27492)" />
    <path
        d="M15.5141 301.928L44.5862 264.256H55.4461L46.8122 316.059H36.9303L43.1697 278.353L14.1651 316.059H3.23773L11.8717 264.256H21.7198L15.5141 301.928Z"
        fill="url(#paint23_linear_2082_27492)" />
    <path
        d="M72.2853 331L76.2988 307.324H80.4808C81.7174 306.335 82.8192 305.154 83.786 303.783C84.7753 302.411 85.6859 300.781 86.5178 298.893C87.3497 297.004 88.1479 294.8 88.9124 292.282C89.6993 289.741 90.5088 286.841 91.3407 283.581L96.1298 264.256H131.34L124.258 307.324H132.251L128.237 331H118.389L120.818 316.059H84.7303L82.2683 331H72.2853ZM91.2732 307.324H114.443L120.109 272.89H103.752L100.885 283.581C99.4912 289.022 98.0635 293.744 96.602 297.746C95.163 301.726 93.3868 304.918 91.2732 307.324Z"
        fill="url(#paint24_linear_2082_27492)" />
    <path
        d="M137.799 316.059L146.433 264.256H167.883C173.707 264.256 178.125 265.503 181.138 267.999C184.173 270.495 185.331 273.856 184.612 278.083C184.117 281.141 182.745 283.558 180.497 285.335C178.249 287.088 175.505 288.269 172.268 288.876C174.516 289.146 176.517 289.843 178.271 290.967C180.025 292.069 181.329 293.564 182.183 295.452C183.038 297.319 183.263 299.533 182.858 302.097C182.386 304.84 181.261 307.268 179.485 309.381C177.709 311.472 175.382 313.114 172.504 314.305C169.648 315.475 166.332 316.059 162.555 316.059H137.799ZM148.693 307.628H163.971C166.489 307.628 168.558 307.032 170.177 305.84C171.796 304.626 172.751 303.007 173.043 300.984C173.471 298.555 173.077 296.655 171.863 295.284C170.671 293.912 168.85 293.227 166.399 293.227H151.121L148.693 307.628ZM152.302 285.84H164.376C166.264 285.84 167.939 285.571 169.401 285.031C170.862 284.491 172.043 283.727 172.942 282.738C173.842 281.726 174.404 280.534 174.629 279.163C174.988 277.184 174.426 275.633 172.942 274.508C171.481 273.362 169.322 272.788 166.467 272.788H154.494L152.302 285.84Z"
        fill="url(#paint25_linear_2082_27492)" />
    <path
        d="M201.02 301.928L230.092 264.256H240.952L232.318 316.059H222.436L228.676 278.353L199.671 316.059H188.744L197.378 264.256H207.226L201.02 301.928Z"
        fill="url(#paint26_linear_2082_27492)" />
    <path
        d="M239.688 316.059L264.14 289.55L248.558 264.256H260.295L272.74 285.773H276.349L279.924 264.256H290.008L286.466 285.773H289.974L309.535 264.256H321.272L297.259 289.55L312.874 316.059H300.901L288.389 294.474H285.016L281.374 316.059H271.29L274.932 294.474H271.559L251.661 316.059H239.688Z"
        fill="url(#paint27_linear_2082_27492)" />
    <path
        d="M340.429 317.105C335.348 317.105 331.143 316.014 327.816 313.833C324.51 311.63 322.195 308.538 320.868 304.559C319.541 300.556 319.328 295.868 320.227 290.495C321.104 285.188 322.869 280.512 325.522 276.465C328.175 272.417 331.481 269.258 335.438 266.987C339.417 264.716 343.813 263.581 348.625 263.581C351.548 263.581 354.302 264.064 356.888 265.031C359.496 265.998 361.711 267.516 363.532 269.584C365.353 271.653 366.612 274.34 367.309 277.645C368.029 280.928 368.006 284.919 367.242 289.618L366.668 293.193H325.455L326.635 285.638H357.933C358.405 282.985 358.282 280.635 357.562 278.589C356.843 276.521 355.606 274.891 353.852 273.699C352.121 272.507 349.94 271.911 347.309 271.911C344.611 271.911 342.093 272.62 339.755 274.036C337.416 275.453 335.46 277.263 333.886 279.466C332.335 281.647 331.357 283.896 330.952 286.211L329.772 293.125C329.187 296.903 329.288 299.938 330.075 302.231C330.885 304.525 332.301 306.189 334.325 307.223C336.348 308.257 338.878 308.774 341.913 308.774C343.869 308.774 345.679 308.505 347.343 307.965C349.029 307.403 350.525 306.582 351.829 305.503C353.133 304.401 354.223 303.03 355.1 301.388L364.341 303.108C363.105 305.919 361.328 308.381 359.012 310.494C356.697 312.585 353.965 314.216 350.817 315.385C347.692 316.531 344.229 317.105 340.429 317.105Z"
        fill="url(#paint28_linear_2082_27492)" />
    <path
        d="M411.449 285.807L410.033 294.542H381.939L383.355 285.807H411.449ZM389.831 264.256L381.197 316.059H371.349L379.982 264.256H389.831ZM422.14 264.256L413.506 316.059H403.658L412.292 264.256H422.14Z"
        fill="url(#paint29_linear_2082_27492)" />
    <path
        d="M436.424 301.928L465.496 264.256H476.356L467.722 316.059H457.84L464.08 278.353L435.075 316.059H424.148L432.782 264.256H442.63L436.424 301.928Z"
        fill="url(#paint30_linear_2082_27492)" />
    <path
        d="M490.707 301.928L519.779 264.256H530.639L522.005 316.059H512.124L518.363 278.353L489.358 316.059H478.431L487.065 264.256H496.913L490.707 301.928Z"
        fill="url(#paint31_linear_2082_27492)" />
    <path
        d="M46.3135 4.81651C46.3135 4.22371 46.1159 3.70501 45.7207 3.26041C45.3749 2.76641 44.9056 2.47001 44.3128 2.3712L42.3862 2.0007V1.40791H56.8358V2.0007L54.9091 2.3712C54.3164 2.47001 53.8224 2.76641 53.4272 3.26041C53.0814 3.70501 52.9084 4.22371 52.9084 4.81651V49.2025C52.9084 49.7953 53.0814 50.3387 53.4272 50.8327C53.8224 51.2773 54.3164 51.549 54.9091 51.6478L56.8358 52.0183V52.6111H42.3862V52.0183L44.3128 51.6478C44.9056 51.549 45.3749 51.2773 45.7207 50.8327C46.1159 50.3387 46.3135 49.7953 46.3135 49.2025V7.33591L13.7836 48.9061V49.2025C13.7836 49.7953 13.9565 50.3387 14.3023 50.8327C14.6975 51.2773 15.1915 51.549 15.7843 51.6478L17.7109 52.0183V52.6111H3.26138V52.0183L5.18798 51.6478C5.78079 51.549 6.25009 51.2773 6.59589 50.8327C6.99109 50.3387 7.18869 49.7953 7.18869 49.2025V4.81651C7.18869 4.22371 6.99109 3.70501 6.59589 3.26041C6.25009 2.76641 5.78079 2.47001 5.18798 2.3712L3.26138 2.0007V1.40791H17.7109V2.0007L15.7843 2.3712C15.1915 2.47001 14.6975 2.76641 14.3023 3.26041C13.9565 3.70501 13.7836 4.22371 13.7836 4.81651V46.6831L46.3135 5.26111V4.81651Z"
        fill="url(#paint32_linear_2082_27492)" />
    <path
        d="M89.3651 2.14891C86.5493 2.14891 83.8817 2.81581 81.3623 4.14961C78.8923 5.43401 76.7187 7.21241 74.8415 9.48481C73.0137 11.7572 71.5564 14.4001 70.4696 17.4135C69.3828 20.4269 68.8394 23.6626 68.8394 27.1206C68.8394 30.5786 69.3828 33.839 70.4696 36.9019C71.5564 39.9153 73.0137 42.5582 74.8415 44.8306C76.7187 47.0536 78.8923 48.832 81.3623 50.1658C83.8817 51.4502 86.5493 52.0924 89.3651 52.0924C92.7737 52.0924 95.9106 51.4255 98.7758 50.0917C101.69 48.7579 104.185 46.9054 106.26 44.5342L108.038 46.3867C105.568 48.6097 102.753 50.3387 99.5909 51.5737C96.4293 52.8087 93.0454 53.4262 89.4392 53.4262C85.6354 53.4262 82.0786 52.7346 78.7688 51.3514C75.459 49.9682 72.5691 48.091 70.0991 45.7198C67.6291 43.2992 65.6778 40.4834 64.2452 37.2724C62.8126 34.0614 62.0963 30.628 62.0963 26.9724C62.0963 23.3168 62.8126 19.8835 64.2452 16.6725C65.6778 13.4615 67.6291 10.6704 70.0991 8.29921C72.5691 5.87861 75.459 3.97671 78.7688 2.59351C82.0786 1.2103 85.6354 0.518703 89.4392 0.518703C92.0574 0.518703 94.5521 0.864503 96.9233 1.5561C99.2945 2.19831 101.518 3.11221 103.592 4.29781L116.115 0L116.634 0.518703L108.261 11.115H107.371C105.148 8.29921 102.481 6.07621 99.3686 4.44601C96.3058 2.8158 92.996 2.0007 89.4392 2.0007L89.3651 2.14891Z"
        fill="url(#paint33_linear_2082_27492)" />
    <path
        d="M159.358 47.5723C159.21 48.2639 158.963 48.9802 158.617 49.7212C158.321 50.4128 157.901 51.055 157.358 51.6478C156.864 52.2406 156.246 52.7346 155.505 53.1298C154.814 53.525 154.023 53.7226 153.134 53.7226C151.8 53.7226 150.491 53.4756 149.207 52.9816C147.922 52.4876 146.761 51.4996 145.724 50.0176C144.736 48.5356 143.921 46.4361 143.279 43.7191C142.686 41.0021 142.39 37.4206 142.39 32.9745V29.0472C142.39 25.9844 142.019 23.6132 141.278 21.9336C140.537 20.2046 139.549 18.9449 138.314 18.1545C137.079 17.3641 135.671 16.9689 134.09 16.9689C132.559 16.9195 130.953 17.043 129.274 17.3394V49.2025C129.274 49.7953 129.447 50.3387 129.792 50.8327C130.188 51.2773 130.682 51.549 131.275 51.6478L133.201 52.0183V52.6111H118.752V52.0183L120.678 51.6478C121.271 51.549 121.74 51.2773 122.086 50.8327C122.481 50.3387 122.679 49.7953 122.679 49.2025V4.81651C122.679 4.22371 122.481 3.70501 122.086 3.26041C121.74 2.76641 121.271 2.47001 120.678 2.3712L118.752 2.0007V1.40791H133.201V2.0007L131.275 2.3712C130.682 2.47001 130.188 2.76641 129.792 3.26041C129.447 3.70501 129.274 4.22371 129.274 4.81651V13.1157C131.25 13.5109 133.102 13.2392 134.831 12.3006C136.56 11.362 138.24 9.55891 139.87 6.89131C140.71 5.55751 141.574 4.49541 142.464 3.70501C143.353 2.86521 144.193 2.22301 144.983 1.77841C145.823 1.33381 146.589 1.0621 147.28 0.963302C147.972 0.815104 148.565 0.741005 149.059 0.741005C149.157 0.741005 149.256 0.765704 149.355 0.815104C149.454 0.815104 149.553 0.815104 149.651 0.815104C150.886 0.913903 151.973 1.3338 152.912 2.0748C153.9 2.76641 154.591 3.60621 154.987 4.59421C155.234 5.13761 155.357 5.77981 155.357 6.52081C155.357 7.21241 155.209 7.87931 154.912 8.52151C154.616 9.16371 154.171 9.70711 153.579 10.1517C152.986 10.5469 152.245 10.7445 151.356 10.7445C150.417 10.7445 149.627 10.4234 148.984 9.78121C148.342 9.13901 148.021 8.34861 148.021 7.41001C148.021 6.47141 148.342 5.68101 148.984 5.03881C149.627 4.39661 150.417 4.07551 151.356 4.07551C151.948 4.07551 152.517 4.22371 153.06 4.52011C152.912 3.92731 152.442 3.35921 151.652 2.81581C150.911 2.2724 149.997 2.0007 148.91 2.0007C147.774 2.0007 146.539 2.4206 145.205 3.26041C143.921 4.10021 142.637 5.60691 141.352 7.78051C140.71 8.91671 139.994 9.95411 139.203 10.8927C138.413 11.7819 137.524 12.5476 136.536 13.1898C135.597 13.7826 134.535 14.2025 133.349 14.4495C132.164 14.6471 130.879 14.6224 129.496 14.3754V16.0056C131.719 15.808 133.819 15.8327 135.795 16.0797C137.771 16.2773 139.5 16.9689 140.982 18.1545C142.464 19.2907 143.625 21.0444 144.464 23.4156C145.354 25.7868 145.798 28.9978 145.798 33.0486C145.798 37.3465 145.996 40.7798 146.391 43.3486C146.786 45.9174 147.305 47.8687 147.947 49.2025C148.639 50.5363 149.429 51.4008 150.318 51.796C151.207 52.1912 152.146 52.3888 153.134 52.3888C154.023 52.3888 154.74 52.2159 155.283 51.8701C155.826 51.4749 156.246 51.0056 156.543 50.4622C156.888 49.9188 157.111 49.3507 157.21 48.7579C157.358 48.1157 157.481 47.5229 157.58 46.9795L159.358 47.5723Z"
        fill="url(#paint34_linear_2082_27492)" />
    <path
        d="M196.903 1.3338H211.353V1.9266L210.241 2.0748C208.661 2.2724 207.302 2.9146 206.166 4.00141C205.03 5.03881 204.338 6.34791 204.091 7.92871C203.4 11.9301 202.412 16.2773 201.127 20.9703C199.892 25.6633 198.336 30.2575 196.459 34.7529C195.57 36.8771 194.532 39.0508 193.347 41.2738C192.21 43.4968 190.926 45.5222 189.493 47.35C188.11 49.1284 186.579 50.5857 184.899 51.7219C183.269 52.8581 181.54 53.4262 179.712 53.4262C177.045 53.4262 175.044 52.9075 173.71 51.8701C172.426 50.7833 171.685 49.5977 171.487 48.3133C171.339 46.9795 171.66 45.7939 172.45 44.7565C173.241 43.6697 174.377 43.1263 175.859 43.1263C176.946 43.1263 177.86 43.4968 178.601 44.2378C179.342 44.9788 179.712 45.868 179.712 46.9054C179.712 47.9428 179.342 48.832 178.601 49.573C177.86 50.314 176.946 50.6845 175.859 50.6845H175.414C176.402 51.3761 177.81 51.7219 179.638 51.7219C182.355 51.7219 185.047 50.0917 187.715 46.8313C190.136 43.8673 192.482 39.6436 194.755 34.1601C195.051 33.4685 195.347 32.7522 195.644 32.0112C195.94 31.2702 196.212 30.5292 196.459 29.7882H179.86L167.56 6.44671C166.918 5.31051 166.053 4.37191 164.966 3.63091C163.88 2.84051 162.694 2.34651 161.41 2.14891L160.52 2.0007V1.40791H178.304V2.0007L176.674 2.14891C175.736 2.2477 175.044 2.71701 174.599 3.55681C174.204 4.34721 174.229 5.16231 174.673 6.00211L186.381 28.0839H197.052C198.237 24.5765 199.25 21.0938 200.09 17.6358C200.979 14.1778 201.695 10.9174 202.239 7.85461C202.486 6.42201 202.189 5.16231 201.349 4.07551C200.559 2.9393 199.448 2.2971 198.015 2.14891L196.755 2.0007L196.903 1.3338Z"
        fill="url(#paint35_linear_2082_27492)" />
    <path
        d="M241.328 2.14891C238.512 2.14891 235.845 2.81581 233.325 4.14961C230.855 5.43401 228.682 7.21241 226.805 9.48481C224.977 11.7572 223.519 14.4001 222.433 17.4135C221.346 20.4269 220.802 23.6626 220.802 27.1206C220.802 30.5786 221.346 33.839 222.433 36.9019C223.519 39.9153 224.977 42.5582 226.805 44.8306C228.682 47.0536 230.855 48.832 233.325 50.1658C235.845 51.4502 238.512 52.0924 241.328 52.0924C244.737 52.0924 247.874 51.4255 250.739 50.0917C253.654 48.7579 256.148 46.9054 258.223 44.5342L260.001 46.3867C257.531 48.6097 254.716 50.3387 251.554 51.5737C248.392 52.8087 245.009 53.4262 241.402 53.4262C237.599 53.4262 234.042 52.7346 230.732 51.3514C227.422 49.9682 224.532 48.091 222.062 45.7198C219.592 43.2992 217.641 40.4834 216.208 37.2724C214.776 34.0614 214.059 30.628 214.059 26.9724C214.059 23.3168 214.776 19.8835 216.208 16.6725C217.641 13.4615 219.592 10.6704 222.062 8.29921C224.532 5.87861 227.422 3.97671 230.732 2.59351C234.042 1.2103 237.599 0.518703 241.402 0.518703C244.021 0.518703 246.515 0.864503 248.886 1.5561C251.258 2.19831 253.481 3.11221 255.555 4.29781L268.078 0L268.597 0.518703L260.224 11.115H259.335C257.112 8.29921 254.444 6.07621 251.332 4.44601C248.269 2.8158 244.959 2.0007 241.402 2.0007L241.328 2.14891Z"
        fill="url(#paint36_linear_2082_27492)" />
    <path
        d="M293.357 2.14891C290.542 2.14891 287.874 2.81581 285.355 4.14961C282.885 5.43401 280.711 7.21241 278.834 9.48481C277.006 11.7572 275.549 14.4001 274.462 17.4135C273.375 20.4269 272.832 23.6626 272.832 27.1206C272.832 30.5786 273.375 33.839 274.462 36.9019C275.549 39.9153 277.006 42.5582 278.834 44.8306C280.711 47.0536 282.885 48.832 285.355 50.1658C287.874 51.4502 290.542 52.0924 293.357 52.0924C296.766 52.0924 299.903 51.4255 302.768 50.0917C305.683 48.7579 308.177 46.9054 310.252 44.5342L312.031 46.3867C309.561 48.6097 306.745 50.3387 303.583 51.5737C300.422 52.8087 297.038 53.4262 293.432 53.4262C289.628 53.4262 286.071 52.7346 282.761 51.3514C279.451 49.9682 276.561 48.091 274.091 45.7198C271.621 43.2992 269.67 40.4834 268.238 37.2724C266.805 34.0614 266.089 30.628 266.089 26.9724C266.089 23.3168 266.805 19.8835 268.238 16.6725C269.67 13.4615 271.621 10.6704 274.091 8.29921C276.561 5.87861 279.451 3.97671 282.761 2.59351C286.071 1.2103 289.628 0.518703 293.432 0.518703C296.05 0.518703 298.544 0.864503 300.916 1.5561C303.287 2.19831 305.51 3.11221 307.585 4.29781L320.108 0L320.626 0.518703L312.253 11.115H311.364C309.141 8.29921 306.473 6.07621 303.361 4.44601C300.298 2.8158 296.988 2.0007 293.432 2.0007L293.357 2.14891Z"
        fill="url(#paint37_linear_2082_27492)" />
    <path
        d="M366.982 0.296401L363.054 10.5222L362.313 10.4481C362.116 8.76851 361.424 7.28651 360.239 6.00211C359.251 4.91531 357.719 4.00141 355.644 3.26041C353.57 2.51941 350.655 2.32181 346.901 2.6676V49.2766C346.901 49.8694 347.073 50.4128 347.419 50.9068C347.814 51.3514 348.308 51.6231 348.901 51.7219L350.828 52.0924V52.6852H336.378V52.0924L338.305 51.7219C338.898 51.6231 339.367 51.3514 339.713 50.9068C340.108 50.4128 340.306 49.8694 340.306 49.2766V2.6676C336.551 2.32181 333.637 2.51941 331.562 3.26041C329.487 4.00141 327.956 4.91531 326.968 6.00211C325.782 7.28651 325.09 8.76851 324.893 10.4481L324.152 10.5222L320.225 0.296401L320.891 0.0741036C321.188 0.321104 321.583 0.543404 322.077 0.741005C322.472 0.938602 322.991 1.1115 323.633 1.2597C324.325 1.3585 325.165 1.40791 326.153 1.40791H361.054C362.042 1.40791 362.857 1.3585 363.499 1.2597C364.191 1.1115 364.734 0.938602 365.129 0.741005C365.623 0.543404 366.018 0.321104 366.315 0.0741036L366.982 0.296401Z"
        fill="url(#paint38_linear_2082_27492)" />
    <path
        d="M380.085 21.489C383.79 20.4516 387.471 20.1305 391.126 20.5257C394.831 20.8715 398.092 21.8348 400.907 23.4156C403.773 24.9964 405.996 27.1453 407.576 29.8623C409.157 32.5299 409.701 35.6669 409.207 39.2731C408.811 42.0395 408.07 44.3613 406.984 46.2385C405.897 48.1157 404.538 49.6224 402.908 50.7586C401.278 51.8454 399.425 52.6111 397.351 53.0557C395.276 53.5497 393.028 53.7967 390.607 53.7967C388.533 53.7967 386.779 53.7226 385.346 53.5744C383.914 53.4756 382.531 53.3521 381.197 53.2039C379.863 53.0557 378.43 52.9322 376.899 52.8334C375.417 52.6852 373.614 52.6111 371.49 52.6111H369.563V52.0183L371.49 51.6478C372.082 51.549 372.552 51.2773 372.898 50.8327C373.293 50.3387 373.49 49.7953 373.49 49.2025V4.81651C373.49 4.22371 373.293 3.70501 372.898 3.26041C372.552 2.76641 372.082 2.47001 371.49 2.3712L369.563 2.0007V1.40791H371.49C373.614 1.40791 375.417 1.3585 376.899 1.2597C378.381 1.1115 379.814 0.963302 381.197 0.815104C382.58 0.666903 384.087 0.543403 385.717 0.444604C387.347 0.296402 389.422 0.222302 391.941 0.222302C396.19 0.222302 399.277 1.1362 401.204 2.96401C403.18 4.79181 403.97 7.21241 403.575 10.2258C403.328 11.8066 402.661 13.2392 401.574 14.5236C400.487 15.808 398.956 16.8454 396.98 17.6358C395.004 18.4262 392.608 18.8955 389.792 19.0437C386.977 19.1425 383.766 18.7967 380.159 18.0063V21.4149L380.085 21.489ZM380.011 16.4502C381.839 16.9442 383.79 17.3147 385.865 17.5617C387.989 17.7593 389.941 17.6852 391.719 17.3394C393.547 16.9442 395.053 16.2032 396.239 15.1164C397.474 13.9802 398.092 12.3006 398.092 10.0776C398.092 8.24981 397.746 6.79251 397.054 5.70571C396.363 4.56951 395.473 3.70501 394.387 3.11221C393.3 2.47001 392.089 2.05011 390.756 1.8525C389.422 1.6549 388.088 1.5808 386.754 1.6302C385.42 1.6796 384.161 1.8278 382.975 2.0748C381.79 2.2724 380.826 2.4453 380.085 2.59351L380.011 16.4502ZM402.686 38.8285C403.18 35.4692 402.809 32.5546 401.574 30.0846C400.339 27.6146 398.586 25.688 396.313 24.3048C394.09 22.8722 391.521 22.0571 388.607 21.8595C385.692 21.6125 382.827 22.0571 380.011 23.1933V51.4996C380.802 51.6972 381.864 51.9195 383.197 52.1665C384.531 52.4135 385.964 52.537 387.495 52.537C389.076 52.537 390.657 52.3641 392.238 52.0183C393.868 51.6231 395.399 50.9315 396.832 49.9435C398.264 48.9555 399.499 47.5723 400.537 45.7939C401.624 44.0155 402.365 41.7184 402.76 38.9026L402.686 38.8285Z"
        fill="url(#paint39_linear_2082_27492)" />
    <path
        d="M441.844 0.592802C445.598 0.592802 449.105 1.2844 452.366 2.6676C455.676 4.05081 458.541 5.95271 460.961 8.37331C463.431 10.7445 465.383 13.5356 466.815 16.7466C468.248 19.9576 468.964 23.3909 468.964 27.0465C468.964 30.7021 468.248 34.1354 466.815 37.3465C465.383 40.5575 463.431 43.3733 460.961 45.7939C458.541 48.1651 455.676 50.0423 452.366 51.4255C449.105 52.8087 445.598 53.5003 441.844 53.5003C438.089 53.5003 434.557 52.8087 431.247 51.4255C427.987 50.0423 425.122 48.1651 422.652 45.7939C420.231 43.3733 418.305 40.5575 416.872 37.3465C415.439 34.1354 414.723 30.7021 414.723 27.0465C414.723 23.3909 415.439 19.9576 416.872 16.7466C418.305 13.5356 420.231 10.7445 422.652 8.37331C425.122 5.95271 427.987 4.05081 431.247 2.6676C434.557 1.2844 438.089 0.592802 441.844 0.592802ZM441.844 52.0183C444.659 52.0183 447.278 51.3761 449.698 50.0917C452.168 48.7579 454.317 46.9795 456.145 44.7565C458.022 42.4841 459.479 39.8412 460.517 36.8278C461.604 33.7649 462.147 30.5045 462.147 27.0465C462.147 23.5885 461.604 20.3528 460.517 17.3394C459.479 14.326 458.022 11.6831 456.145 9.41071C454.317 7.13831 452.168 5.35991 449.698 4.07551C447.278 2.7417 444.659 2.0748 441.844 2.0748C439.028 2.0748 436.385 2.7417 433.915 4.07551C431.494 5.35991 429.345 7.13831 427.468 9.41071C425.64 11.6831 424.183 14.326 423.096 17.3394C422.059 20.3528 421.54 23.5885 421.54 27.0465C421.54 30.5045 422.059 33.7649 423.096 36.8278C424.183 39.8412 425.64 42.4841 427.468 44.7565C429.345 46.9795 431.494 48.7579 433.915 50.0917C436.385 51.3761 439.028 52.0183 441.844 52.0183Z"
        fill="url(#paint40_linear_2082_27492)" />
    <defs>
        <linearGradient id="paint0_linear_2082_27492" x1="351.277" y1="57.9764" x2="351.277" y2="327.02"
            gradientUnits="userSpaceOnUse">
            <stop stop-color="white" />
            <stop offset="0.35" stop-color="white" stop-opacity="0.8" />
            <stop offset="1" stop-color="white" stop-opacity="0" />
        </linearGradient>
        <linearGradient id="paint1_linear_2082_27492" x1="351.277" y1="57.9764" x2="351.277" y2="327.02"
            gradientUnits="userSpaceOnUse">
            <stop stop-color="white" />
            <stop offset="0.35" stop-color="white" stop-opacity="0.8" />
            <stop offset="1" stop-color="white" stop-opacity="0" />
        </linearGradient>
        <linearGradient id="paint2_linear_2082_27492" x1="351.277" y1="57.9764" x2="351.277" y2="327.02"
            gradientUnits="userSpaceOnUse">
            <stop stop-color="white" />
            <stop offset="0.35" stop-color="white" stop-opacity="0.8" />
            <stop offset="1" stop-color="white" stop-opacity="0" />
        </linearGradient>
        <linearGradient id="paint3_linear_2082_27492" x1="351.277" y1="57.9764" x2="351.277" y2="327.02"
            gradientUnits="userSpaceOnUse">
            <stop stop-color="white" />
            <stop offset="0.35" stop-color="white" stop-opacity="0.8" />
            <stop offset="1" stop-color="white" stop-opacity="0" />
        </linearGradient>
        <linearGradient id="paint4_linear_2082_27492" x1="351.277" y1="57.9764" x2="351.277" y2="327.02"
            gradientUnits="userSpaceOnUse">
            <stop stop-color="white" />
            <stop offset="0.35" stop-color="white" stop-opacity="0.8" />
            <stop offset="1" stop-color="white" stop-opacity="0" />
        </linearGradient>
        <linearGradient id="paint5_linear_2082_27492" x1="351.277" y1="57.9764" x2="351.277" y2="327.02"
            gradientUnits="userSpaceOnUse">
            <stop stop-color="white" />
            <stop offset="0.35" stop-color="white" stop-opacity="0.8" />
            <stop offset="1" stop-color="white" stop-opacity="0" />
        </linearGradient>
        <linearGradient id="paint6_linear_2082_27492" x1="351.277" y1="57.9764" x2="351.277" y2="327.02"
            gradientUnits="userSpaceOnUse">
            <stop stop-color="white" />
            <stop offset="0.35" stop-color="white" stop-opacity="0.8" />
            <stop offset="1" stop-color="white" stop-opacity="0" />
        </linearGradient>
        <linearGradient id="paint7_linear_2082_27492" x1="351.277" y1="57.9764" x2="351.277" y2="327.02"
            gradientUnits="userSpaceOnUse">
            <stop stop-color="white" />
            <stop offset="0.35" stop-color="white" stop-opacity="0.8" />
            <stop offset="1" stop-color="white" stop-opacity="0" />
        </linearGradient>
        <linearGradient id="paint8_linear_2082_27492" x1="351.277" y1="57.9764" x2="351.277" y2="327.02"
            gradientUnits="userSpaceOnUse">
            <stop stop-color="white" />
            <stop offset="0.35" stop-color="white" stop-opacity="0.8" />
            <stop offset="1" stop-color="white" stop-opacity="0" />
        </linearGradient>
        <linearGradient id="paint9_linear_2082_27492" x1="351.277" y1="57.9764" x2="351.277" y2="327.02"
            gradientUnits="userSpaceOnUse">
            <stop stop-color="white" />
            <stop offset="0.35" stop-color="white" stop-opacity="0.8" />
            <stop offset="1" stop-color="white" stop-opacity="0" />
        </linearGradient>
        <linearGradient id="paint10_linear_2082_27492" x1="351.277" y1="57.9764" x2="351.277" y2="327.02"
            gradientUnits="userSpaceOnUse">
            <stop stop-color="white" />
            <stop offset="0.35" stop-color="white" stop-opacity="0.8" />
            <stop offset="1" stop-color="white" stop-opacity="0" />
        </linearGradient>
        <linearGradient id="paint11_linear_2082_27492" x1="351.277" y1="57.9764" x2="351.277" y2="327.02"
            gradientUnits="userSpaceOnUse">
            <stop stop-color="white" />
            <stop offset="0.35" stop-color="white" stop-opacity="0.8" />
            <stop offset="1" stop-color="white" stop-opacity="0" />
        </linearGradient>
        <linearGradient id="paint12_linear_2082_27492" x1="351.277" y1="57.9764" x2="351.277" y2="327.02"
            gradientUnits="userSpaceOnUse">
            <stop stop-color="white" />
            <stop offset="0.35" stop-color="white" stop-opacity="0.8" />
            <stop offset="1" stop-color="white" stop-opacity="0" />
        </linearGradient>
        <linearGradient id="paint13_linear_2082_27492" x1="351.277" y1="57.9764" x2="351.277" y2="327.02"
            gradientUnits="userSpaceOnUse">
            <stop stop-color="white" />
            <stop offset="0.35" stop-color="white" stop-opacity="0.8" />
            <stop offset="1" stop-color="white" stop-opacity="0" />
        </linearGradient>
        <linearGradient id="paint14_linear_2082_27492" x1="351.277" y1="57.9764" x2="351.277" y2="327.02"
            gradientUnits="userSpaceOnUse">
            <stop stop-color="white" />
            <stop offset="0.35" stop-color="white" stop-opacity="0.8" />
            <stop offset="1" stop-color="white" stop-opacity="0" />
        </linearGradient>
        <linearGradient id="paint15_linear_2082_27492" x1="351.277" y1="57.9764" x2="351.277" y2="327.02"
            gradientUnits="userSpaceOnUse">
            <stop stop-color="white" />
            <stop offset="0.35" stop-color="white" stop-opacity="0.8" />
            <stop offset="1" stop-color="white" stop-opacity="0" />
        </linearGradient>
        <linearGradient id="paint16_linear_2082_27492" x1="351.277" y1="57.9764" x2="351.277" y2="327.02"
            gradientUnits="userSpaceOnUse">
            <stop stop-color="white" />
            <stop offset="0.35" stop-color="white" stop-opacity="0.8" />
            <stop offset="1" stop-color="white" stop-opacity="0" />
        </linearGradient>
        <linearGradient id="paint17_linear_2082_27492" x1="351.277" y1="57.9764" x2="351.277" y2="327.02"
            gradientUnits="userSpaceOnUse">
            <stop stop-color="white" />
            <stop offset="0.35" stop-color="white" stop-opacity="0.8" />
            <stop offset="1" stop-color="white" stop-opacity="0" />
        </linearGradient>
        <linearGradient id="paint18_linear_2082_27492" x1="351.277" y1="57.9764" x2="351.277" y2="327.02"
            gradientUnits="userSpaceOnUse">
            <stop stop-color="white" />
            <stop offset="0.35" stop-color="white" stop-opacity="0.8" />
            <stop offset="1" stop-color="white" stop-opacity="0" />
        </linearGradient>
        <linearGradient id="paint19_linear_2082_27492" x1="351.277" y1="57.9764" x2="351.277" y2="327.02"
            gradientUnits="userSpaceOnUse">
            <stop stop-color="white" />
            <stop offset="0.35" stop-color="white" stop-opacity="0.8" />
            <stop offset="1" stop-color="white" stop-opacity="0" />
        </linearGradient>
        <linearGradient id="paint20_linear_2082_27492" x1="351.277" y1="57.9764" x2="351.277" y2="327.02"
            gradientUnits="userSpaceOnUse">
            <stop stop-color="white" />
            <stop offset="0.35" stop-color="white" stop-opacity="0.8" />
            <stop offset="1" stop-color="white" stop-opacity="0" />
        </linearGradient>
        <linearGradient id="paint21_linear_2082_27492" x1="351.277" y1="57.9764" x2="351.277" y2="327.02"
            gradientUnits="userSpaceOnUse">
            <stop stop-color="white" />
            <stop offset="0.35" stop-color="white" stop-opacity="0.8" />
            <stop offset="1" stop-color="white" stop-opacity="0" />
        </linearGradient>
        <linearGradient id="paint22_linear_2082_27492" x1="351.277" y1="57.9764" x2="351.277" y2="327.02"
            gradientUnits="userSpaceOnUse">
            <stop stop-color="white" />
            <stop offset="0.35" stop-color="white" stop-opacity="0.8" />
            <stop offset="1" stop-color="white" stop-opacity="0" />
        </linearGradient>
        <linearGradient id="paint23_linear_2082_27492" x1="351.277" y1="57.9764" x2="351.277" y2="327.02"
            gradientUnits="userSpaceOnUse">
            <stop stop-color="white" />
            <stop offset="0.35" stop-color="white" stop-opacity="0.8" />
            <stop offset="1" stop-color="white" stop-opacity="0" />
        </linearGradient>
        <linearGradient id="paint24_linear_2082_27492" x1="351.277" y1="57.9764" x2="351.277" y2="327.02"
            gradientUnits="userSpaceOnUse">
            <stop stop-color="white" />
            <stop offset="0.35" stop-color="white" stop-opacity="0.8" />
            <stop offset="1" stop-color="white" stop-opacity="0" />
        </linearGradient>
        <linearGradient id="paint25_linear_2082_27492" x1="351.277" y1="57.9764" x2="351.277" y2="327.02"
            gradientUnits="userSpaceOnUse">
            <stop stop-color="white" />
            <stop offset="0.35" stop-color="white" stop-opacity="0.8" />
            <stop offset="1" stop-color="white" stop-opacity="0" />
        </linearGradient>
        <linearGradient id="paint26_linear_2082_27492" x1="351.277" y1="57.9764" x2="351.277" y2="327.02"
            gradientUnits="userSpaceOnUse">
            <stop stop-color="white" />
            <stop offset="0.35" stop-color="white" stop-opacity="0.8" />
            <stop offset="1" stop-color="white" stop-opacity="0" />
        </linearGradient>
        <linearGradient id="paint27_linear_2082_27492" x1="351.277" y1="57.9764" x2="351.277" y2="327.02"
            gradientUnits="userSpaceOnUse">
            <stop stop-color="white" />
            <stop offset="0.35" stop-color="white" stop-opacity="0.8" />
            <stop offset="1" stop-color="white" stop-opacity="0" />
        </linearGradient>
        <linearGradient id="paint28_linear_2082_27492" x1="351.277" y1="57.9764" x2="351.277" y2="327.02"
            gradientUnits="userSpaceOnUse">
            <stop stop-color="white" />
            <stop offset="0.35" stop-color="white" stop-opacity="0.8" />
            <stop offset="1" stop-color="white" stop-opacity="0" />
        </linearGradient>
        <linearGradient id="paint29_linear_2082_27492" x1="351.277" y1="57.9764" x2="351.277" y2="327.02"
            gradientUnits="userSpaceOnUse">
            <stop stop-color="white" />
            <stop offset="0.35" stop-color="white" stop-opacity="0.8" />
            <stop offset="1" stop-color="white" stop-opacity="0" />
        </linearGradient>
        <linearGradient id="paint30_linear_2082_27492" x1="351.277" y1="57.9764" x2="351.277" y2="327.02"
            gradientUnits="userSpaceOnUse">
            <stop stop-color="white" />
            <stop offset="0.35" stop-color="white" stop-opacity="0.8" />
            <stop offset="1" stop-color="white" stop-opacity="0" />
        </linearGradient>
        <linearGradient id="paint31_linear_2082_27492" x1="351.277" y1="57.9764" x2="351.277" y2="327.02"
            gradientUnits="userSpaceOnUse">
            <stop stop-color="white" />
            <stop offset="0.35" stop-color="white" stop-opacity="0.8" />
            <stop offset="1" stop-color="white" stop-opacity="0" />
        </linearGradient>
        <linearGradient id="paint32_linear_2082_27492" x1="351.277" y1="57.9764" x2="351.277" y2="327.02"
            gradientUnits="userSpaceOnUse">
            <stop stop-color="white" />
            <stop offset="0.35" stop-color="white" stop-opacity="0.8" />
            <stop offset="1" stop-color="white" stop-opacity="0" />
        </linearGradient>
        <linearGradient id="paint33_linear_2082_27492" x1="351.277" y1="57.9764" x2="351.277" y2="327.02"
            gradientUnits="userSpaceOnUse">
            <stop stop-color="white" />
            <stop offset="0.35" stop-color="white" stop-opacity="0.8" />
            <stop offset="1" stop-color="white" stop-opacity="0" />
        </linearGradient>
        <linearGradient id="paint34_linear_2082_27492" x1="351.277" y1="57.9764" x2="351.277" y2="327.02"
            gradientUnits="userSpaceOnUse">
            <stop stop-color="white" />
            <stop offset="0.35" stop-color="white" stop-opacity="0.8" />
            <stop offset="1" stop-color="white" stop-opacity="0" />
        </linearGradient>
        <linearGradient id="paint35_linear_2082_27492" x1="351.277" y1="57.9764" x2="351.277" y2="327.02"
            gradientUnits="userSpaceOnUse">
            <stop stop-color="white" />
            <stop offset="0.35" stop-color="white" stop-opacity="0.8" />
            <stop offset="1" stop-color="white" stop-opacity="0" />
        </linearGradient>
        <linearGradient id="paint36_linear_2082_27492" x1="351.277" y1="57.9764" x2="351.277" y2="327.02"
            gradientUnits="userSpaceOnUse">
            <stop stop-color="white" />
            <stop offset="0.35" stop-color="white" stop-opacity="0.8" />
            <stop offset="1" stop-color="white" stop-opacity="0" />
        </linearGradient>
        <linearGradient id="paint37_linear_2082_27492" x1="351.277" y1="57.9764" x2="351.277" y2="327.02"
            gradientUnits="userSpaceOnUse">
            <stop stop-color="white" />
            <stop offset="0.35" stop-color="white" stop-opacity="0.8" />
            <stop offset="1" stop-color="white" stop-opacity="0" />
        </linearGradient>
        <linearGradient id="paint38_linear_2082_27492" x1="351.277" y1="57.9764" x2="351.277" y2="327.02"
            gradientUnits="userSpaceOnUse">
            <stop stop-color="white" />
            <stop offset="0.35" stop-color="white" stop-opacity="0.8" />
            <stop offset="1" stop-color="white" stop-opacity="0" />
        </linearGradient>
        <linearGradient id="paint39_linear_2082_27492" x1="351.277" y1="57.9764" x2="351.277" y2="327.02"
            gradientUnits="userSpaceOnUse">
            <stop stop-color="white" />
            <stop offset="0.35" stop-color="white" stop-opacity="0.8" />
            <stop offset="1" stop-color="white" stop-opacity="0" />
        </linearGradient>
        <linearGradient id="paint40_linear_2082_27492" x1="351.277" y1="57.9764" x2="351.277" y2="327.02"
            gradientUnits="userSpaceOnUse">
            <stop stop-color="white" />
            <stop offset="0.35" stop-color="white" stop-opacity="0.8" />
            <stop offset="1" stop-color="white" stop-opacity="0" />
        </linearGradient>
    </defs>
</svg>