<svg xmlns="http://www.w3.org/2000/svg" width="36" height="36" viewBox="0 0 36 36" fill="none">
  <path d="M18.3845 0.562012C28.0495 0.562012 35.8845 8.39703 35.8845 18.062C35.8845 27.727 28.0495 35.562 18.3845 35.562C8.71954 35.562 0.884521 27.727 0.884521 18.062C0.884521 8.39703 8.71954 0.562012 18.3845 0.562012ZM20.9753 23.7017C19.7135 22.4594 17.6859 22.4409 16.447 23.6606C15.2085 24.8804 15.2273 26.8765 16.489 28.1187C17.7509 29.3607 19.7785 29.3783 21.0173 28.1587C22.2558 26.939 22.2369 24.9438 20.9753 23.7017ZM22.0857 19.9985C21.6943 19.6132 21.0601 19.6133 20.6687 19.9985C20.2773 20.3839 20.2773 21.0087 20.6687 21.394L24.2634 24.9341C24.6548 25.3194 25.29 25.3193 25.6814 24.9341C26.0727 24.5488 26.0725 23.9239 25.6814 23.5386L22.0857 19.9985ZM16.7966 19.9644C16.4052 19.579 15.7701 19.579 15.3787 19.9644L11.783 23.5044C11.3919 23.8898 11.3917 24.5147 11.783 24.8999C12.1743 25.2852 12.8095 25.2852 13.2009 24.8999L16.7966 21.3599C17.1878 20.9746 17.1877 20.3497 16.7966 19.9644ZM13.3298 15.8071C12.068 14.5649 10.0404 14.5466 8.80151 15.7661C7.56262 16.9858 7.58167 18.9818 8.84351 20.2241C10.1053 21.4664 12.132 21.4847 13.3708 20.2651C14.6097 19.0454 14.5917 17.0494 13.3298 15.8071ZM28.9255 15.8071C27.6638 14.5653 25.637 14.5469 24.3982 15.7661C23.1594 16.9857 23.1776 18.9818 24.4392 20.2241C25.701 21.4664 27.7286 21.4848 28.9675 20.2651C30.2063 19.0454 30.1873 17.0494 28.9255 15.8071ZM19.6658 17.1392C19.1408 16.6225 18.2975 16.6153 17.782 17.1226C17.2666 17.63 17.2739 18.4601 17.7986 18.9771C18.3236 19.494 19.1678 19.5022 19.6833 18.9946C20.1988 18.4871 20.1908 17.6561 19.6658 17.1392ZM13.1658 11.2173C12.7744 10.8321 12.1401 10.832 11.7488 11.2173C11.3574 11.6026 11.3574 12.2274 11.7488 12.6128L15.3445 16.1528C15.7359 16.5378 16.3702 16.5379 16.7615 16.1528C17.1529 15.7675 17.1528 15.1427 16.7615 14.7573L13.1658 11.2173ZM25.6814 11.2173C25.29 10.8319 24.6548 10.8319 24.2634 11.2173L20.6687 14.7573C20.2773 15.1427 20.2773 15.7675 20.6687 16.1528C21.06 16.5378 21.6944 16.5378 22.0857 16.1528L25.6814 12.6128C26.0728 12.2275 26.0727 11.6026 25.6814 11.2173ZM20.9753 8.00537C19.7135 6.76353 17.6867 6.74577 16.448 7.96533C15.2093 9.18492 15.2276 11.1801 16.489 12.4224C17.7509 13.6647 19.7784 13.6831 21.0173 12.4634C22.2561 11.2437 22.2371 9.24761 20.9753 8.00537Z" fill="white"/>
</svg>