<svg width="35" height="35" viewBox="0 0 35 35" fill="none" xmlns="http://www.w3.org/2000/svg">
    <path
        d="M35 35H0V0H35V35ZM18.1113 6.66309L16.1348 4.6875L14.5947 6.22754L16.5713 8.20312L14.7744 10L13.748 8.97363L12.208 10.5137L13.2354 11.54L11.541 13.2344L10.5146 12.207L8.97461 13.7471L10.001 14.7734L8.2041 16.5703L6.22852 14.5938L4.68848 16.1338L6.66406 18.1104L4.68848 20.0869L6.22852 21.627L8.2041 19.6504L10.001 21.4473L8.97461 22.4736L10.5146 24.0137L11.541 22.9873L13.2354 24.6807L12.208 25.707L13.748 27.2471L14.7744 26.2207L16.5713 28.0176L14.5947 29.9932L16.1348 31.5332L18.1113 29.5576L20.0879 31.5332L21.6279 29.9932L19.6514 28.0176L21.4482 26.2207L22.4746 27.2471L24.0146 25.707L22.9873 24.6807L24.6816 22.9873L25.708 24.0137L27.248 22.4736L26.2217 21.4473L28.0186 19.6504L29.9941 21.627L31.5342 20.0869L29.5586 18.1104L31.5342 16.1338L29.9941 14.5938L28.0186 16.5703L26.2217 14.7734L27.248 13.7471L25.708 12.207L24.6816 13.2344L22.9873 11.54L24.0146 10.5137L22.4746 8.97363L21.4482 10L19.6514 8.20312L21.6279 6.22754L20.0879 4.6875L18.1113 6.66309ZM26.4785 18.1104L18.1113 26.4775L9.74414 18.1104L18.1113 9.74316L26.4785 18.1104ZM13.4912 18.1104L18.1113 22.7305L22.7305 18.1104L18.1113 13.4912L13.4912 18.1104ZM19.8564 18.1104L18.1113 19.8555L16.3662 18.1104L18.1113 16.3652L19.8564 18.1104Z"
        fill="white" />
</svg>