<svg width="288" height="344" viewBox="0 0 288 344" fill="none" xmlns="http://www.w3.org/2000/svg">
<path d="M11.6364 129.966C13.0909 129.602 14.6061 129.42 16.1818 129.42C22 129.42 26.4848 131.362 29.6364 135.245C31.697 137.673 32.9091 140.525 33.2727 143.801C33.7576 146.957 34 155.513 34 169.47V194.592H21.4545C21.4545 188.281 21.3939 178.815 21.2727 166.193C21.1515 153.45 21.0909 143.862 21.0909 137.43L19.2727 135.973C18.303 135.367 17.5152 135.063 16.9091 135.063C15.0909 135.063 13.6364 136.095 12.5455 138.158C11.9394 139.614 11.6364 161.156 11.6364 202.784V218.44C11.6364 243.077 11.7576 257.579 12 261.949C12.3636 266.439 13.3333 268.927 14.9091 269.412C15.1515 269.534 15.3333 269.594 15.4545 269.594C15.5758 269.594 15.697 269.594 15.8182 269.594C16.0606 269.716 16.2424 269.776 16.3636 269.776C18.9091 269.776 20.4848 268.927 21.0909 267.228C21.3333 266.5 21.4545 256.851 21.4545 238.283V210.612H34L33.8182 236.826C33.697 254.181 33.1515 263.83 32.1818 265.771C29.0303 272.204 23.8182 275.42 16.5455 275.42C9.51515 275.42 4.48485 272.264 1.45454 265.953C0.969696 264.983 0.666666 263.89 0.545454 262.677C0.424242 261.584 0.30303 258.732 0.181818 254.121C0.060606 249.387 0 241.863 0 231.547V201.51L0.181818 140.16L2.54545 136.884C5.09091 133.364 8.12121 131.058 11.6364 129.966Z" fill="white"/>
<path d="M68.3454 136.752C67.49 135.896 66.4514 135.468 65.2294 135.468C63.8853 135.468 62.7855 135.896 61.9302 136.752C61.5636 137.118 61.3192 137.546 61.197 138.035C61.0748 138.523 60.9526 139.99 60.8304 142.434C60.7082 144.755 60.6471 148.055 60.6471 152.331C60.6471 156.608 60.6471 163.023 60.6471 171.577V233.53C60.6471 242.083 60.6471 248.498 60.6471 252.775C60.6471 257.052 60.7082 260.351 60.8304 262.673C60.9526 265.117 61.0748 266.583 61.197 267.072C61.3192 267.561 61.5636 267.988 61.9302 268.355C62.9077 269.333 64.0075 269.821 65.2294 269.821C66.3292 269.821 67.3678 269.333 68.3454 268.355C68.712 267.988 68.9564 267.561 69.0786 267.072C69.2007 266.583 69.3229 265.117 69.4451 262.673C69.5673 260.351 69.6284 257.052 69.6284 252.775C69.6284 248.498 69.6284 242.083 69.6284 233.53V171.577C69.6284 163.023 69.6284 156.608 69.6284 152.331C69.6284 148.055 69.5673 144.755 69.4451 142.434C69.3229 139.99 69.2007 138.523 69.0786 138.035C68.9564 137.546 68.712 137.118 68.3454 136.752ZM60.4638 130.153C62.6633 129.664 64.2519 129.42 65.2294 129.42C72.0723 129.42 77.1434 132.597 80.4426 138.951L82.2756 142.434V263.04L80.2594 266.522C76.9601 272.51 71.889 275.503 65.0461 275.503C58.3254 275.503 53.3155 272.51 50.0162 266.522L48 263.04V142.067L50.0162 138.584C52.4601 134.063 55.9426 131.253 60.4638 130.153Z" fill="white"/>
<path d="M107.356 129.42H129.75V275.42H117.836V136.755H113C109.8 160.755 101 239.42 97.0003 275.42H91C94.1765 243.279 102.174 166.213 107.356 129.42Z" fill="white"/>
<path d="M163.345 136.752C162.49 135.896 161.451 135.468 160.229 135.468C158.885 135.468 157.786 135.896 156.93 136.752C156.564 137.118 156.319 137.546 156.197 138.035C156.075 138.523 155.953 139.99 155.83 142.434C155.708 144.755 155.647 148.055 155.647 152.331C155.647 156.608 155.647 163.023 155.647 171.577V233.53C155.647 242.083 155.647 248.498 155.647 252.775C155.647 257.052 155.708 260.351 155.83 262.673C155.953 265.117 156.075 266.583 156.197 267.072C156.319 267.561 156.564 267.988 156.93 268.355C157.908 269.333 159.007 269.821 160.229 269.821C161.329 269.821 162.368 269.333 163.345 268.355C163.712 267.988 163.956 267.561 164.079 267.072C164.201 266.583 164.323 265.117 164.445 262.673C164.567 260.351 164.628 257.052 164.628 252.775C164.628 248.498 164.628 242.083 164.628 233.53V171.577C164.628 163.023 164.628 156.608 164.628 152.331C164.628 148.055 164.567 144.755 164.445 142.434C164.323 139.99 164.201 138.523 164.079 138.035C163.956 137.546 163.712 137.118 163.345 136.752ZM155.464 130.153C157.663 129.664 159.252 129.42 160.229 129.42C167.072 129.42 172.143 132.597 175.443 138.951L177.276 142.434V263.04L175.259 266.522C171.96 272.51 166.889 275.503 160.046 275.503C153.325 275.503 148.315 272.51 145.016 266.522L143 263.04V142.067L145.016 138.584C147.46 134.063 150.943 131.253 155.464 130.153Z" fill="white"/>
<path d="M191 275.42L191 129.42H196.682C200.348 129.42 202.181 129.848 202.181 130.703C202.181 131.436 204.319 151.985 208.596 189.621C212.873 227.134 215.133 245.891 215.378 245.891C215.989 245.891 218.31 227.44 222.343 190.537C226.742 152.413 229.064 131.558 229.308 130.703C229.675 129.848 231.63 129.42 235.173 129.42H240.672V275.42H228.025V234.527L227.658 194.02L223.259 233.244C220.449 259.149 220 266.42 219 272.42C218.592 274.868 218 274.851 215.561 274.851C213 274.851 212.281 274.851 212 272.42C211.308 266.42 210.123 252.123 207.68 230.861L203.281 192.004C203.281 201.168 203.219 214.976 203.097 233.427C202.975 251.757 202.914 266.133 202.914 275.42H191Z" fill="white"/>
<path d="M274.345 136.568C273.49 135.713 272.329 135.285 270.863 135.285C269.397 135.285 268.236 135.713 267.38 136.568C266.769 137.179 266.342 138.646 266.097 140.967C265.975 143.289 265.914 149.338 265.914 159.113V180.008H275.628V159.113C275.628 148.849 275.567 142.678 275.445 140.601C275.323 138.523 274.956 137.179 274.345 136.568ZM267.014 129.786C267.747 129.542 268.908 129.42 270.496 129.42C273.796 129.42 276.911 130.336 279.844 132.169C282.777 133.88 284.915 136.202 286.259 139.134C286.87 140.478 287.237 144.328 287.359 150.682C287.481 157.036 287.542 176.404 287.542 208.785V275.42H275.628V185.69H265.914V275.42H254V183.491C254 156.853 254.428 142.067 255.283 139.134C255.772 137.79 256.81 136.324 258.399 134.735C260.721 132.291 263.592 130.642 267.014 129.786Z" fill="white"/>
<path d="M57.687 336.69L56.5919 343.655L56.1977 343.787L53 336.559L53.219 336.121H56.2853L66.185 311.766C66.4186 311.182 66.5062 310.598 66.4478 310.014C66.3894 309.43 66.2142 308.904 65.9221 308.437C65.6301 307.94 65.2359 307.532 64.7394 307.21C64.243 306.889 63.6881 306.699 63.0749 306.641V306.29H71.6166V306.641L69.076 307.079L80.684 336.121H84.5826L84.8892 336.559L81.6915 343.787L81.2973 343.655L80.2022 336.69H57.687ZM66.7982 312.423L57.249 336.121H76.1722L66.7982 312.423Z" fill="white"/>
<path d="M110.765 308.305C110.765 307.955 110.648 307.648 110.415 307.386C110.21 307.094 109.933 306.918 109.583 306.86L108.444 306.641V306.29H116.985V306.641L115.847 306.86C115.496 306.918 115.204 307.094 114.97 307.386C114.766 307.648 114.664 307.955 114.664 308.305V334.544C114.664 334.894 114.766 335.216 114.97 335.508C115.204 335.77 115.496 335.931 115.847 335.989L116.985 336.208V336.559H108.444V336.208L109.583 335.989C109.933 335.931 110.21 335.77 110.415 335.508C110.648 335.216 110.765 334.894 110.765 334.544V310.058L91.5354 334.369V334.544C91.5354 334.894 91.6376 335.216 91.842 335.508C92.0756 335.77 92.3677 335.931 92.7181 335.989L93.857 336.208V336.559H85.3152V336.208L86.4541 335.989C86.8046 335.931 87.082 335.77 87.2864 335.508C87.52 335.216 87.6368 334.894 87.6368 334.544V308.305C87.6368 307.955 87.52 307.648 87.2864 307.386C87.082 307.094 86.8046 306.918 86.4541 306.86L85.3152 306.641V306.29H93.857V306.641L92.7181 306.86C92.3677 306.918 92.0756 307.094 91.842 307.386C91.6376 307.648 91.5354 307.955 91.5354 308.305V332.879L110.765 308.568V308.305Z" fill="white"/>
<path d="M125.439 323.549C126.87 322.352 128.33 321.461 129.82 320.877C131.309 320.264 132.74 319.913 134.112 319.826C135.485 319.738 136.741 319.913 137.88 320.352C139.018 320.76 139.938 321.403 140.639 322.279C141.369 323.126 141.822 324.206 141.997 325.52C142.172 326.805 141.997 328.28 141.471 329.945C140.975 331.463 140.318 332.675 139.5 333.58C138.683 334.486 137.777 335.186 136.784 335.683C135.821 336.179 134.799 336.501 133.718 336.647C132.667 336.793 131.616 336.851 130.564 336.822C129.542 336.822 128.578 336.778 127.673 336.69C126.768 336.603 125.994 336.559 125.352 336.559H119.219V336.208L120.358 335.989C120.708 335.931 120.986 335.77 121.19 335.508C121.424 335.216 121.541 334.894 121.541 334.544V308.305C121.541 307.955 121.424 307.648 121.19 307.386C120.986 307.094 120.708 306.918 120.358 306.86L119.219 306.641V306.29H122.548C124.505 306.29 126.374 306.188 128.155 305.984C129.936 305.75 131.82 305.663 133.806 305.721C134.799 305.75 135.66 305.955 136.39 306.334C137.12 306.714 137.69 307.225 138.099 307.867C138.507 308.481 138.726 309.225 138.756 310.101C138.785 310.977 138.61 311.927 138.23 312.949C137.821 314.058 137.091 314.934 136.04 315.577C134.988 316.219 133.82 316.628 132.535 316.803C131.28 316.979 129.995 316.906 128.681 316.584C127.367 316.234 126.257 315.621 125.352 314.745V323.505L125.439 323.549ZM125.439 313.869C125.994 314.511 126.724 315.022 127.629 315.402C128.564 315.781 129.498 315.942 130.433 315.884C131.367 315.825 132.229 315.504 133.017 314.92C133.806 314.336 134.361 313.387 134.682 312.073C135.003 310.642 134.886 309.517 134.331 308.7C133.806 307.853 133.046 307.269 132.054 306.948C131.061 306.597 129.951 306.466 128.725 306.553C127.527 306.641 126.432 306.904 125.439 307.342V313.869ZM137.923 327.229C137.982 325.856 137.792 324.746 137.354 323.9C136.916 323.053 136.332 322.44 135.602 322.06C134.872 321.651 134.039 321.447 133.105 321.447C132.17 321.417 131.221 321.549 130.258 321.841C129.323 322.104 128.432 322.498 127.586 323.024C126.739 323.549 126.038 324.133 125.483 324.776V335.376C126.71 336.048 128.024 336.384 129.425 336.384C130.827 336.355 132.127 336.004 133.324 335.332C134.55 334.661 135.587 333.653 136.434 332.31C137.281 330.967 137.748 329.273 137.836 327.229H137.923Z" fill="white"/>
<path d="M174.494 306.86C174.143 306.918 173.851 307.094 173.618 307.386C173.413 307.648 173.311 307.955 173.311 308.305V334.544C173.311 334.894 173.413 335.216 173.618 335.508C173.851 335.77 174.143 335.931 174.494 335.989L175.633 336.208V336.559H167.091V336.208L168.23 335.989C168.58 335.931 168.858 335.77 169.062 335.508C169.296 335.216 169.412 334.894 169.412 334.544V319.213C168.449 319.709 167.091 319.986 165.339 320.045C163.587 320.074 161.294 319.709 158.461 318.95C158.432 318.95 158.301 318.921 158.067 318.862C157.863 318.775 157.629 318.702 157.366 318.643C157.104 318.585 156.855 318.526 156.622 318.468C156.417 318.38 156.3 318.337 156.271 318.337C154.84 317.957 153.628 317.796 152.636 317.855C151.672 317.913 150.869 318.132 150.226 318.512V334.544C150.226 334.894 150.329 335.216 150.533 335.508C150.767 335.77 151.059 335.931 151.409 335.989L152.548 336.208V336.559H144.006V336.208L145.145 335.989C145.496 335.931 145.773 335.77 145.977 335.508C146.211 335.216 146.328 334.894 146.328 334.544V308.305C146.328 307.955 146.211 307.648 145.977 307.386C145.773 307.094 145.496 306.918 145.145 306.86L144.006 306.641V306.29H152.548V306.641L151.409 306.86C151.059 306.918 150.767 307.094 150.533 307.386C150.329 307.648 150.226 307.955 150.226 308.305V317.373C151.132 316.818 152.285 316.497 153.687 316.409C155.118 316.322 156.914 316.57 159.075 317.154C161.995 317.913 164.258 318.337 165.864 318.424C167.5 318.512 168.712 318.38 169.5 318.03V308.305C169.5 307.955 169.383 307.648 169.15 307.386C168.945 307.094 168.668 306.918 168.317 306.86L167.178 306.641V306.29H175.72V306.641L174.581 306.86H174.494Z" fill="white"/>
<path d="M203.798 333.317C204.119 334.077 204.601 334.719 205.244 335.245C205.915 335.741 206.675 336.062 207.521 336.208V336.559H198.498V336.208L199.155 336.077C199.505 336.019 199.768 335.829 199.943 335.508C200.119 335.186 200.133 334.865 199.987 334.544L194.249 320.877H187.284L182.247 333.23C181.984 333.872 182.028 334.486 182.378 335.07C182.728 335.654 183.24 335.989 183.911 336.077L184.919 336.208V336.559H176.377V336.208L177.078 336.121C178.041 336.004 178.903 335.668 179.662 335.113C180.451 334.529 181.035 333.785 181.414 332.879L190 311.766C190.234 311.182 190.321 310.598 190.263 310.014C190.204 309.43 190.029 308.904 189.737 308.437C189.445 307.94 189.051 307.532 188.554 307.21C188.058 306.889 187.503 306.699 186.89 306.641V306.29H195.432V306.641L192.891 307.079L203.886 333.274L203.798 333.317ZM193.767 319.913L190.613 312.423L187.591 319.913H193.767Z" fill="white"/>
<path d="M217.94 330.339C217.502 331.39 217.064 332.325 216.626 333.142C216.217 333.96 215.75 334.661 215.224 335.245C214.728 335.8 214.158 336.238 213.516 336.559C212.873 336.851 212.129 336.997 211.282 336.997C210.055 336.997 209.135 336.69 208.522 336.077C207.938 335.464 207.558 334.748 207.383 333.931C207.208 333.084 207.193 332.237 207.339 331.39C207.485 330.543 207.719 329.886 208.04 329.419L208.084 329.594L208.741 330.076C208.332 330.748 208.069 331.405 207.953 332.047C207.865 332.66 207.88 333.23 207.996 333.755C208.142 334.281 208.376 334.734 208.697 335.113C209.019 335.464 209.427 335.683 209.924 335.77C210.712 335.916 211.472 335.391 212.202 334.194C212.961 332.996 213.633 331.405 214.217 329.419C214.655 328.076 215.18 326.761 215.794 325.477C216.407 324.162 217.21 322.921 218.203 321.753C219.225 320.585 220.495 319.505 222.014 318.512C223.532 317.519 225.43 316.657 227.708 315.927V313.781C227.183 314.307 226.511 314.832 225.693 315.358C224.905 315.884 224.043 316.336 223.109 316.716C222.203 317.095 221.254 317.387 220.262 317.592C219.269 317.767 218.32 317.796 217.414 317.679C216.509 317.533 215.677 317.212 214.917 316.716C214.158 316.19 213.545 315.416 213.078 314.394C212.464 313.051 212.275 311.839 212.508 310.758C212.771 309.678 213.34 308.758 214.217 307.999C215.093 307.21 216.232 306.612 217.633 306.203C219.035 305.765 220.568 305.546 222.233 305.546C223.05 305.546 223.824 305.59 224.554 305.677C225.284 305.736 226.044 305.809 226.832 305.896C227.621 305.984 228.482 306.071 229.417 306.159C230.351 306.217 231.461 306.247 232.746 306.247H233.884V306.597L232.746 306.816C232.395 306.875 232.103 307.05 231.87 307.342C231.665 307.605 231.563 307.911 231.563 308.262V334.5C231.563 334.851 231.665 335.172 231.87 335.464C232.103 335.727 232.395 335.887 232.746 335.946L233.884 336.165V336.515H225.343V336.165L226.482 335.946C226.832 335.887 227.109 335.727 227.314 335.464C227.548 335.172 227.664 334.851 227.664 334.5V316.979C225.912 317.387 224.51 318.059 223.459 318.994C222.408 319.928 221.561 321.009 220.919 322.235C220.276 323.462 219.75 324.776 219.342 326.177C218.933 327.579 218.466 328.966 217.94 330.339ZM227.664 306.816C226.876 306.612 226.029 306.466 225.124 306.378C224.218 306.29 223.313 306.29 222.408 306.378C221.532 306.436 220.685 306.597 219.867 306.86C219.05 307.094 218.349 307.444 217.765 307.911C217.181 308.378 216.743 308.963 216.451 309.663C216.159 310.364 216.086 311.211 216.232 312.204C216.436 313.606 217.02 314.613 217.984 315.226C218.977 315.811 220.086 316.073 221.313 316.015C222.539 315.927 223.737 315.562 224.905 314.92C226.102 314.277 227.022 313.416 227.664 312.335V306.816Z" fill="white"/>
<path fill-rule="evenodd" clip-rule="evenodd" d="M126.131 51.9197L144 34.0506L161.869 51.9197L144 69.7888L126.131 51.9197ZM137.249 51.9197L144 45.1692L150.751 51.9197L144 58.6702L137.249 51.9197Z" fill="white"/>
<path fill-rule="evenodd" clip-rule="evenodd" d="M195.92 59.5636L188.276 51.9196L195.92 44.2756L189.963 38.3193L182.319 45.9633L175.37 39.0142L179.341 35.0433L173.385 29.0869L169.414 33.0578L162.862 26.5058L166.833 22.5349L160.876 16.5785L156.905 20.5495L149.956 13.6004L157.6 5.95636L151.644 0L144 7.644L136.356 0L130.4 5.95636L138.044 13.6004L131.095 20.5495L127.124 16.5785L121.167 22.5349L125.138 26.5058L118.586 33.0578L114.615 29.0869L108.659 35.0433L112.63 39.0142L105.681 45.9633L98.0367 38.3193L92.0804 44.2756L99.7244 51.9196L92.0804 59.5636L98.0367 65.52L105.681 57.876L112.63 64.8251L108.659 68.796L114.615 74.7524L118.586 70.7815L125.138 77.3335L121.167 81.3044L127.124 87.2607L131.095 83.2898L138.044 90.2389L130.4 97.8829L136.356 103.839L144 96.1953L151.644 103.839L157.6 97.8829L149.956 90.2389L156.905 83.2898L160.876 87.2607L166.833 81.3044L162.862 77.3335L169.414 70.7815L173.385 74.7524L179.341 68.796L175.37 64.8251L182.319 57.876L189.963 65.52L195.92 59.5636ZM144 84.2826L111.637 51.9196L144 19.5567L176.363 51.9196L144 84.2826Z" fill="white"/>
</svg>
