<svg width="768" height="925" viewBox="0 0 768 925" fill="none" xmlns="http://www.w3.org/2000/svg">
<path fill-rule="evenodd" clip-rule="evenodd" d="M224.322 462.5L383.5 303.323L542.678 462.5L383.5 621.678L224.322 462.5ZM323.366 462.5L383.5 402.367L443.634 462.5L383.5 522.634L323.366 462.5Z" fill="#141414"/>
<path fill-rule="evenodd" clip-rule="evenodd" d="M846 530.593L777.907 462.5L846 394.407L792.941 341.348L724.848 409.441L662.945 347.538L698.318 312.165L645.259 259.106L609.886 294.479L551.521 236.114L586.894 200.741L533.834 147.682L498.462 183.054L436.559 121.152L504.652 53.0593L451.593 0L383.5 68.0927L315.407 0L262.348 53.0593L330.441 121.152L268.538 183.054L233.165 147.682L180.106 200.741L215.479 236.114L157.114 294.479L121.741 259.106L68.6816 312.165L104.054 347.538L42.152 409.441L-25.9408 341.348L-79 394.407L-10.9073 462.5L-79 530.593L-25.9408 583.652L42.152 515.559L104.054 577.462L68.6816 612.835L121.741 665.894L157.114 630.521L215.479 688.886L180.106 724.259L233.165 777.318L268.538 741.945L330.441 803.848L262.348 871.941L315.407 925L383.5 856.907L451.593 925L504.652 871.941L436.559 803.848L498.462 741.945L533.834 777.318L586.894 724.259L551.521 688.886L609.886 630.521L645.259 665.894L698.318 612.835L662.945 577.462L724.848 515.559L792.941 583.652L846 530.593ZM383.5 750.789L95.2112 462.5L383.5 174.211L671.789 462.5L383.5 750.789Z" fill="#141414"/>
</svg>
