<svg width="673" height="661" viewBox="0 0 673 661" fill="none" xmlns="http://www.w3.org/2000/svg">
<path d="M119.34 282.157L149.303 250.695V161.304L119.34 192.766V282.157Z" fill="#141414"/>
<path d="M119.34 0.0605469L149.303 31.5223V120.914L119.34 89.452V0.0605469Z" fill="#141414"/>
<path d="M194.253 282.157L164.289 250.695V161.304L194.253 192.766V282.157Z" fill="#141414"/>
<path d="M194.253 0.0605469L164.289 31.5223V120.914L194.253 89.452V0.0605469Z" fill="#141414"/>
<path d="M15.4766 103.684L46.9384 133.647H136.33L104.868 103.684H15.4766Z" fill="#141414"/>
<path d="M297.629 103.684L266.167 133.647H176.776L208.237 103.684H297.629Z" fill="#141414"/>
<path d="M15.4766 178.593L46.9384 148.629H136.33L104.868 178.593H15.4766Z" fill="#141414"/>
<path d="M297.629 178.593L266.167 148.629H176.776L208.237 178.593H297.629Z" fill="#141414"/>
<rect width="19.9757" height="19.9757" transform="matrix(0.707107 0.707107 0.707107 -0.707107 142.821 141.247)" fill="#141414"/>
<rect width="47.4297" height="47.4297" transform="matrix(0.707107 0.707107 0.707107 -0.707107 565.487 505.541)" fill="#141414"/>
<rect width="47.4297" height="47.4297" transform="matrix(0.707107 0.707107 0.707107 -0.707107 433.263 505.541)" fill="#141414"/>
<rect width="27.9567" height="27.9567" transform="matrix(0.707107 0.707107 0.707107 -0.707107 513.366 638.274)" fill="#141414"/>
<rect width="27.9567" height="27.9567" transform="matrix(0.707107 0.707107 0.707107 -0.707107 513.366 370.858)" fill="#141414"/>
<path d="M466.645 437.81L527.779 501.742V435.031L466.645 371.099V437.81Z" fill="#141414"/>
<path d="M538.354 574.316L599.488 638.248V571.537L538.354 507.605V574.316Z" fill="#141414"/>
<path d="M527.77 574.316L466.635 638.248V571.537L527.77 507.605V574.316Z" fill="#141414"/>
<path d="M538.354 435.029L599.488 371.098V437.809L538.354 501.741V435.029Z" fill="#141414"/>
<rect x="595.501" y="205.205" width="51.3014" height="51.3014" transform="rotate(-180 595.501 205.205)" fill="#141414"/>
<rect x="621.136" y="227.007" width="51.3014" height="51.3014" transform="rotate(-180 621.136 227.007)" fill="#141414"/>
<rect width="51.3014" height="51.3014" transform="matrix(-1 0 0 1 595.501 76.9521)" fill="#141414"/>
<rect x="467.229" y="76.9521" width="51.3014" height="51.3014" fill="#141414"/>
<rect width="51.3014" height="51.3014" transform="matrix(-1 0 0 1 492.885 175.707)" fill="#141414"/>
<rect x="441.582" y="55.1494" width="51.3014" height="51.3014" fill="#141414"/>
<rect width="51.3014" height="51.3014" transform="matrix(-1 0 0 1 621.136 55.1494)" fill="#141414"/>
<rect width="51.3014" height="51.3014" transform="matrix(-1 0 0 1 518.531 153.904)" fill="#141414"/>
<rect width="25.6507" height="25.6507" transform="matrix(1 0 0 -1 518.531 153.904)" fill="#141414"/>
<rect width="25.6507" height="25.6507" transform="matrix(1 0 0 -1 518.531 230.854)" fill="#141414"/>
<rect width="25.6507" height="25.6507" transform="matrix(1 0 0 -1 415.937 128.255)" fill="#141414"/>
<rect width="25.6507" height="25.6507" transform="matrix(1 0 0 -1 518.531 25.6514)" fill="#141414"/>
<rect width="25.6507" height="25.6507" transform="matrix(1 0 0 -1 621.136 128.255)" fill="#141414"/>
<rect width="25.6507" height="25.6507" transform="matrix(1 0 0 -1 544.182 256.507)" fill="#141414"/>
<rect width="25.6507" height="25.6507" transform="matrix(1 0 0 -1 441.583 153.904)" fill="#141414"/>
<rect width="25.6507" height="25.6507" transform="matrix(1 0 0 -1 544.182 51.3018)" fill="#141414"/>
<rect width="25.6507" height="25.6507" transform="matrix(1 0 0 -1 646.803 153.905)" fill="#141414"/>
<rect width="25.6507" height="25.6507" transform="matrix(1 0 0 -1 492.885 256.507)" fill="#141414"/>
<rect width="25.6507" height="25.6507" transform="matrix(1 0 0 -1 390.28 153.904)" fill="#141414"/>
<rect width="25.6507" height="25.6507" transform="matrix(1 0 0 -1 492.885 51.3018)" fill="#141414"/>
<rect width="25.6507" height="25.6507" transform="matrix(1 0 0 -1 595.501 153.904)" fill="#141414"/>
<rect width="25.6507" height="25.6507" transform="matrix(1 0 0 -1 518.531 256.507)" fill="#141414"/>
<rect width="25.6507" height="25.6507" transform="matrix(1 0 0 -1 415.937 153.904)" fill="#141414"/>
<rect width="25.6507" height="25.6507" transform="matrix(1 0 0 -1 518.531 51.3018)" fill="#141414"/>
<rect width="25.6507" height="25.6507" transform="matrix(1 0 0 -1 621.136 153.904)" fill="#141414"/>
<rect width="25.6507" height="25.6507" transform="matrix(1 0 0 -1 518.531 282.157)" fill="#141414"/>
<rect width="25.6507" height="25.6507" transform="matrix(1 0 0 -1 415.937 179.555)" fill="#141414"/>
<rect width="25.6507" height="25.6507" transform="matrix(1 0 0 -1 518.531 76.9521)" fill="#141414"/>
<rect width="25.6507" height="25.6507" transform="matrix(1 0 0 -1 621.136 179.555)" fill="#141414"/>
<rect width="25.3792" height="222.068" transform="matrix(0.707107 0.707107 0.707107 -0.707107 51.6143 554.798)" fill="#141414"/>
<rect width="25.3792" height="222.068" transform="matrix(0.707107 0.707107 0.707107 -0.707107 15.7197 518.907)" fill="#141414"/>
<rect width="25.3792" height="222.068" transform="matrix(0.707107 0.707107 0.707107 -0.707107 87.5137 590.69)" fill="#141414"/>
<rect width="25.3792" height="222.068" transform="matrix(0.707107 0.707107 0.707107 -0.707107 123.407 626.582)" fill="#141414"/>
<rect width="25.3792" height="222.068" transform="matrix(-0.707107 0.707107 0.707107 0.707107 105.418 397.771)" fill="#141414"/>
<rect width="25.3792" height="222.068" transform="matrix(-0.707107 0.707107 0.707107 0.707107 141.317 361.88)" fill="#141414"/>
<rect width="25.3792" height="222.068" transform="matrix(-0.707107 0.707107 0.707107 0.707107 69.5244 433.663)" fill="#141414"/>
<rect width="25.3792" height="222.068" transform="matrix(-0.707107 0.707107 0.707107 0.707107 33.6504 469.555)" fill="#141414"/>
</svg>
