<svg width="389" height="41" viewBox="0 0 389 41" fill="none" xmlns="http://www.w3.org/2000/svg">
    <path
        d="M19.5415 1.64226C19.5415 0.893834 20.1483 0.287109 20.8967 0.287109C21.6451 0.287109 22.2518 0.893832 22.2518 1.64226V15.1938C22.2518 15.9422 21.6451 16.549 20.8967 16.549C20.1483 16.549 19.5415 15.9422 19.5415 15.1938V1.64226Z"
        fill="white" />
    <path
        d="M22.9268 9.09538C22.9268 8.72117 23.2301 8.41781 23.6043 8.41781C23.9785 8.41781 24.2819 8.72117 24.2819 9.09538V15.8712C24.2819 16.2454 23.9785 16.5487 23.6043 16.5487C23.2301 16.5487 22.9268 16.2454 22.9268 15.8712V9.09538Z"
        fill="white" />
    <path
        d="M17.5076 9.09538C17.5076 8.72117 17.811 8.41781 18.1852 8.41781C18.5594 8.41781 18.8628 8.72117 18.8628 9.09538V15.8712C18.8628 16.2454 18.5594 16.5487 18.1852 16.5487C17.811 16.5487 17.5076 16.2454 17.5076 15.8712V9.09538Z"
        fill="white" />
    <path
        d="M19.5442 39.5867C19.5442 40.3351 20.151 40.9418 20.8994 40.9418C21.6478 40.9418 22.2545 40.3351 22.2545 39.5867V26.0351C22.2545 25.2867 21.6478 24.68 20.8994 24.68C20.151 24.68 19.5442 25.2867 19.5442 26.0351V39.5867Z"
        fill="white" />
    <path
        d="M22.9312 32.1336C22.9312 32.5078 23.2346 32.8111 23.6088 32.8111C23.983 32.8111 24.2864 32.5078 24.2864 32.1336V25.3578C24.2864 24.9836 23.983 24.6802 23.6088 24.6802C23.2346 24.6802 22.9312 24.9836 22.9312 25.3578V32.1336Z"
        fill="white" />
    <path
        d="M17.512 32.1336C17.512 32.5078 17.8154 32.8111 18.1896 32.8111C18.5638 32.8111 18.8672 32.5078 18.8672 32.1336V25.3578C18.8672 24.9836 18.5638 24.6802 18.1896 24.6802C17.8154 24.6802 17.512 24.9836 17.512 25.3578V32.1336Z"
        fill="white" />
    <path
        d="M39.8676 21.9693C40.6161 21.9693 41.2228 21.3626 41.2228 20.6141C41.2228 19.8657 40.6161 19.259 39.8676 19.259H26.3161C25.5677 19.259 24.961 19.8657 24.961 20.6141C24.961 21.3626 25.5677 21.9693 26.3161 21.9693H39.8676Z"
        fill="white" />
    <path
        d="M32.4147 18.5815C32.789 18.5815 33.0923 18.2781 33.0923 17.9039C33.0923 17.5297 32.789 17.2263 32.4147 17.2263H25.639C25.2648 17.2263 24.9614 17.5297 24.9614 17.9039C24.9614 18.2781 25.2648 18.5815 25.639 18.5815H32.4147Z"
        fill="white" />
    <path
        d="M32.4147 24.0019C32.789 24.0019 33.0923 23.6986 33.0923 23.3243C33.0923 22.9501 32.789 22.6468 32.4147 22.6468H25.639C25.2648 22.6468 24.9614 22.9501 24.9614 23.3243C24.9614 23.6986 25.2648 24.0019 25.639 24.0019H32.4147Z"
        fill="white" />
    <path
        d="M1.92644 21.9693C1.17801 21.9693 0.571289 21.3626 0.571289 20.6142C0.571289 19.8657 1.17801 19.259 1.92644 19.259H15.478C16.2264 19.259 16.8331 19.8657 16.8331 20.6142C16.8331 21.3626 16.2264 21.9693 15.478 21.9693H1.92644Z"
        fill="white" />
    <path
        d="M9.37935 18.5815C9.00513 18.5815 8.70177 18.2781 8.70177 17.9039C8.70177 17.5297 9.00513 17.2263 9.37934 17.2263H16.1551C16.5293 17.2263 16.8327 17.5297 16.8327 17.9039C16.8327 18.2781 16.5293 18.5815 16.1551 18.5815H9.37935Z"
        fill="white" />
    <path
        d="M9.37935 24.0019C9.00513 24.0019 8.70177 23.6986 8.70177 23.3244C8.70177 22.9501 9.00513 22.6468 9.37934 22.6468H16.1551C16.5293 22.6468 16.8327 22.9501 16.8327 23.3244C16.8327 23.6986 16.5293 24.0019 16.1551 24.0019H9.37935Z"
        fill="white" />
    <path
        d="M23.3338 20.6144C23.3338 21.9615 22.2417 23.0536 20.8945 23.0536C19.5474 23.0536 18.4553 21.9615 18.4553 20.6144C18.4553 19.2672 19.5474 18.1751 20.8945 18.1751C22.2417 18.1751 23.3338 19.2672 23.3338 20.6144Z"
        fill="white" />
    <path
        d="M72.4615 29.0843C72.4615 30.9554 70.9446 32.4722 69.0736 32.4722C67.2025 32.4722 65.6857 30.9554 65.6857 29.0843C65.6857 27.2132 67.2025 25.6964 69.0736 25.6964C70.9446 25.6964 72.4615 27.2132 72.4615 29.0843Z"
        fill="white" />
    <path
        d="M80.9324 20.6142C80.9324 22.4853 79.4156 24.0021 77.5445 24.0021C75.6734 24.0021 74.1566 22.4853 74.1566 20.6142C74.1566 18.7431 75.6734 17.2263 77.5445 17.2263C79.4156 17.2263 80.9324 18.7431 80.9324 20.6142Z"
        fill="white" />
    <path
        d="M80.9324 3.67499C80.9324 5.54607 79.4156 7.06288 77.5445 7.06288C75.6734 7.06288 74.1566 5.54607 74.1566 3.67499C74.1566 1.80392 75.6734 0.287109 77.5445 0.287109C79.4156 0.287109 80.9324 1.80392 80.9324 3.67499Z"
        fill="white" />
    <path
        d="M80.9324 37.5539C80.9324 39.425 79.4156 40.9418 77.5445 40.9418C75.6734 40.9418 74.1566 39.425 74.1566 37.5539C74.1566 35.6828 75.6734 34.166 77.5445 34.166C79.4156 34.166 80.9324 35.6828 80.9324 37.5539Z"
        fill="white" />
    <path
        d="M72.4615 12.1446C72.4615 14.0157 70.9446 15.5325 69.0736 15.5325C67.2025 15.5325 65.6857 14.0157 65.6857 12.1446C65.6857 10.2735 67.2025 8.75672 69.0736 8.75672C70.9446 8.75672 72.4615 10.2735 72.4615 12.1446Z"
        fill="white" />
    <path
        d="M59.7559 20.6144C59.7559 19.2672 60.848 18.1751 62.1951 18.1751H70.055C71.4022 18.1751 72.4943 19.2672 72.4943 20.6144C72.4943 21.9615 71.4022 23.0536 70.055 23.0536H62.1951C60.848 23.0536 59.7559 21.9615 59.7559 20.6144Z"
        fill="white" />
    <path
        d="M74.118 12.4832C74.118 11.136 75.2101 10.0439 76.5573 10.0439H84.4172C85.7644 10.0439 86.8565 11.136 86.8565 12.4832C86.8565 13.8304 85.7644 14.9225 84.4172 14.9225H76.5573C75.2101 14.9225 74.118 13.8304 74.118 12.4832Z"
        fill="white" />
    <path
        d="M59.7559 3.67513C59.7559 2.32796 60.848 1.23586 62.1951 1.23586H70.055C71.4022 1.23586 72.4943 2.32796 72.4943 3.67513C72.4943 5.02231 71.4022 6.11441 70.055 6.11441H62.1951C60.848 6.11441 59.7559 5.02231 59.7559 3.67513Z"
        fill="white" />
    <path
        d="M74.118 29.0166C74.118 27.6695 75.2101 26.5774 76.5573 26.5774H84.4172C85.7644 26.5774 86.8565 27.6695 86.8565 29.0166C86.8565 30.3638 85.7644 31.4559 84.4172 31.4559H76.5573C75.2101 31.4559 74.118 30.3638 74.118 29.0166Z"
        fill="white" />
    <path
        d="M59.7559 37.5538C59.7559 36.2066 60.848 35.1145 62.1951 35.1145H70.055C71.4022 35.1145 72.4943 36.2066 72.4943 37.5538C72.4943 38.901 71.4022 39.9931 70.055 39.9931H62.1951C60.848 39.9931 59.7559 38.901 59.7559 37.5538Z"
        fill="white" />
    <path
        d="M128.014 18.2714C129.295 19.5521 129.295 21.6286 128.014 22.9094C126.733 24.1901 124.657 24.1901 123.376 22.9094C122.095 21.6286 122.095 19.5521 123.376 18.2714C124.657 16.9906 126.733 16.9906 128.014 18.2714Z"
        fill="white" />
    <path
        d="M118.946 19.4466C119.578 20.0783 119.578 21.1025 118.946 21.7341C118.315 22.3658 117.291 22.3658 116.659 21.7341C116.027 21.1025 116.027 20.0783 116.659 19.4466C117.291 18.815 118.315 18.815 118.946 19.4466Z"
        fill="white" />
    <path
        d="M126.838 27.2481C127.47 27.8798 127.47 28.9039 126.838 29.5355C126.206 30.1671 125.182 30.1671 124.551 29.5355C123.919 28.9039 123.919 27.8798 124.551 27.2481C125.182 26.6165 126.206 26.6165 126.838 27.2481Z"
        fill="white" />
    <path
        d="M121.263 9.34944C123.144 11.2307 123.144 14.2809 121.263 16.1622C119.381 18.0435 116.331 18.0435 114.45 16.1622C112.569 14.2809 112.569 11.2307 114.45 9.34944C116.331 7.46815 119.381 7.46815 121.263 9.34944Z"
        fill="white" />
    <path
        d="M121.263 25.0186C123.144 26.8998 123.144 29.95 121.263 31.8313C119.381 33.7126 116.331 33.7126 114.45 31.8313C112.569 29.95 112.569 26.8998 114.45 25.0186C116.331 23.1373 119.381 23.1373 121.263 25.0186Z"
        fill="white" />
    <path
        d="M136.932 9.34944C138.814 11.2307 138.814 14.2809 136.932 16.1622C135.051 18.0435 132.001 18.0435 130.12 16.1622C128.238 14.2809 128.238 11.2307 130.12 9.34944C132.001 7.46815 135.051 7.46815 136.932 9.34944Z"
        fill="white" />
    <path
        d="M136.932 25.0186C138.814 26.8998 138.814 29.95 136.932 31.8313C135.051 33.7126 132.001 33.7126 130.12 31.8313C128.238 29.95 128.238 26.8998 130.12 25.0186C132.001 23.1373 135.051 23.1373 136.932 25.0186Z"
        fill="white" />
    <path
        d="M126.821 11.5737C127.444 12.1962 127.444 13.2054 126.821 13.8278C126.199 14.4503 125.19 14.4503 124.567 13.8278C123.945 13.2054 123.945 12.1962 124.567 11.5737C125.19 10.9513 126.199 10.9513 126.821 11.5737Z"
        fill="white" />
    <path
        d="M134.628 19.4589C135.253 20.0838 135.253 21.097 134.628 21.7219C134.003 22.3468 132.99 22.3468 132.365 21.7219C131.74 21.097 131.74 20.0838 132.365 19.4589C132.99 18.834 134.003 18.834 134.628 19.4589Z"
        fill="white" />
    <path
        d="M106.517 23.3155C105.012 21.8104 105.012 19.3703 106.517 17.8653C108.022 16.3602 110.463 16.3602 111.968 17.8653C113.473 19.3703 113.473 21.8104 111.968 23.3155C110.463 24.8205 108.022 24.8205 106.517 23.3155Z"
        fill="white" />
    <path
        d="M139.325 23.3155C137.82 21.8104 137.82 19.3703 139.325 17.8653C140.83 16.3602 143.271 16.3602 144.776 17.8653C146.281 19.3703 146.281 21.8104 144.776 23.3155C143.271 24.8205 140.83 24.8205 139.325 23.3155Z"
        fill="white" />
    <path
        d="M122.922 6.86609C121.417 5.36106 121.417 2.92092 122.922 1.41588C124.427 -0.0891489 126.867 -0.0891489 128.373 1.41588C129.878 2.92092 129.878 5.36106 128.373 6.86609C126.867 8.37112 124.427 8.37112 122.922 6.86609Z"
        fill="white" />
    <path
        d="M122.922 39.6747C121.417 38.1697 121.417 35.7295 122.922 34.2245C124.427 32.7195 126.867 32.7195 128.373 34.2245C129.878 35.7295 129.878 38.1697 128.373 39.6747C126.867 41.1797 124.427 41.1797 122.922 39.6747Z"
        fill="white" />
    <path
        d="M177.988 20.6142C177.988 22.4853 176.471 24.0021 174.6 24.0021C172.729 24.0021 171.212 22.4853 171.212 20.6142C171.212 18.7431 172.729 17.2263 174.6 17.2263C176.471 17.2263 177.988 18.7431 177.988 20.6142Z"
        fill="white" />
    <path
        d="M176.862 13.8387C176.862 15.0861 175.85 16.0973 174.603 16.0973C173.356 16.0973 172.344 15.0861 172.344 13.8387C172.344 12.5914 173.356 11.5801 174.603 11.5801C175.85 11.5801 176.862 12.5914 176.862 13.8387Z"
        fill="white" />
    <path
        d="M184.766 20.6142C184.766 22.1734 183.502 23.4375 181.943 23.4375C180.384 23.4375 179.12 22.1734 179.12 20.6142C179.12 19.055 180.384 17.791 181.943 17.791C183.502 17.791 184.766 19.055 184.766 20.6142Z"
        fill="white" />
    <path
        d="M170.085 20.6142C170.085 22.1734 168.821 23.4375 167.262 23.4375C165.702 23.4375 164.438 22.1734 164.438 20.6142C164.438 19.055 165.702 17.791 167.262 17.791C168.821 17.791 170.085 19.055 170.085 20.6142Z"
        fill="white" />
    <path
        d="M168.618 13.8953C168.618 14.6749 167.986 15.3069 167.207 15.3069C166.427 15.3069 165.795 14.6749 165.795 13.8953C165.795 13.1157 166.427 12.4837 167.207 12.4837C167.986 12.4837 168.618 13.1157 168.618 13.8953Z"
        fill="white" />
    <path
        d="M183.296 13.8953C183.296 14.6749 182.664 15.3069 181.885 15.3069C181.105 15.3069 180.473 14.6749 180.473 13.8953C180.473 13.1157 181.105 12.4837 181.885 12.4837C182.664 12.4837 183.296 13.1157 183.296 13.8953Z"
        fill="white" />
    <path
        d="M183.296 27.4465C183.296 28.2261 182.664 28.8581 181.885 28.8581C181.105 28.8581 180.473 28.2261 180.473 27.4465C180.473 26.6669 181.105 26.0349 181.885 26.0349C182.664 26.0349 183.296 26.6669 183.296 27.4465Z"
        fill="white" />
    <path
        d="M168.618 27.4465C168.618 28.2261 167.986 28.8581 167.207 28.8581C166.427 28.8581 165.795 28.2261 165.795 27.4465C165.795 26.6669 166.427 26.0349 167.207 26.0349C167.986 26.0349 168.618 26.6669 168.618 27.4465Z"
        fill="white" />
    <path
        d="M176.862 38.6832C176.862 39.9305 175.85 40.9417 174.603 40.9417C173.356 40.9417 172.344 39.9305 172.344 38.6832C172.344 37.4358 173.356 36.4246 174.603 36.4246C175.85 36.4246 176.862 37.4358 176.862 38.6832Z"
        fill="white" />
    <path
        d="M176.862 8.19255C176.862 9.43993 175.85 10.4511 174.603 10.4511C173.356 10.4511 172.344 9.43993 172.344 8.19255C172.344 6.94516 173.356 5.93396 174.603 5.93396C175.85 5.93396 176.862 6.94516 176.862 8.19255Z"
        fill="white" />
    <path
        d="M176.862 33.0367C176.862 34.2841 175.85 35.2953 174.603 35.2953C173.356 35.2953 172.344 34.2841 172.344 33.0367C172.344 31.7894 173.356 30.7782 174.603 30.7782C175.85 30.7782 176.862 31.7894 176.862 33.0367Z"
        fill="white" />
    <path
        d="M176.862 2.5457C176.862 3.79308 175.85 4.80429 174.603 4.80429C173.356 4.80429 172.344 3.79308 172.344 2.5457C172.344 1.29831 173.356 0.287109 174.603 0.287109C175.85 0.287109 176.862 1.29831 176.862 2.5457Z"
        fill="white" />
    <path
        d="M176.862 27.3899C176.862 28.6373 175.85 29.6485 174.603 29.6485C173.356 29.6485 172.344 28.6373 172.344 27.3899C172.344 26.1425 173.356 25.1313 174.603 25.1313C175.85 25.1313 176.862 26.1425 176.862 27.3899Z"
        fill="white" />
    <path d="M216.162 3.06641L219.872 6.96113V18.0271L216.162 14.1324V3.06641Z" fill="white" />
    <path d="M216.162 37.9875L219.872 34.0928V23.0268L216.162 26.9215V37.9875Z" fill="white" />
    <path d="M225.435 3.06641L221.726 6.96113V18.0271L225.435 14.1324V3.06641Z" fill="white" />
    <path d="M225.435 37.9875L221.726 34.0928V23.0268L225.435 26.9215V37.9875Z" fill="white" />
    <path d="M203.302 25.1597L207.196 21.4504H218.262L214.368 25.1597H203.302Z" fill="white" />
    <path d="M238.231 25.1597L234.337 21.4504H223.271L227.165 25.1597H238.231Z" fill="white" />
    <path d="M203.302 15.8865L207.196 19.5958H218.262L214.368 15.8865H203.302Z" fill="white" />
    <path d="M238.231 15.8865L234.337 19.5958H223.271L227.165 15.8865H238.231Z" fill="white" />
    <path d="M219.067 20.5097L220.815 18.7612L222.564 20.5097L220.815 22.2583L219.067 20.5097Z" fill="white" />
    <path d="M380.119 20.091L384.271 15.9393L388.423 20.091L384.271 24.2428L380.119 20.091Z" fill="white" />
    <path d="M363.753 20.091L367.905 15.9393L372.056 20.091L367.905 24.2428L363.753 20.091Z" fill="white" />
    <path d="M373.668 3.66007L376.115 1.21289L378.562 3.66007L376.115 6.10724L373.668 3.66007Z" fill="white" />
    <path d="M373.668 36.7635L376.115 34.3163L378.562 36.7635L376.115 39.2107L373.668 36.7635Z" fill="white" />
    <path d="M367.886 28.4758L375.454 20.5616V28.8199L367.886 36.7342V28.4758Z" fill="white" />
    <path d="M376.764 11.5776L384.332 3.66336V11.9217L376.764 19.836V11.5776Z" fill="white" />
    <path d="M375.451 11.5776L367.883 3.66336V11.9217L375.451 19.836V11.5776Z" fill="white" />
    <path d="M376.764 28.8201L384.332 36.7343V28.476L376.764 20.5617V28.8201Z" fill="white" />
    <path d="M282.167 12.5925H275.816V18.9432H282.167V12.5925Z" fill="white" />
    <path d="M285.341 9.89321H278.991V16.2439H285.341V9.89321Z" fill="white" />
    <path d="M282.167 28.4691H275.816V22.1184H282.167V28.4691Z" fill="white" />
    <path d="M266.288 28.4691H272.639V22.1184H266.288V28.4691Z" fill="white" />
    <path d="M269.465 16.244H263.114V9.89328H269.465V16.244Z" fill="white" />
    <path d="M263.112 31.1682H269.463V24.8174H263.112V31.1682Z" fill="white" />
    <path d="M285.341 31.1682H278.991V24.8174H285.341V31.1682Z" fill="white" />
    <path d="M272.639 18.943H266.289V12.5923H272.639V18.943Z" fill="white" />
    <path d="M272.639 18.943H275.815V22.1184L272.639 22.1184L272.639 18.943Z" fill="white" />
    <path d="M272.639 9.41741H275.815V12.5928L272.639 12.5923V9.41741Z" fill="white" />
    <path d="M259.937 22.1183H263.113V25.2937H259.937V22.1183Z" fill="white" />
    <path d="M272.639 34.8195H275.815V37.9948H272.639V34.8195Z" fill="white" />
    <path d="M285.341 22.1183H288.517V25.2937H285.341V22.1183Z" fill="white" />
    <path d="M275.814 6.24169H278.989V9.41705L275.815 9.41741L275.814 6.24169Z" fill="white" />
    <path d="M263.112 18.943H266.287V22.1184L263.113 22.1183L263.112 18.943Z" fill="white" />
    <path d="M275.814 31.6444H278.989V34.8197L275.815 34.8195L275.814 31.6444Z" fill="white" />
    <path d="M288.516 18.943H291.691V22.1184L288.517 22.1183L288.516 18.943Z" fill="white" />
    <path d="M269.465 6.24169H272.64L272.639 9.41741L269.465 9.41705V6.24169Z" fill="white" />
    <path d="M256.763 18.943H259.938L259.937 22.1183L256.763 22.1184V18.943Z" fill="white" />
    <path d="M269.465 31.6444H272.64L272.639 34.8195L269.465 34.8197V31.6444Z" fill="white" />
    <path d="M282.167 18.9432L285.342 18.943L285.341 22.1183L282.167 22.1184V18.9432Z" fill="white" />
    <path d="M272.64 6.24169H275.814L275.815 9.41741H272.639L272.64 6.24169Z" fill="white" />
    <path d="M259.938 18.943H263.112L263.113 22.1183H259.937L259.938 18.943Z" fill="white" />
    <path d="M272.64 31.6444H275.814L275.815 34.8195H272.639L272.64 31.6444Z" fill="white" />
    <path d="M285.342 18.943H288.516L288.517 22.1183H285.341L285.342 18.943Z" fill="white" />
    <path d="M272.639 3.06641H275.815L275.814 6.24169H272.64L272.639 3.06641Z" fill="white" />
    <path d="M259.937 15.7675H263.113L263.112 18.943H259.938L259.937 15.7675Z" fill="white" />
    <path d="M272.639 28.4691H275.815L275.814 31.6444H272.64L272.639 28.4691Z" fill="white" />
    <path d="M285.341 15.7675H288.517L288.516 18.943H285.342L285.341 15.7675Z" fill="white" />
    <path d="M314.671 14.1741L316.893 11.9526L336.331 31.3911L334.11 33.6127L314.671 14.1741Z" fill="white" />
    <path d="M310.228 18.6169L312.449 16.3954L331.888 35.8339L329.666 38.0555L310.228 18.6169Z" fill="white" />
    <path d="M319.114 9.73094L321.336 7.50939L340.775 26.9479L338.553 29.1695L319.114 9.73094Z" fill="white" />
    <path d="M323.556 5.28795L325.778 3.06641L345.216 22.505L342.995 24.7265L323.556 5.28795Z" fill="white" />
    <path d="M321.341 33.6127L319.119 31.3912L338.558 11.9526L340.779 14.1742L321.341 33.6127Z" fill="white" />
    <path d="M325.784 38.0559L323.563 35.8344L343.001 16.3958L345.223 18.6174L325.784 38.0559Z" fill="white" />
    <path d="M316.899 29.1697L314.678 26.9482L334.116 7.50963L336.338 9.73118L316.899 29.1697Z" fill="white" />
    <path d="M312.456 24.7267L310.234 22.5052L329.673 3.06665L331.894 5.2882L312.456 24.7267Z" fill="white" />
</svg>