<svg width="23" height="23" viewBox="0 0 23 23" fill="none" xmlns="http://www.w3.org/2000/svg">
    <rect width="23" height="23" rx="11.5" fill="white" fill-opacity="0.3" />
    <path fill-rule="evenodd" clip-rule="evenodd"
        d="M8.59345 11.3775L11.3828 8.58813L14.1722 11.3775L11.3828 14.1669L8.59345 11.3775ZM10.3291 11.3775L11.3828 10.3237L12.4366 11.3775L11.3828 12.4313L10.3291 11.3775Z"
        fill="#0C0C0C" />
    <path fill-rule="evenodd" clip-rule="evenodd"
        d="M19.4875 12.5714L18.2942 11.3782L19.4875 10.185L18.5577 9.25518L17.3644 10.4484L16.2797 9.36366L16.8995 8.7438L15.9698 7.81401L15.3499 8.43387L14.3271 7.4111L14.947 6.79124L14.0172 5.86146L13.3974 6.48132L12.3126 5.39656L13.5058 4.20334L12.576 3.27355L11.3828 4.46678L10.1896 3.27355L9.2598 4.20334L10.453 5.39656L9.36827 6.48132L8.74842 5.86146L7.81863 6.79124L8.43849 7.4111L7.41572 8.43387L6.79586 7.81401L5.86608 8.7438L6.48593 9.36366L5.40118 10.4484L4.20795 9.25518L3.27817 10.185L4.47139 11.3782L3.27817 12.5714L4.20795 13.5012L5.40118 12.308L6.48593 13.3927L5.86608 14.0126L6.79586 14.9424L7.41572 14.3225L8.43849 15.3453L7.81863 15.9651L8.74842 16.8949L9.36827 16.2751L10.453 17.3598L9.2598 18.5531L10.1896 19.4828L11.3828 18.2896L12.576 19.4828L13.5058 18.5531L12.3126 17.3598L13.3974 16.2751L14.0172 16.8949L14.947 15.9651L14.3271 15.3453L15.3499 14.3225L15.9698 14.9424L16.8995 14.0126L16.2797 13.3927L17.3644 12.308L18.5577 13.5012L19.4875 12.5714ZM11.3828 16.43L6.33097 11.3782L11.3828 6.32635L16.4347 11.3782L11.3828 16.43Z"
        fill="#0C0C0C" />
</svg>