<svg width="953" height="953" viewBox="0 0 953 953" fill="none" xmlns="http://www.w3.org/2000/svg">
<path d="M397.908 241.532L476.097 163.344L554.285 241.532L476.095 319.722L397.908 241.532Z" fill="#101010"/>
<path d="M397.908 85.1556L476.097 6.96727L554.285 85.1556L476.097 163.344L397.908 85.1556Z" fill="#101010"/>
<path d="M0.0953492 118.044L118.042 0.0976562L379.209 261.265L261.262 379.211L0.0953492 118.044Z" fill="#101010"/>
<path d="M572.979 690.928L690.925 572.981L952.092 834.149L834.146 952.095L572.979 690.928Z" fill="#101010"/>
<path d="M118.041 952.098L0.0947266 834.152L261.262 572.985L379.208 690.931L118.041 952.098Z" fill="#101010"/>
<path d="M690.927 379.215L572.981 261.268L834.148 0.10079L952.095 118.047L690.927 379.215Z" fill="#101010"/>
<path d="M397.908 710.664L476.095 632.475L554.285 710.664L476.097 788.853L397.908 710.664Z" fill="#101010"/>
<path d="M397.908 867.041L476.097 788.853L554.285 867.041L476.097 945.229L397.908 867.041Z" fill="#101010"/>
<path d="M163.342 476.098L241.531 397.91L319.719 476.098L241.531 554.287L163.342 476.098Z" fill="#101010"/>
<path d="M6.96591 476.098L85.1542 397.91L163.342 476.098L85.1542 554.287L6.96591 476.098Z" fill="#101010"/>
<path d="M632.472 476.098L710.66 397.91L788.848 476.098L710.66 554.287L632.472 476.098Z" fill="#101010"/>
<path d="M788.848 476.098L867.036 397.91L945.225 476.098L867.036 554.287L788.848 476.098Z" fill="#101010"/>
<path d="M365.748 586.673L365.748 365.523L586.898 365.523L586.898 586.673L365.748 586.673Z" fill="#101010"/>
</svg>
