<svg width="289" height="289" viewBox="0 0 289 289" fill="none" xmlns="http://www.w3.org/2000/svg">
<g opacity="0.5">
<path d="M120.765 73.2926L144.501 49.5569L168.236 73.2926L144.5 97.0287L120.765 73.2926Z" fill="#161616"/>
<path d="M120.765 25.8212L144.501 2.08542L168.236 25.8212L144.501 49.5569L120.765 25.8212Z" fill="#161616"/>
<path d="M0.000189026 35.8052L35.8054 0L115.088 79.2829L79.2831 115.088L0.000189026 35.8052Z" fill="#161616"/>
<path d="M173.911 209.716L209.716 173.911L288.999 253.194L253.194 288.999L173.911 209.716Z" fill="#161616"/>
<path d="M35.8052 289L0 253.195L79.2829 173.912L115.088 209.717L35.8052 289Z" fill="#161616"/>
<path d="M209.717 115.089L173.912 79.2839L253.195 0.000951358L289 35.8061L209.717 115.089Z" fill="#161616"/>
<path d="M120.765 215.708L144.5 191.972L168.236 215.708L144.501 239.444L120.765 215.708Z" fill="#161616"/>
<path d="M120.765 263.179L144.501 239.444L168.236 263.179L144.501 286.915L120.765 263.179Z" fill="#161616"/>
<path d="M49.5573 144.5L73.293 120.764L97.0287 144.5L73.293 168.236L49.5573 144.5Z" fill="#161616"/>
<path d="M2.08589 144.5L25.8216 120.764L49.5573 144.5L25.8216 168.236L2.08589 144.5Z" fill="#161616"/>
<path d="M191.972 144.5L215.707 120.764L239.443 144.5L215.707 168.236L191.972 144.5Z" fill="#161616"/>
<path d="M239.443 144.5L263.179 120.764L286.914 144.5L263.179 168.236L239.443 144.5Z" fill="#161616"/>
<path d="M111.002 178.065L111.002 110.931L178.137 110.931L178.137 178.065L111.002 178.065Z" fill="#161616"/>
</g>
</svg>
