<svg width="768" height="673" viewBox="0 0 768 673" fill="none" xmlns="http://www.w3.org/2000/svg">
<g opacity="0.5">
<path d="M-33.7787 307.906C-49.8214 323.701 -50.0579 349.075 -34.3069 364.582C-18.5558 380.089 7.21811 379.857 23.2608 364.062C39.3035 348.268 39.5399 322.893 23.7889 307.386C8.0379 291.879 -17.736 292.112 -33.7787 307.906Z" fill="#161616"/>
<path d="M-73.8054 28.8376C-112.359 66.7943 -112.927 127.775 -75.0746 165.041C-37.2217 202.308 24.7182 201.749 63.2721 163.792C101.826 125.835 102.394 64.8546 64.5414 27.588C26.6885 -9.67857 -35.2515 -9.1191 -73.8054 28.8376Z" fill="#161616"/>
<path d="M-73.7931 508.39C-112.347 546.347 -112.915 607.328 -75.0623 644.594C-37.2094 681.861 24.7305 681.301 63.2844 643.345C101.838 605.388 102.407 544.407 64.5537 507.141C26.7008 469.874 -35.2392 470.434 -73.7931 508.39Z" fill="#161616"/>
<path d="M-316.709 267.205C-355.263 305.162 -355.832 366.143 -317.979 403.409C-280.126 440.676 -218.186 440.116 -179.632 402.16C-141.078 364.203 -140.51 303.222 -178.363 265.956C-216.216 228.689 -278.155 229.249 -316.709 267.205Z" fill="#161616"/>
<path d="M159.813 267.205C121.259 305.162 120.691 366.143 158.544 403.409C196.396 440.676 258.336 440.116 296.89 402.16C335.444 364.203 336.012 303.222 298.16 265.956C260.307 228.689 198.367 229.249 159.813 267.205Z" fill="#161616"/>
<path d="M208.116 169.597C220.075 157.823 220.075 138.734 208.116 126.96C196.157 115.186 176.768 115.186 164.808 126.96L54.9545 235.112C42.9954 246.886 42.9954 265.975 54.9545 277.749C66.9136 289.523 86.3032 289.523 98.2623 277.749L208.116 169.597Z" fill="#161616"/>
<path d="M-64.4138 437.893C-52.4547 426.119 -52.4547 407.03 -64.4138 395.256C-76.373 383.483 -95.7625 383.483 -107.722 395.256L-217.576 503.409C-229.535 515.183 -229.535 534.272 -217.576 546.046C-205.616 557.82 -186.227 557.82 -174.268 546.046L-64.4138 437.893Z" fill="#161616"/>
<path d="M-107.723 277.747C-95.7637 289.521 -76.3742 289.521 -64.415 277.747C-52.4559 265.974 -52.4559 246.884 -64.415 235.11L-174.269 126.958C-186.228 115.184 -205.618 115.184 -217.577 126.958C-229.536 138.732 -229.536 157.821 -217.577 169.595L-107.723 277.747Z" fill="#161616"/>
<path d="M163.751 545.004C175.71 556.778 195.099 556.778 207.059 545.004C219.018 533.23 219.018 514.141 207.059 502.367L97.2047 394.215C85.2456 382.441 65.856 382.441 53.8969 394.215C41.9378 405.989 41.9378 425.078 53.8969 436.852L163.751 545.004Z" fill="#161616"/>
</g>
<g opacity="0.5">
<path fill-rule="evenodd" clip-rule="evenodd" d="M889.76 336.088L774.089 220.417L658.418 336.088L774.089 451.759L889.76 336.088ZM817.787 336.088L774.089 292.39L730.391 336.088L774.089 379.786L817.787 336.088Z" fill="#161616"/>
<path fill-rule="evenodd" clip-rule="evenodd" d="M438 385.57L487.481 336.089L438 286.607L476.557 248.05L526.038 297.532L571.022 252.549L545.317 226.844L583.874 188.287L609.579 213.992L651.991 171.579L626.287 145.874L664.844 107.317L690.549 133.022L735.532 88.0386L686.05 38.557L724.607 0L774.089 49.4815L823.57 0L862.127 38.557L812.646 88.0386L857.629 133.022L883.334 107.317L921.891 145.874L896.186 171.579L938.599 213.992L964.304 188.287L1002.86 226.844L977.156 252.549L1022.14 297.532L1071.62 248.05L1110.18 286.607L1060.7 336.089L1110.18 385.57L1071.62 424.128L1022.14 374.646L977.156 419.629L1002.86 445.334L964.304 483.891L938.599 458.186L896.186 500.599L921.891 526.304L883.334 564.861L857.629 539.156L812.646 584.139L862.127 633.621L823.57 672.178L774.089 622.696L724.607 672.178L686.05 633.621L735.532 584.139L690.549 539.156L664.844 564.861L626.287 526.304L651.991 500.599L609.579 458.186L583.874 483.891L545.317 445.334L571.022 419.629L526.038 374.646L476.557 424.128L438 385.57ZM774.089 545.582L983.582 336.089L774.089 126.596L564.596 336.089L774.089 545.582Z" fill="#161616"/>
</g>
</svg>
