<svg width="1920" height="724" viewBox="0 0 1920 724" fill="none" xmlns="http://www.w3.org/2000/svg">
<g opacity="0.5">
<path d="M-26.028 331.329C-43.291 348.324 -43.5455 375.629 -26.5963 392.316C-9.64706 409.003 18.0875 408.752 35.3506 391.756C52.6136 374.761 52.868 347.456 35.9189 330.769C18.9696 314.082 -8.76486 314.333 -26.028 331.329Z" fill="#161616"/>
<path d="M-69.0994 31.0313C-110.586 71.8754 -111.198 137.495 -70.4651 177.596C-29.7328 217.698 36.9189 217.096 78.4055 176.251C119.892 135.407 120.504 69.7881 79.7713 29.6866C39.039 -10.4148 -27.6127 -9.81279 -69.0994 31.0313Z" fill="#161616"/>
<path d="M-69.0862 547.063C-110.573 587.908 -111.184 653.527 -70.452 693.628C-29.7196 733.73 36.9321 733.128 78.4188 692.284C119.905 651.439 120.517 585.82 79.7846 545.719C39.0522 505.617 -27.5995 506.219 -69.0862 547.063Z" fill="#161616"/>
<path d="M-330.481 287.531C-371.968 328.375 -372.579 393.995 -331.847 434.096C-291.114 474.198 -224.463 473.596 -182.976 432.752C-141.489 391.908 -140.878 326.288 -181.61 286.187C-222.343 246.085 -288.994 246.687 -330.481 287.531Z" fill="#161616"/>
<path d="M182.29 287.531C140.803 328.375 140.192 393.995 180.924 434.096C221.657 474.198 288.308 473.596 329.795 432.752C371.282 391.908 371.893 326.288 331.161 286.187C290.428 246.085 223.777 246.687 182.29 287.531Z" fill="#161616"/>
<path d="M234.268 182.498C247.137 169.828 247.137 149.287 234.268 136.618C221.399 123.948 200.534 123.948 187.666 136.618L69.4551 252.997C56.5863 265.667 56.5863 286.208 69.4552 298.877C82.324 311.547 103.189 311.547 116.057 298.877L234.268 182.498Z" fill="#161616"/>
<path d="M-58.9934 471.204C-46.1246 458.534 -46.1246 437.993 -58.9934 425.323C-71.8623 412.654 -92.7268 412.654 -105.596 425.323L-223.806 541.703C-236.675 554.372 -236.675 574.914 -223.806 587.583C-210.937 600.253 -190.073 600.253 -177.204 587.583L-58.9934 471.204Z" fill="#161616"/>
<path d="M-105.597 298.875C-92.7281 311.545 -71.8636 311.545 -58.9948 298.875C-46.1259 286.206 -46.1259 265.665 -58.9948 252.995L-177.205 136.616C-190.074 123.946 -210.939 123.946 -223.807 136.616C-236.676 149.285 -236.676 169.827 -223.807 182.496L-105.597 298.875Z" fill="#161616"/>
<path d="M186.528 586.462C199.396 599.132 220.261 599.132 233.13 586.462C245.999 573.793 245.999 553.251 233.13 540.582L114.919 424.202C102.05 411.533 81.186 411.533 68.3172 424.202C55.4483 436.872 55.4483 457.413 68.3172 470.083L186.528 586.462Z" fill="#161616"/>
</g>
<g opacity="0.5">
<path fill-rule="evenodd" clip-rule="evenodd" d="M2044.13 361.654L1919.66 237.184L1795.19 361.654L1919.66 486.124L2044.13 361.654ZM1966.68 361.654L1919.66 314.632L1872.64 361.654L1919.66 408.676L1966.68 361.654Z" fill="#161616"/>
<path fill-rule="evenodd" clip-rule="evenodd" d="M1558.01 414.901L1611.25 361.655L1558.01 308.409L1599.5 266.919L1652.74 320.165L1701.15 271.76L1673.49 244.1L1714.98 202.61L1742.64 230.27L1788.28 184.631L1760.62 156.971L1802.11 115.481L1829.77 143.141L1878.17 94.7356L1824.92 41.4901L1866.41 0L1919.66 53.2456L1972.91 0L2014.4 41.4901L1961.15 94.7356L2009.56 143.141L2037.22 115.481L2078.71 156.971L2051.05 184.631L2096.68 230.27L2124.34 202.61L2165.83 244.1L2138.17 271.76L2186.58 320.165L2239.83 266.919L2281.32 308.409L2228.07 361.655L2281.32 414.901L2239.83 456.391L2186.58 403.145L2138.17 451.55L2165.83 479.21L2124.34 520.7L2096.68 493.04L2051.05 538.679L2078.71 566.339L2037.22 607.829L2009.56 580.169L1961.15 628.574L2014.4 681.82L1972.91 723.31L1919.66 670.065L1866.41 723.31L1824.92 681.82L1878.17 628.574L1829.77 580.169L1802.11 607.829L1760.62 566.339L1788.28 538.679L1742.64 493.04L1714.98 520.7L1673.49 479.21L1701.15 451.55L1652.74 403.145L1599.5 456.391L1558.01 414.901ZM1919.66 587.084L2145.09 361.655L1919.66 136.226L1694.23 361.655L1919.66 587.084Z" fill="#161616"/>
</g>
</svg>
