<svg width="152" height="60" viewBox="0 0 152 60" fill="none" xmlns="http://www.w3.org/2000/svg">
<path d="M68.2411 14.6689C68.6864 14.5576 69.1502 14.502 69.6327 14.502C71.4138 14.502 72.7869 15.0957 73.7517 16.2831C74.3825 17.0253 74.7536 17.8974 74.8649 18.8993C75.0133 19.8641 75.0876 22.4802 75.0876 26.7477V34.4291H71.2469C71.2469 32.4994 71.2283 29.605 71.1912 25.7457C71.1541 21.8494 71.1355 18.9178 71.1355 16.9511L70.5789 16.5058C70.282 16.3203 70.0408 16.2275 69.8553 16.2275C69.2987 16.2275 68.8534 16.5429 68.5194 17.1737C68.3339 17.619 68.2411 24.2057 68.2411 36.9339V41.7208C68.2411 49.2538 68.2782 53.6882 68.3524 55.0241C68.4637 56.3971 68.7606 57.1578 69.243 57.3063C69.3172 57.3434 69.3729 57.3619 69.41 57.3619C69.4471 57.3619 69.4842 57.3619 69.5213 57.3619C69.5955 57.399 69.6512 57.4176 69.6883 57.4176C70.4676 57.4176 70.95 57.1578 71.1355 56.6383C71.2098 56.4157 71.2469 53.4656 71.2469 47.788V39.3273H75.0876L75.0319 47.3427C74.9948 52.6492 74.8278 55.5993 74.5309 56.193C73.5661 58.1597 71.9705 59.1431 69.744 59.1431C67.5917 59.1431 66.0517 58.1783 65.124 56.2487C64.9756 55.9518 64.8828 55.6178 64.8457 55.2468C64.8086 54.9128 64.7715 54.0407 64.7344 52.6306C64.6973 51.1834 64.6787 48.8827 64.6787 45.7285V36.5442L64.7344 17.786L65.458 16.7841C66.2373 15.708 67.165 15.0029 68.2411 14.6689Z" fill="white"/>
<path d="M85.4339 16.7284C85.1742 16.4687 84.8588 16.3388 84.4877 16.3388C84.0795 16.3388 83.7455 16.4687 83.4858 16.7284C83.3744 16.8398 83.3002 16.9696 83.2631 17.1181C83.226 17.2665 83.1889 17.7118 83.1518 18.454C83.1147 19.159 83.0961 20.161 83.0961 21.4597C83.0961 22.7585 83.0961 24.7067 83.0961 27.3043V46.1181C83.0961 48.7157 83.0961 50.6639 83.0961 51.9627C83.0961 53.2615 83.1147 54.2634 83.1518 54.9684C83.1889 55.7106 83.226 56.1559 83.2631 56.3043C83.3002 56.4528 83.3744 56.5826 83.4858 56.694C83.7826 56.9908 84.1166 57.1393 84.4877 57.1393C84.8216 57.1393 85.1371 56.9908 85.4339 56.694C85.5453 56.5826 85.6195 56.4528 85.6566 56.3043C85.6937 56.1559 85.7308 55.7106 85.7679 54.9684C85.805 54.2634 85.8236 53.2615 85.8236 51.9627C85.8236 50.6639 85.8236 48.7157 85.8236 46.1181V27.3043C85.8236 24.7067 85.8236 22.7585 85.8236 21.4597C85.8236 20.161 85.805 19.159 85.7679 18.454C85.7308 17.7118 85.6937 17.2665 85.6566 17.1181C85.6195 16.9696 85.5453 16.8398 85.4339 16.7284ZM83.0405 14.7246C83.7084 14.5762 84.1908 14.502 84.4877 14.502C86.5657 14.502 88.1057 15.4668 89.1076 17.3964L89.6643 18.454V55.0798L89.052 56.1373C88.0501 57.9557 86.5101 58.8648 84.432 58.8648C82.3911 58.8648 80.8696 57.9557 79.8677 56.1373L79.2554 55.0798V18.3427L79.8677 17.2851C80.6099 15.9121 81.6674 15.0586 83.0405 14.7246Z" fill="white"/>
<path d="M97.2808 14.9163H104.081V58.8895H100.463V16.9314H98.9948C98.023 24.2198 95.3506 47.9069 94.1359 58.8394H92.3137C93.2784 49.0789 95.7069 26.0895 97.2808 14.9163Z" fill="white"/>
<path d="M114.284 16.7284C114.024 16.4687 113.708 16.3388 113.337 16.3388C112.929 16.3388 112.595 16.4687 112.335 16.7284C112.224 16.8398 112.15 16.9696 112.113 17.1181C112.076 17.2665 112.039 17.7118 112.002 18.454C111.964 19.159 111.946 20.161 111.946 21.4597C111.946 22.7585 111.946 24.7067 111.946 27.3043V46.1181C111.946 48.7157 111.946 50.6639 111.946 51.9627C111.946 53.2615 111.964 54.2634 112.002 54.9684C112.039 55.7106 112.076 56.1559 112.113 56.3043C112.15 56.4528 112.224 56.5826 112.335 56.694C112.632 56.9908 112.966 57.1393 113.337 57.1393C113.671 57.1393 113.987 56.9908 114.284 56.694C114.395 56.5826 114.469 56.4528 114.506 56.3043C114.543 56.1559 114.581 55.7106 114.618 54.9684C114.655 54.2634 114.673 53.2615 114.673 51.9627C114.673 50.6639 114.673 48.7157 114.673 46.1181V27.3043C114.673 24.7067 114.673 22.7585 114.673 21.4597C114.673 20.161 114.655 19.159 114.618 18.454C114.581 17.7118 114.543 17.2665 114.506 17.1181C114.469 16.9696 114.395 16.8398 114.284 16.7284ZM111.89 14.7246C112.558 14.5762 113.041 14.502 113.337 14.502C115.415 14.502 116.955 15.4668 117.957 17.3964L118.514 18.454V55.0798L117.902 56.1373C116.9 57.9557 115.36 58.8648 113.282 58.8648C111.241 58.8648 109.719 57.9557 108.717 56.1373L108.105 55.0798V18.3427L108.717 17.2851C109.46 15.9121 110.517 15.0586 111.89 14.7246Z" fill="white"/>
<path d="M122.682 58.6668V14.9163H124.407C125.521 14.9163 126.077 15.0461 126.077 15.3059C126.077 15.5285 126.727 21.3545 128.025 32.7838C129.324 44.1761 130.011 49.8722 130.085 49.8722C130.27 49.8722 130.976 44.2688 132.2 33.0622C133.536 21.4844 134.241 15.5656 134.315 15.3059C134.427 15.0461 135.02 14.9163 136.096 14.9163H137.766V58.6668H133.926V46.4211L133.814 34.1197L132.478 46.0315C131.625 53.8984 131.489 56.1063 131.185 57.9284C131.061 58.672 130.881 58.6668 130.141 58.6668C129.363 58.6668 129.144 58.6668 129.059 57.9284C128.849 56.1063 128.489 51.7647 127.747 45.3079L126.411 33.5075C126.411 36.2906 126.393 40.4838 126.356 46.0871C126.318 51.6534 126.3 55.8466 126.3 58.6668H122.682Z" fill="white"/>
<path d="M147.992 16.6728C147.733 16.413 147.38 16.2831 146.935 16.2831C146.489 16.2831 146.137 16.413 145.877 16.6728C145.692 16.8583 145.562 17.3036 145.487 18.0087C145.45 18.7137 145.432 20.5506 145.432 23.5192V29.8647H148.382V23.5192C148.382 20.4022 148.363 18.5282 148.326 17.8974C148.289 17.2665 148.178 16.8583 147.992 16.6728ZM145.766 14.6133C145.988 14.5391 146.341 14.502 146.823 14.502C147.825 14.502 148.772 14.7803 149.662 15.3369C150.553 15.8564 151.202 16.5615 151.61 17.4521C151.796 17.8602 151.907 19.0292 151.944 20.9588C151.981 22.8884 152 28.7701 152 38.6037V58.9761H148.382V31.5903H145.432V58.9761H141.814V30.9223C141.814 22.8327 141.944 18.3427 142.203 17.4521C142.352 17.0439 142.667 16.5986 143.15 16.1162C143.855 15.374 144.727 14.873 145.766 14.6133Z" fill="white"/>
<path d="M18.6523 25.8974L22.3187 22.231L25.9851 25.8974L22.3187 29.5639L18.6523 25.8974Z" fill="white"/>
<path d="M18.6523 18.5646L22.3187 14.8982L25.9851 18.5646L22.3187 22.231L18.6523 18.5646Z" fill="white"/>
<path d="M-0.00192393 20.1068L5.52882 14.576L17.7755 26.8227L12.2447 32.3534L-0.00192393 20.1068Z" fill="white"/>
<path d="M26.8617 46.9705L32.3925 41.4397L44.6391 53.6864L39.1084 59.2171L26.8617 46.9705Z" fill="white"/>
<path d="M5.52879 59.2172L-0.00195312 53.6865L12.2447 41.4399L17.7754 46.9706L5.52879 59.2172Z" fill="white"/>
<path d="M32.3926 32.3536L26.8618 26.8228L39.1085 14.5762L44.6392 20.1069L32.3926 32.3536Z" fill="white"/>
<path d="M18.6523 47.8959L22.3187 44.2295L25.9851 47.8959L22.3187 51.5623L18.6523 47.8959Z" fill="white"/>
<path d="M18.6523 55.2287L22.3187 51.5623L25.9851 55.2287L22.3187 58.8952L18.6523 55.2287Z" fill="white"/>
<path d="M7.65305 36.8967L11.3195 33.2303L14.9858 36.8967L11.3195 40.5631L7.65305 36.8967Z" fill="white"/>
<path d="M0.32025 36.8967L3.98666 33.2303L7.65305 36.8967L3.98666 40.5631L0.32025 36.8967Z" fill="white"/>
<path d="M29.6515 36.8967L33.3179 33.2303L36.9843 36.8967L33.3179 40.5631L29.6515 36.8967Z" fill="white"/>
<path d="M36.9843 36.8967L40.6507 33.2303L44.3171 36.8967L40.6507 40.5631L36.9843 36.8967Z" fill="white"/>
<path d="M22.3291 42.0814C19.4655 42.0814 17.1441 39.76 17.1441 36.8964C17.1441 34.0327 19.4655 31.7113 22.3291 31.7113C25.1928 31.7113 27.5142 34.0327 27.5142 36.8964C27.5142 39.76 25.1928 42.0814 22.3291 42.0814Z" fill="white"/>
<path d="M116.228 2.36465L116.063 2.43339C115.916 2.25008 115.756 2.06678 115.581 1.88347C115.426 1.72766 115.247 1.5581 115.045 1.3748C114.853 1.19149 114.642 1.01735 114.413 0.852373C114.101 0.696563 113.735 0.581997 113.313 0.508674C112.891 0.435352 112.47 0.403273 112.048 0.412439C111.627 0.412439 111.232 0.453683 110.866 0.536171C110.508 0.609493 110.238 0.714894 110.055 0.852373V9.0874C110.055 9.19738 110.087 9.2982 110.151 9.38985C110.224 9.47234 110.316 9.52275 110.426 9.54108L110.783 9.60982V9.7198H108.103V9.60982L108.46 9.54108C108.57 9.52275 108.657 9.47234 108.721 9.38985C108.795 9.2982 108.831 9.19738 108.831 9.0874V0.852373C108.831 0.74239 108.795 0.646154 108.721 0.563666C108.657 0.472013 108.57 0.417021 108.46 0.39869L108.103 0.329951V0.219968H115.691L116.228 2.36465Z" fill="white"/>
<path d="M120.279 0C120.801 0 121.282 0.0687397 121.722 0.206219C122.162 0.334533 122.52 0.522422 122.795 0.769885C123.07 1.00818 123.244 1.29689 123.317 1.63601C123.399 1.97512 123.345 2.35548 123.152 2.77709C123.005 3.09787 122.813 3.34075 122.575 3.50573C122.336 3.66154 122.075 3.76236 121.791 3.80818C121.507 3.84484 121.209 3.83568 120.897 3.78069C120.586 3.71653 120.283 3.62488 119.99 3.50573C119.697 3.38658 119.426 3.24452 119.179 3.07954C118.931 2.91457 118.725 2.74959 118.56 2.58462V9.0874C118.56 9.19738 118.592 9.2982 118.656 9.38985C118.73 9.47234 118.821 9.52275 118.931 9.54108L119.289 9.60982V9.7198H116.608V9.60982L116.965 9.54108C117.075 9.52275 117.163 9.47234 117.227 9.38985C117.3 9.2982 117.337 9.19738 117.337 9.0874V0.852373C117.337 0.74239 117.3 0.646154 117.227 0.563666C117.163 0.472013 117.075 0.417021 116.965 0.39869L116.608 0.329951V0.219968H116.965C117.36 0.219968 117.703 0.210802 117.997 0.192471C118.299 0.164975 118.574 0.137479 118.821 0.109984C119.069 0.0824877 119.303 0.0595745 119.523 0.0412441C119.752 0.013748 119.999 0 120.265 0H120.279ZM122.176 2.11718C122.222 1.81473 122.199 1.55352 122.107 1.33355C122.016 1.10442 121.878 0.91653 121.695 0.769885C121.511 0.623241 121.291 0.513257 121.035 0.439935C120.787 0.357447 120.522 0.307038 120.237 0.288707C119.953 0.261211 119.669 0.261211 119.385 0.288707C119.101 0.316203 118.835 0.362029 118.588 0.426187V2.14468C118.789 2.4838 119.073 2.75417 119.44 2.95581C119.816 3.15745 120.196 3.27201 120.581 3.29951C120.966 3.31784 121.31 3.23535 121.612 3.05205C121.924 2.85957 122.112 2.54337 122.176 2.10344V2.11718Z" fill="white"/>
<path d="M132.239 0.219968V0.329951L131.785 0.384943C131.574 0.412439 131.386 0.490344 131.221 0.618658C131.056 0.737807 130.928 0.889034 130.836 1.07234L127.179 8.90867C127.051 9.17447 126.895 9.38985 126.712 9.55483C126.529 9.7198 126.295 9.80229 126.011 9.80229C125.708 9.80229 125.466 9.76105 125.282 9.67856C125.108 9.59607 124.971 9.49525 124.87 9.3761C124.778 9.25695 124.719 9.13322 124.691 9.00491C124.664 8.87659 124.654 8.76661 124.664 8.67496C124.682 8.47332 124.755 8.30376 124.884 8.16628C125.021 8.01964 125.191 7.9509 125.392 7.96006C125.576 7.96923 125.731 8.03797 125.86 8.16628C125.997 8.2946 126.07 8.45041 126.08 8.63371C126.098 9.00949 125.938 9.23404 125.598 9.30736C125.653 9.38069 125.736 9.4311 125.846 9.45859C125.956 9.47692 126.07 9.46776 126.19 9.4311C126.318 9.38527 126.442 9.31195 126.561 9.21113C126.68 9.10114 126.785 8.9545 126.877 8.77119L128.417 5.48543H127.193L124.719 1.09984C124.609 0.8982 124.457 0.733224 124.265 0.60491C124.082 0.476596 123.875 0.394108 123.646 0.357447L123.426 0.329951V0.219968H126.726V0.329951L126.19 0.384943C126.08 0.403273 125.997 0.462848 125.942 0.563666C125.896 0.655319 125.901 0.751555 125.956 0.852373L128.485 5.33421L130.534 0.948609C130.589 0.820294 130.58 0.701145 130.506 0.591162C130.442 0.481178 130.346 0.417021 130.218 0.39869L129.517 0.329951V0.219968H132.239Z" fill="white"/>
<path d="M134.611 0.39869C134.501 0.417021 134.409 0.472013 134.336 0.563666C134.272 0.646154 134.239 0.74239 134.239 0.852373V9.0874C134.239 9.19738 134.272 9.2982 134.336 9.38985C134.409 9.47234 134.501 9.52275 134.611 9.54108L134.968 9.60982V9.7198H132.287V9.60982L132.645 9.54108C132.755 9.52275 132.842 9.47234 132.906 9.38985C132.979 9.2982 133.016 9.19738 133.016 9.0874V0.852373C133.016 0.74239 132.979 0.646154 132.906 0.563666C132.842 0.472013 132.755 0.417021 132.645 0.39869L132.287 0.329951V0.219968H141.76V0.329951L141.402 0.39869H141.375C141.265 0.417021 141.173 0.472013 141.1 0.563666C141.036 0.646154 141.003 0.74239 141.003 0.852373V9.0874C141.003 9.19738 141.036 9.2982 141.1 9.38985C141.173 9.47234 141.265 9.52275 141.375 9.54108L141.732 9.60982V9.7198H139.051V9.60982L139.409 9.54108C139.519 9.52275 139.606 9.47234 139.67 9.38985C139.743 9.2982 139.78 9.19738 139.78 9.0874L139.807 0.852373C139.807 0.74239 139.771 0.646154 139.697 0.563666C139.633 0.472013 139.546 0.417021 139.436 0.39869H134.611Z" fill="white"/>
<path d="M144.647 0.39869C144.537 0.417021 144.445 0.472013 144.372 0.563666C144.308 0.646154 144.275 0.74239 144.275 0.852373V9.0874C144.275 9.19738 144.308 9.2982 144.372 9.38985C144.445 9.47234 144.537 9.52275 144.647 9.54108L145.004 9.60982V9.7198H142.323V9.60982L142.681 9.54108C142.791 9.52275 142.878 9.47234 142.942 9.38985C143.015 9.2982 143.052 9.19738 143.052 9.0874V0.852373C143.052 0.74239 143.015 0.646154 142.942 0.563666C142.878 0.472013 142.791 0.417021 142.681 0.39869L142.323 0.329951V0.219968H151.796V0.329951L151.438 0.39869H151.411C151.301 0.417021 151.209 0.472013 151.136 0.563666C151.072 0.646154 151.039 0.74239 151.039 0.852373V9.0874C151.039 9.19738 151.072 9.2982 151.136 9.38985C151.209 9.47234 151.301 9.52275 151.411 9.54108L151.768 9.60982V9.7198H149.087V9.60982L149.445 9.54108C149.555 9.52275 149.642 9.47234 149.706 9.38985C149.779 9.2982 149.816 9.19738 149.816 9.0874L149.843 0.852373C149.843 0.74239 149.807 0.646154 149.733 0.563666C149.669 0.472013 149.582 0.417021 149.472 0.39869H144.647Z" fill="white"/>
</svg>
