<svg width="175" height="175" viewBox="0 0 175 175" fill="none" xmlns="http://www.w3.org/2000/svg">
<path fill-rule="evenodd" clip-rule="evenodd" d="M57.3853 87.5091L87.5 57.3944L117.615 87.5091L87.5 117.624L57.3853 87.5091ZM76.1233 87.5091L87.5 76.1325L98.8767 87.5091L87.5 98.8858L76.1233 87.5091Z" fill="#141414"/>
<path fill-rule="evenodd" clip-rule="evenodd" d="M175 100.391L162.118 87.509L175 74.6266L164.962 64.5884L152.079 77.4708L140.368 65.7595L147.06 59.0674L137.022 49.0291L130.33 55.7213L119.288 44.6792L125.98 37.987L115.942 27.9488L109.25 34.641L97.5382 22.9297L110.421 10.0473L100.382 0.0090332L87.5 12.8914L74.6176 0.0090332L64.5793 10.0473L77.4618 22.9297L65.7505 34.641L59.0583 27.9488L49.0201 37.987L55.7122 44.6792L44.6702 55.7213L37.978 49.0291L27.9398 59.0674L34.6319 65.7595L22.9206 77.4708L10.0382 64.5884L0 74.6266L12.8824 87.509L0 100.391L10.0382 110.43L22.9206 97.5473L34.6319 109.259L27.9398 115.951L37.978 125.989L44.6702 119.297L55.7122 130.339L49.0201 137.031L59.0583 147.069L65.7505 140.377L77.4618 152.088L64.5793 164.971L74.6176 175.009L87.5 162.127L100.382 175.009L110.421 164.971L97.5382 152.088L109.25 140.377L115.942 147.069L125.98 137.031L119.288 130.339L130.33 119.297L137.022 125.989L147.06 115.951L140.368 109.259L152.079 97.5473L164.962 110.43L175 100.391ZM87.5 142.05L32.9589 87.509L87.5 32.9679L142.041 87.509L87.5 142.05Z" fill="#141414"/>
</svg>
