<svg width="285" height="230" viewBox="0 0 285 230" fill="none" xmlns="http://www.w3.org/2000/svg">
<g clip-path="url(#clip0_4036_601)">
<path d="M172.238 -5.00355L201.847 -34.6134L231.457 -5.00355L201.847 24.6067L172.238 -5.00355Z" fill="#101010"/>
<path d="M172.238 -64.2232L201.847 -93.8331L231.457 -64.2232L201.847 -34.6134L172.238 -64.2232Z" fill="#101010"/>
<path d="M21.5862 -51.7683L66.2524 -96.4346L165.156 2.46923L120.49 47.1355L21.5862 -51.7683Z" fill="#101010"/>
<path d="M238.537 165.182L283.203 120.516L382.107 219.42L337.44 264.086L238.537 165.182Z" fill="#101010"/>
<path d="M66.2521 264.087L21.5859 219.421L120.49 120.517L165.156 165.183L66.2521 264.087Z" fill="#101010"/>
<path d="M283.204 47.1367L238.537 2.47041L337.441 -96.4334L382.107 -51.7671L283.204 47.1367Z" fill="#101010"/>
<path d="M172.238 172.656L201.847 143.046L231.457 172.656L201.847 202.266L172.238 172.656Z" fill="#101010"/>
<path d="M172.238 231.876L201.847 202.266L231.457 231.876L201.847 261.486L172.238 231.876Z" fill="#101010"/>
<path d="M83.4076 83.8264L113.017 54.2166L142.627 83.8264L113.017 113.436L83.4076 83.8264Z" fill="#101010"/>
<path d="M24.188 83.8264L53.7979 54.2166L83.4076 83.8264L53.7979 113.436L24.188 83.8264Z" fill="#101010"/>
<path d="M261.067 83.8264L290.676 54.2166L320.286 83.8264L290.676 113.436L261.067 83.8264Z" fill="#101010"/>
<path d="M320.286 83.8264L349.896 54.2166L379.506 83.8264L349.896 113.436L320.286 83.8264Z" fill="#101010"/>
<path d="M201.933 125.701C178.806 125.701 160.058 106.953 160.058 83.8262V83.8262C160.058 60.6995 178.806 41.9515 201.933 41.9515V41.9515C225.06 41.9515 243.808 60.6995 243.808 83.8262V83.8262C243.808 106.953 225.06 125.701 201.933 125.701V125.701Z" fill="#101010"/>
</g>
<defs>
<clipPath id="clip0_4036_601">
<rect width="285" height="230" fill="white"/>
</clipPath>
</defs>
</svg>
