<svg xmlns="http://www.w3.org/2000/svg" width="33" height="33" viewBox="0 0 33 33" fill="none">
    <path d="M14.1781 8.74136L16.8227 6.09675L19.4673 8.74136L16.8227 11.386L14.1781 8.74136Z" fill="white" />
    <path d="M14.1781 3.45215L16.8227 0.80755L19.4673 3.45215L16.8227 6.09675L14.1781 3.45215Z" fill="white" />
    <path d="M0.722677 4.56456L4.71204 0.575195L13.5456 9.40879L9.55626 13.3982L0.722677 4.56456Z" fill="white" />
    <path d="M20.0996 23.9415L24.089 19.9521L32.9226 28.7857L28.9332 32.7751L20.0996 23.9415Z" fill="white" />
    <path d="M4.71202 32.7752L0.722656 28.7858L9.55624 19.9522L13.5456 23.9416L4.71202 32.7752Z" fill="white" />
    <path d="M24.089 13.3983L20.0997 9.40889L28.9333 0.575301L32.9226 4.56467L24.089 13.3983Z" fill="white" />
    <path d="M14.1781 24.6091L16.8227 21.9644L19.4673 24.6091L16.8227 27.2537L14.1781 24.6091Z" fill="white" />
    <path d="M14.1781 29.8983L16.8227 27.2537L19.4673 29.8983L16.8227 32.5429L14.1781 29.8983Z" fill="white" />
    <path d="M6.24426 16.6752L8.88886 14.0306L11.5335 16.6752L8.88886 19.3198L6.24426 16.6752Z" fill="white" />
    <path d="M0.955064 16.6752L3.59967 14.0306L6.24426 16.6752L3.59967 19.3198L0.955064 16.6752Z" fill="white" />
    <path d="M22.1119 16.6752L24.7565 14.0306L27.4011 16.6752L24.7565 19.3198L22.1119 16.6752Z" fill="white" />
    <path d="M27.4011 16.6752L30.0457 14.0306L32.6903 16.6752L30.0457 19.3198L27.4011 16.6752Z" fill="white" />
    <path
        d="M16.8238 20.4148C14.7583 20.4148 13.0838 18.7404 13.0838 16.6748C13.0838 14.6092 14.7583 12.9348 16.8238 12.9348C18.8894 12.9348 20.5639 14.6092 20.5639 16.6748C20.5639 18.7404 18.8894 20.4148 16.8238 20.4148Z"
        fill="white" />
</svg>