<svg width="674" height="540" viewBox="0 0 674 540" fill="none" xmlns="http://www.w3.org/2000/svg">
<g clip-path="url(#clip0_4033_12355)">
<path d="M407.048 -11.8178L476.983 -81.753L546.918 -11.8178L476.982 58.1183L407.048 -11.8178Z" fill="#101010"/>
<path d="M407.048 -151.688L476.983 -221.623L546.918 -151.688L476.983 -81.753L407.048 -151.688Z" fill="#101010"/>
<path d="M51.2266 -122.271L156.723 -227.768L390.323 5.83203L284.826 111.329L51.2266 -122.271Z" fill="#101010"/>
<path d="M563.639 390.142L669.136 284.645L902.735 518.245L797.238 623.741L563.639 390.142Z" fill="#101010"/>
<path d="M156.723 623.744L51.2261 518.248L284.826 284.648L390.322 390.145L156.723 623.744Z" fill="#101010"/>
<path d="M669.138 111.331L563.641 5.83483L797.24 -227.765L902.737 -122.268L669.138 111.331Z" fill="#101010"/>
<path d="M407.048 407.795L476.982 337.859L546.918 407.795L476.983 477.73L407.048 407.795Z" fill="#101010"/>
<path d="M407.048 547.665L476.983 477.73L546.918 547.665L476.983 617.6L407.048 547.665Z" fill="#101010"/>
<path d="M197.242 197.989L267.177 128.053L337.112 197.989L267.177 267.924L197.242 197.989Z" fill="#101010"/>
<path d="M57.372 197.989L127.307 128.053L197.242 197.989L127.307 267.924L57.372 197.989Z" fill="#101010"/>
<path d="M616.852 197.989L686.787 128.053L756.722 197.989L686.787 267.924L616.852 197.989Z" fill="#101010"/>
<path d="M756.722 197.989L826.657 128.053L896.592 197.989L826.657 267.924L756.722 197.989Z" fill="#101010"/>
<path d="M477.185 296.892C422.562 296.892 378.282 252.611 378.282 197.988V197.988C378.282 143.366 422.562 99.0851 477.185 99.0851V99.0851C531.808 99.0851 576.088 143.366 576.088 197.988V197.988C576.088 252.611 531.808 296.892 477.185 296.892V296.892Z" fill="#101010"/>
</g>
<defs>
<clipPath id="clip0_4033_12355">
<rect width="673.517" height="539.35" fill="white" transform="translate(0.241699)"/>
</clipPath>
</defs>
</svg>
