<svg width="344" height="400" viewBox="0 0 344 400" fill="none" xmlns="http://www.w3.org/2000/svg">
<g clip-path="url(#clip0_4033_12384)">
<path d="M184.663 -5.0617L215.721 -36.1199L246.779 -5.0617L215.721 25.9969L184.663 -5.0617Z" fill="#101010"/>
<path d="M184.663 -67.1779L215.721 -98.2361L246.779 -67.1779L215.721 -36.1199L184.663 -67.1779Z" fill="#101010"/>
<path d="M26.6428 -54.1139L73.4938 -100.965L177.235 2.77659L130.384 49.6276L26.6428 -54.1139Z" fill="#101010"/>
<path d="M254.205 173.448L301.056 126.597L404.797 230.339L357.946 277.19L254.205 173.448Z" fill="#101010"/>
<path d="M73.4935 277.191L26.6426 230.34L130.384 126.599L177.235 173.45L73.4935 277.191Z" fill="#101010"/>
<path d="M301.057 49.6288L254.206 2.77784L357.947 -100.964L404.798 -54.1126L301.057 49.6288Z" fill="#101010"/>
<path d="M184.663 181.288L215.721 150.23L246.779 181.288L215.721 212.346L184.663 181.288Z" fill="#101010"/>
<path d="M184.663 243.404L215.721 212.346L246.779 243.404L215.721 274.462L184.663 243.404Z" fill="#101010"/>
<path d="M91.4881 88.1132L122.546 57.055L153.604 88.1132L122.546 119.171L91.4881 88.1132Z" fill="#101010"/>
<path d="M29.372 88.1132L60.4301 57.055L91.4881 88.1132L60.4301 119.171L29.372 88.1132Z" fill="#101010"/>
<path d="M277.837 88.1132L308.895 57.055L339.953 88.1132L308.895 119.171L277.837 88.1132Z" fill="#101010"/>
<path d="M339.953 88.1132L371.011 57.055L402.069 88.1132L371.011 119.171L339.953 88.1132Z" fill="#101010"/>
<path d="M215.81 132.036C191.552 132.036 171.887 112.371 171.887 88.1133V88.1133C171.887 63.8554 191.552 44.1904 215.81 44.1904V44.1904C240.068 44.1905 259.733 63.8554 259.733 88.1133V88.1133C259.733 112.371 240.068 132.036 215.81 132.036V132.036Z" fill="#101010"/>
</g>
<defs>
<clipPath id="clip0_4033_12384">
<rect width="344" height="400" fill="white"/>
</clipPath>
</defs>
</svg>
