<svg width="21" height="21" viewBox="0 0 21 21" fill="none" xmlns="http://www.w3.org/2000/svg">
    <path fill-rule="evenodd" clip-rule="evenodd"
        d="M7.69898 10.608L10.7201 7.58691L13.7412 10.608L10.7201 13.6291L7.69898 10.608ZM9.57879 10.608L10.7201 9.46671L11.8614 10.608L10.7201 11.7493L9.57879 10.608Z"
        fill="#0C0C0C" />
    <path fill-rule="evenodd" clip-rule="evenodd"
        d="M19.4981 11.8998L18.2057 10.6075L19.4981 9.31511L18.4911 8.30807L17.1987 9.60043L16.0238 8.42556L16.6952 7.7542L15.6881 6.74717L15.0168 7.41852L13.909 6.31078L14.5804 5.63943L13.5734 4.63239L12.902 5.30375L11.7271 4.12887L13.0195 2.83651L12.0125 1.82947L10.7201 3.12184L9.42773 1.82947L8.42069 2.83651L9.71306 4.12887L8.53818 5.30375L7.86682 4.63239L6.85979 5.63943L7.53115 6.31078L6.42341 7.41852L5.75205 6.74717L4.74501 7.7542L5.41637 8.42556L4.24149 9.60043L2.94913 8.30807L1.94209 9.31511L3.23446 10.6075L1.9421 11.8998L2.94913 12.9069L4.24149 11.6145L5.41637 12.7894L4.74501 13.4607L5.75205 14.4678L6.42341 13.7964L7.53114 14.9042L6.85979 15.5755L7.86682 16.5826L8.53818 15.9112L9.71306 17.0861L8.42069 18.3784L9.42773 19.3855L10.7201 18.0931L12.0125 19.3855L13.0195 18.3784L11.7271 17.0861L12.902 15.9112L13.5734 16.5826L14.5804 15.5755L13.909 14.9042L15.0168 13.7964L15.6881 14.4678L16.6952 13.4607L16.0238 12.7894L17.1987 11.6145L18.4911 12.9069L19.4981 11.8998ZM10.7201 16.079L5.24853 10.6075L10.7201 5.13591L16.1917 10.6075L10.7201 16.079Z"
        fill="#0C0C0C" />
</svg>