<svg width="352" height="87" viewBox="0 0 352 87" fill="none" xmlns="http://www.w3.org/2000/svg">
<path d="M4.78657 73.425V3.04504H10.9966V13.935L11.1766 24.825C11.6566 22.425 12.3466 18.825 13.2466 14.025C14.2066 9.22504 14.8966 5.62504 15.3166 3.22504L16.7566 3.13504C17.7166 3.01504 18.1966 3.01504 18.1966 3.13504C18.1966 3.31504 17.3266 7.81504 15.5866 16.635L12.9766 29.865L17.1166 51.195C19.8766 65.535 21.2566 72.825 21.2566 73.065C21.2566 73.425 21.1066 73.635 20.8066 73.695C20.5666 73.755 19.7566 73.785 18.3766 73.785C16.3966 73.785 15.4066 73.695 15.4066 73.515C15.4066 73.455 14.6866 69.765 13.2466 62.445L10.9966 51.645V73.425H4.78657ZM36.1417 5.74503C35.7217 5.32504 35.2117 5.11504 34.6117 5.11504C33.9517 5.11504 33.4117 5.32504 32.9917 5.74503C32.8117 5.92504 32.6917 6.13504 32.6317 6.37504C32.5717 6.61504 32.5117 7.33504 32.4517 8.53504C32.3917 9.67504 32.3617 11.295 32.3617 13.395C32.3617 15.495 32.3617 18.645 32.3617 22.845V38.055V53.265C32.3617 57.465 32.3617 60.615 32.3617 62.715C32.3617 64.815 32.3917 66.435 32.4517 67.575C32.5117 68.775 32.5717 69.495 32.6317 69.735C32.6917 69.975 32.8117 70.185 32.9917 70.365C33.4717 70.845 34.0117 71.085 34.6117 71.085C35.1517 71.085 35.6617 70.845 36.1417 70.365C36.3217 70.185 36.4417 69.975 36.5017 69.735C36.5617 69.495 36.6217 68.775 36.6817 67.575C36.7417 66.435 36.7717 64.815 36.7717 62.715C36.7717 60.615 36.7717 57.465 36.7717 53.265V38.055V22.845C36.7717 18.645 36.7717 15.495 36.7717 13.395C36.7717 11.295 36.7417 9.67504 36.6817 8.53504C36.6217 7.33504 36.5617 6.61504 36.5017 6.37504C36.4417 6.13504 36.3217 5.92504 36.1417 5.74503ZM32.2717 2.50503C33.3517 2.26504 34.1317 2.14504 34.6117 2.14504C37.9717 2.14504 40.4617 3.70504 42.0817 6.82504L42.9817 8.53504V67.755L41.9917 69.465C40.3717 72.405 37.8817 73.875 34.5217 73.875C31.2217 73.875 28.7617 72.405 27.1417 69.465L26.1517 67.755V8.35504L27.1417 6.64503C28.3417 4.42503 30.0517 3.04503 32.2717 2.50503ZM47.5084 73.425V2.68504H50.2984C52.0984 2.68504 52.9984 2.89504 52.9984 3.31503C52.9984 3.67504 54.0484 13.095 56.1484 31.575C58.2484 49.995 59.3584 59.205 59.4784 59.205C59.7784 59.205 60.9184 50.145 62.8984 32.025C65.0584 13.305 66.1984 3.73504 66.3184 3.31503C66.4984 2.89504 67.4584 2.68504 69.1984 2.68504H71.8984V73.425H65.6884V53.625L65.5084 33.735L63.3484 52.995C61.9684 65.715 61.1884 72.315 61.0084 72.795C60.9484 73.215 60.4684 73.425 59.5684 73.425C58.9084 73.425 58.4884 73.365 58.3084 73.245C58.1884 73.125 58.0984 72.765 58.0384 72.165C57.6784 69.045 56.8984 62.265 55.6984 51.825L53.5384 32.745C53.5384 37.245 53.5084 44.025 53.4484 53.085C53.3884 62.085 53.3584 68.865 53.3584 73.425H47.5084ZM86.418 5.74503C85.998 5.32504 85.428 5.11504 84.708 5.11504C83.988 5.11504 83.418 5.32504 82.998 5.74503C82.698 6.04503 82.488 6.76503 82.368 7.90503C82.308 9.04504 82.278 12.015 82.278 16.815V27.075H87.048V16.815C87.048 11.775 87.018 8.74504 86.958 7.72504C86.898 6.70503 86.718 6.04503 86.418 5.74503ZM82.818 2.41503C83.178 2.29504 83.748 2.23504 84.528 2.23504C86.148 2.23504 87.678 2.68504 89.118 3.58504C90.558 4.42504 91.608 5.56504 92.268 7.00503C92.568 7.66504 92.748 9.55504 92.808 12.675C92.868 15.795 92.898 25.305 92.898 41.205V74.145H87.048V29.865H82.278V74.145H76.428V41.295V28.785C76.428 15.705 76.638 8.44504 77.058 7.00503C77.298 6.34504 77.808 5.62504 78.588 4.84504C79.728 3.64504 81.138 2.83504 82.818 2.41503ZM97.4374 73.425V2.68504H103.287V27.435H108.057V2.68504H113.907V73.425H108.057V30.135H103.287V73.425H97.4374ZM137.437 71.085V5.11504H132.667L132.487 6.55504C132.367 7.39504 131.107 18.315 128.707 39.315C126.307 60.255 125.107 70.785 125.107 70.905C125.107 71.025 127.147 71.085 131.227 71.085H137.437ZM130.057 2.77504C130.177 2.47504 132.397 2.32504 136.717 2.32504H143.287V71.085H146.347V74.145H118.897V71.085H120.607C121.747 71.085 122.317 70.875 122.317 70.455C122.317 69.975 123.577 58.635 126.097 36.435C128.677 14.235 129.997 3.01504 130.057 2.77504ZM161.136 5.74503C160.716 5.32504 160.146 5.11504 159.426 5.11504C158.706 5.11504 158.136 5.32504 157.716 5.74503C157.416 6.04503 157.206 6.76503 157.086 7.90503C157.026 9.04504 156.996 12.015 156.996 16.815V27.075H161.766V16.815C161.766 11.775 161.736 8.74504 161.676 7.72504C161.616 6.70503 161.436 6.04503 161.136 5.74503ZM157.536 2.41503C157.896 2.29504 158.466 2.23504 159.246 2.23504C160.866 2.23504 162.396 2.68504 163.836 3.58504C165.276 4.42504 166.326 5.56504 166.986 7.00503C167.286 7.66504 167.466 9.55504 167.526 12.675C167.586 15.795 167.616 25.305 167.616 41.205V74.145H161.766V29.865H156.996V74.145H151.146V41.295V28.785C151.146 15.705 151.356 8.44504 151.776 7.00503C152.016 6.34504 152.526 5.62504 153.306 4.84504C154.446 3.64504 155.856 2.83504 157.536 2.41503Z" fill="white"/>
<path d="M180.884 74.415L181.63 69.8163H182.589C183.346 69.8163 184.009 69.6565 184.577 69.3369C185.158 69.0055 185.678 68.4491 186.14 67.6679C186.602 66.8866 187.04 65.8095 187.454 64.4363C187.868 63.0514 188.294 61.3113 188.732 59.2162L191.2 47.1423H210.234L205.689 74.415H200.487L204.286 51.7233H195.355L193.384 60.9917C192.911 63.2408 192.36 65.2058 191.733 66.8866C191.106 68.5675 190.366 69.9702 189.514 71.0947C188.661 72.2074 187.667 73.0419 186.531 73.5983C185.394 74.1428 184.08 74.415 182.589 74.415H180.884ZM227.622 58.6835L226.859 63.3H212.317L213.062 58.6835H227.622ZM219.312 47.1423L214.767 74.415H209.458L214.003 47.1423H219.312ZM233.233 74.9655C230.7 74.9655 228.581 74.3736 226.876 73.1899C225.184 72.0062 223.988 70.3608 223.29 68.2538C222.603 66.135 222.497 63.6788 222.97 60.8852C223.444 58.068 224.373 55.6059 225.758 53.4988C227.154 51.38 228.895 49.7346 230.978 48.5628C233.073 47.3791 235.387 46.7872 237.92 46.7872C240.465 46.7872 242.584 47.3791 244.277 48.5628C245.981 49.7346 247.177 51.38 247.864 53.4988C248.55 55.6059 248.663 58.068 248.201 60.8852C247.727 63.6788 246.792 66.135 245.395 68.2538C243.999 70.3608 242.259 72.0062 240.175 73.1899C238.092 74.3736 235.778 74.9655 233.233 74.9655ZM234.014 70.42C235.719 70.42 237.186 69.988 238.418 69.1238C239.66 68.2479 240.661 67.0879 241.418 65.6437C242.188 64.1996 242.714 62.6134 242.998 60.8852C243.271 59.1452 243.265 57.5531 242.981 56.1089C242.708 54.653 242.099 53.487 241.152 52.6111C240.205 51.7351 238.873 51.2971 237.157 51.2971C235.44 51.2971 233.961 51.7351 232.718 52.6111C231.475 53.487 230.469 54.653 229.699 56.1089C228.942 57.5531 228.427 59.1452 228.155 60.8852C227.859 62.6134 227.853 64.1996 228.137 65.6437C228.433 67.0879 229.054 68.2479 230.001 69.1238C230.96 69.988 232.298 70.42 234.014 70.42ZM246.745 82.2808L248.858 69.8163H251.06C251.711 69.2955 252.291 68.674 252.8 67.952C253.321 67.2299 253.8 66.3717 254.238 65.3774C254.676 64.3831 255.096 63.223 255.499 61.8973C255.913 60.5597 256.339 59.0327 256.777 57.3163L259.299 47.1423H277.835L274.107 69.8163H278.315L276.202 82.2808H271.017L272.296 74.415H253.297L252.001 82.2808H246.745ZM256.742 69.8163H268.94L271.923 51.6878H263.311L261.802 57.3163C261.068 60.1809 260.317 62.6667 259.547 64.7737C258.79 66.8689 257.854 68.5497 256.742 69.8163ZM292.902 74.9655C290.226 74.9655 288.013 74.3914 286.261 73.2432C284.521 72.0831 283.302 70.4555 282.603 68.3604C281.905 66.2533 281.792 63.7853 282.266 60.9562C282.728 58.1627 283.657 55.7005 285.054 53.5699C286.45 51.4392 288.19 49.7761 290.274 48.5805C292.369 47.385 294.683 46.7872 297.216 46.7872C298.755 46.7872 300.205 47.0417 301.566 47.5507C302.939 48.0597 304.105 48.8587 305.064 49.9477C306.023 51.0367 306.686 52.4513 307.053 54.1913C307.432 55.9195 307.42 58.0206 307.017 60.4946L306.715 62.3767H285.018L285.639 58.3994H302.117C302.365 57.0026 302.3 55.7657 301.921 54.6885C301.543 53.5995 300.892 52.7413 299.968 52.1139C299.057 51.4865 297.909 51.1729 296.524 51.1729C295.103 51.1729 293.777 51.5457 292.546 52.2915C291.315 53.0372 290.286 53.9901 289.457 55.1501C288.64 56.2983 288.125 57.482 287.912 58.7013L287.291 62.3412C286.983 64.3298 287.036 65.9278 287.451 67.1352C287.877 68.3426 288.622 69.2185 289.688 69.7631C290.753 70.3076 292.085 70.5798 293.683 70.5798C294.713 70.5798 295.665 70.4378 296.541 70.1537C297.429 69.8577 298.216 69.4257 298.903 68.8575C299.589 68.2775 300.164 67.5554 300.625 66.6913L305.49 67.5969C304.839 69.0765 303.904 70.3727 302.685 71.4854C301.466 72.5862 300.027 73.4444 298.37 74.0599C296.725 74.6636 294.902 74.9655 292.902 74.9655ZM315.642 66.9754L330.948 47.1423H336.665L332.12 74.415H326.917L330.202 54.5642L314.932 74.415H309.179L313.725 47.1423H318.91L315.642 66.9754ZM330.167 37.9094H334.517C334.185 39.9098 333.209 41.5374 331.587 42.7922C329.965 44.0351 327.947 44.6565 325.532 44.6565C323.141 44.6565 321.348 44.0351 320.152 42.7922C318.957 41.5374 318.531 39.9098 318.874 37.9094H323.206C323.064 38.7971 323.195 39.5843 323.597 40.2709C324.011 40.9456 324.852 41.2829 326.118 41.2829C327.361 41.2829 328.308 40.9456 328.959 40.2709C329.61 39.5961 330.013 38.809 330.167 37.9094ZM345.499 69.4434L344.878 71.3788C344.463 72.7993 343.919 74.2789 343.244 75.8177C342.581 77.3566 341.918 78.7889 341.255 80.1146C340.593 81.4522 340.066 82.5116 339.675 83.2929H335.911C336.171 82.559 336.532 81.5706 336.994 80.3277C337.468 79.0848 337.965 77.6939 338.486 76.1551C339.006 74.6163 339.462 73.0419 339.853 71.4321L340.385 69.4434H345.499Z" fill="#DE5737"/>
</svg>
