<svg width="301" height="197" viewBox="0 0 301 197" fill="none" xmlns="http://www.w3.org/2000/svg">
<path d="M7.20835 127.052V3.58562H18.1024V22.6897L18.4182 41.7938C19.2602 37.5835 20.4707 31.2681 22.0495 22.8476C23.7337 14.4271 24.9441 8.11166 25.6809 3.90139L28.2071 3.7435C29.8912 3.53299 30.7332 3.53299 30.7332 3.7435C30.7332 4.05928 29.207 11.9535 26.1546 27.4263L21.5759 50.6354L28.8386 88.0542C33.6804 113.211 36.1013 125.999 36.1013 126.42C36.1013 127.052 35.8382 127.42 35.3119 127.525C34.8909 127.631 33.4699 127.683 31.049 127.683C27.5755 127.683 25.8388 127.525 25.8388 127.21C25.8388 127.104 24.5757 120.631 22.0495 107.79L18.1024 88.8436V127.052H7.20835ZM62.214 8.32217C61.4772 7.58538 60.5826 7.21698 59.53 7.21698C58.3722 7.21698 57.4249 7.58538 56.6881 8.32217C56.3723 8.63794 56.1618 9.00634 56.0565 9.42737C55.9513 9.8484 55.846 11.1115 55.7407 13.2166C55.6355 15.2165 55.5829 18.0584 55.5829 21.7424C55.5829 25.4264 55.5829 30.9524 55.5829 38.3203V65.0029V91.6855C55.5829 99.0535 55.5829 104.579 55.5829 108.263C55.5829 111.947 55.6355 114.789 55.7407 116.789C55.846 118.894 55.9513 120.157 56.0565 120.578C56.1618 121 56.3723 121.368 56.6881 121.684C57.5301 122.526 58.4774 122.947 59.53 122.947C60.4773 122.947 61.372 122.526 62.214 121.684C62.5298 121.368 62.7403 121 62.8456 120.578C62.9508 120.157 63.0561 118.894 63.1613 116.789C63.2666 114.789 63.3192 111.947 63.3192 108.263C63.3192 104.579 63.3192 99.0535 63.3192 91.6855V65.0029V38.3203C63.3192 30.9524 63.3192 25.4264 63.3192 21.7424C63.3192 18.0584 63.2666 15.2165 63.1613 13.2166C63.0561 11.1115 62.9508 9.8484 62.8456 9.42737C62.7403 9.00634 62.5298 8.63794 62.214 8.32217ZM55.425 2.6383C57.3196 2.21728 58.6879 2.00677 59.53 2.00677C65.4244 2.00677 69.7925 4.74345 72.6345 10.2168L74.2133 13.2166V117.105L72.4766 120.105C69.6346 125.262 65.2665 127.841 59.3721 127.841C53.583 127.841 49.2675 125.262 46.4255 120.105L44.6888 117.105V12.9008L46.4255 9.90102C48.5307 6.00652 51.5305 3.58562 55.425 2.6383ZM82.1544 127.052V2.95408H87.0489C90.2066 2.95408 91.7854 3.32248 91.7854 4.05927C91.7854 4.69082 93.6274 21.2161 97.3114 53.6352C100.995 85.949 102.943 102.106 103.153 102.106C103.679 102.106 105.679 86.2122 109.153 54.4246C112.942 21.5845 114.942 4.79607 115.152 4.05927C115.468 3.32248 117.152 2.95408 120.205 2.95408H124.941V127.052H114.047V92.317L113.731 57.4244L109.942 91.2119C107.521 113.526 106.153 125.105 105.837 125.947C105.732 126.683 104.89 127.052 103.311 127.052C102.153 127.052 101.416 126.947 101.101 126.736C100.89 126.525 100.732 125.894 100.627 124.841C99.9954 119.368 98.6271 107.474 96.522 89.1593L92.7327 55.6877C92.7327 63.582 92.6801 75.476 92.5748 91.3697C92.4696 107.158 92.417 119.052 92.417 127.052H82.1544ZM150.413 8.32217C149.676 7.58538 148.676 7.21698 147.413 7.21698C146.15 7.21698 145.15 7.58538 144.413 8.32217C143.887 8.84845 143.518 10.1115 143.308 12.1114C143.203 14.1113 143.15 19.3215 143.15 27.742V45.7409H151.518V27.742C151.518 18.9005 151.465 13.585 151.36 11.7956C151.255 10.0063 150.939 8.84845 150.413 8.32217ZM144.097 2.48042C144.729 2.26991 145.729 2.16466 147.097 2.16466C149.939 2.16466 152.623 2.95408 155.149 4.53293C157.675 6.00652 159.517 8.0064 160.675 10.5326C161.201 11.6904 161.517 15.006 161.622 20.4793C161.728 25.9527 161.78 42.6359 161.78 70.5289V128.315H151.518V50.6354H143.15V128.315H132.887V70.6868V48.7408C132.887 25.7948 133.256 13.0587 133.993 10.5326C134.414 9.37474 135.308 8.11166 136.677 6.74332C138.676 4.63819 141.15 3.21722 144.097 2.48042ZM169.744 127.052V2.95408H180.006V46.3725H188.374V2.95408H198.637V127.052H188.374V51.109H180.006V127.052H169.744ZM239.914 122.947V7.21698H231.546L231.23 9.74314C231.02 11.2167 228.809 30.3735 224.599 67.2133C220.389 103.948 218.283 122.42 218.283 122.631C218.283 122.842 221.862 122.947 229.02 122.947H239.914ZM226.967 3.11196C227.178 2.58568 231.072 2.32254 238.651 2.32254H250.176V122.947H255.544V128.315H207.389V122.947H210.389C212.389 122.947 213.389 122.578 213.389 121.842C213.389 121 215.599 101.106 220.02 62.161C224.546 23.216 226.862 3.53299 226.967 3.11196ZM281.488 8.32217C280.751 7.58538 279.751 7.21698 278.488 7.21698C277.225 7.21698 276.225 7.58538 275.488 8.32217C274.962 8.84845 274.594 10.1115 274.383 12.1114C274.278 14.1113 274.225 19.3215 274.225 27.742V45.7409H282.593V27.742C282.593 18.9005 282.541 13.585 282.435 11.7956C282.33 10.0063 282.014 8.84845 281.488 8.32217ZM275.173 2.48042C275.804 2.26991 276.804 2.16466 278.172 2.16466C281.014 2.16466 283.698 2.95408 286.225 4.53293C288.751 6.00652 290.593 8.0064 291.751 10.5326C292.277 11.6904 292.593 15.006 292.698 20.4793C292.803 25.9527 292.856 42.6359 292.856 70.5289V128.315H282.593V50.6354H274.225V128.315H263.963V70.6868V48.7408C263.963 25.7948 264.331 13.0587 265.068 10.5326C265.489 9.37474 266.384 8.11166 267.752 6.74332C269.752 4.63819 272.225 3.21722 275.173 2.48042Z" fill="white"/>
<path d="M110.151 182.071L110.985 176.934H112.056C112.902 176.934 113.643 176.755 114.277 176.398C114.925 176.028 115.507 175.406 116.023 174.534C116.539 173.661 117.028 172.457 117.491 170.924C117.954 169.376 118.43 167.432 118.919 165.092L121.676 151.603H142.94L137.862 182.071H132.05L136.295 156.721H126.318L124.116 167.075C123.587 169.588 122.972 171.783 122.271 173.661C121.57 175.539 120.744 177.106 119.792 178.362C118.84 179.605 117.729 180.537 116.459 181.159C115.19 181.767 113.722 182.071 112.056 182.071H110.151ZM162.365 164.497L161.512 169.654H145.266L146.099 164.497H162.365ZM153.082 151.603L148.004 182.071H142.073L147.151 151.603H153.082ZM168.633 182.686C165.803 182.686 163.436 182.025 161.532 180.703C159.641 179.38 158.305 177.542 157.525 175.188C156.758 172.821 156.639 170.077 157.168 166.956C157.697 163.809 158.735 161.058 160.282 158.705C161.843 156.338 163.786 154.499 166.114 153.19C168.454 151.868 171.04 151.207 173.87 151.207C176.713 151.207 179.08 151.868 180.971 153.19C182.875 154.499 184.211 156.338 184.978 158.705C185.745 161.058 185.87 163.809 185.355 166.956C184.826 170.077 183.781 172.821 182.221 175.188C180.66 177.542 178.716 179.38 176.389 180.703C174.061 182.025 171.476 182.686 168.633 182.686ZM169.506 177.608C171.41 177.608 173.05 177.126 174.425 176.16C175.814 175.182 176.931 173.886 177.777 172.272C178.637 170.659 179.225 168.887 179.543 166.956C179.847 165.012 179.84 163.234 179.523 161.62C179.219 159.994 178.538 158.691 177.48 157.713C176.422 156.734 174.934 156.245 173.017 156.245C171.099 156.245 169.446 156.734 168.058 157.713C166.669 158.691 165.545 159.994 164.686 161.62C163.839 163.234 163.264 165.012 162.96 166.956C162.629 168.887 162.623 170.659 162.94 172.272C163.271 173.886 163.965 175.182 165.023 176.16C166.094 177.126 167.588 177.608 169.506 177.608ZM183.729 190.859L186.089 176.934H188.549C189.276 176.352 189.924 175.658 190.493 174.851C191.074 174.044 191.61 173.086 192.099 171.975C192.589 170.864 193.058 169.568 193.508 168.087C193.97 166.593 194.447 164.887 194.936 162.969L197.753 151.603H218.461L214.296 176.934H218.997L216.636 190.859H210.844L212.272 182.071H191.048L189.6 190.859H183.729ZM194.896 176.934H208.523L211.856 156.681H202.235L200.549 162.969C199.729 166.17 198.89 168.947 198.03 171.3C197.184 173.641 196.139 175.519 194.896 176.934ZM235.292 182.686C232.304 182.686 229.831 182.045 227.874 180.762C225.93 179.466 224.568 177.648 223.788 175.307C223.007 172.953 222.882 170.196 223.411 167.036C223.926 163.915 224.964 161.164 226.525 158.784C228.085 156.404 230.029 154.546 232.357 153.21C234.697 151.874 237.283 151.207 240.113 151.207C241.832 151.207 243.452 151.491 244.972 152.06C246.506 152.628 247.809 153.521 248.88 154.737C249.951 155.954 250.692 157.534 251.102 159.478C251.525 161.409 251.512 163.756 251.062 166.52L250.725 168.623H226.485L227.179 164.179H245.587C245.865 162.619 245.792 161.237 245.369 160.034C244.946 158.817 244.219 157.858 243.187 157.157C242.169 156.457 240.886 156.106 239.339 156.106C237.752 156.106 236.271 156.523 234.896 157.356C233.52 158.189 232.37 159.253 231.444 160.549C230.532 161.832 229.957 163.154 229.718 164.517L229.024 168.583C228.68 170.804 228.74 172.59 229.203 173.939C229.679 175.287 230.512 176.266 231.702 176.874C232.892 177.483 234.38 177.787 236.165 177.787C237.316 177.787 238.38 177.628 239.359 177.311C240.351 176.98 241.23 176.497 241.997 175.863C242.764 175.215 243.405 174.408 243.921 173.443L249.356 174.454C248.629 176.107 247.584 177.555 246.222 178.798C244.86 180.028 243.253 180.987 241.402 181.675C239.564 182.349 237.527 182.686 235.292 182.686ZM260.698 173.76L277.796 151.603H284.183L279.105 182.071H273.293L276.963 159.895L259.904 182.071H253.477L258.555 151.603H264.347L260.698 173.76ZM276.923 141.289H281.783C281.413 143.524 280.322 145.342 278.51 146.744C276.699 148.132 274.444 148.826 271.746 148.826C269.075 148.826 267.072 148.132 265.736 146.744C264.4 145.342 263.924 143.524 264.308 141.289H269.148C268.989 142.28 269.134 143.16 269.584 143.927C270.047 144.681 270.986 145.057 272.401 145.057C273.789 145.057 274.847 144.681 275.575 143.927C276.302 143.173 276.751 142.294 276.923 141.289ZM294.052 176.517L293.358 178.679C292.895 180.266 292.287 181.919 291.533 183.638C290.792 185.357 290.052 186.958 289.311 188.439C288.571 189.933 287.982 191.116 287.546 191.989H283.341C283.632 191.169 284.035 190.065 284.551 188.677C285.08 187.288 285.635 185.734 286.217 184.015C286.799 182.296 287.308 180.537 287.744 178.739L288.339 176.517H294.052Z" fill="#DE5737"/>
</svg>
