<svg width="551" height="25" viewBox="0 0 551 25" fill="none" xmlns="http://www.w3.org/2000/svg">
    <g opacity="0.3" clip-path="url(#clip0_2082_27473)">
        <rect y="25.043" width="35.4153" height="35.4153" transform="rotate(-45 0 25.043)" fill="#DE5737" />
        <rect x="50.0859" y="25.043" width="35.4153" height="35.4153" transform="rotate(-45 50.0859 25.043)"
            fill="#DE5737" />
        <rect x="100.17" y="25.043" width="35.4153" height="35.4153" transform="rotate(-45 100.17 25.043)"
            fill="#DE5737" />
        <rect x="150.254" y="25.043" width="35.4153" height="35.4153" transform="rotate(-45 150.254 25.043)"
            fill="#DE5737" />
        <rect x="200.34" y="25.043" width="35.4153" height="35.4153" transform="rotate(-45 200.34 25.043)"
            fill="#DE5737" />
        <rect x="250.424" y="25.043" width="35.4153" height="35.4153" transform="rotate(-45 250.424 25.043)"
            fill="#DE5737" />
        <rect x="300.508" y="25.043" width="35.4153" height="35.4153" transform="rotate(-45 300.508 25.043)"
            fill="#DE5737" />
        <rect x="350.594" y="25.043" width="35.4153" height="35.4153" transform="rotate(-45 350.594 25.043)"
            fill="#DE5737" />
        <rect x="400.68" y="25.043" width="35.4153" height="35.4153" transform="rotate(-45 400.68 25.043)"
            fill="#DE5737" />
        <rect x="450.762" y="25.043" width="35.4153" height="35.4153" transform="rotate(-45 450.762 25.043)"
            fill="#DE5737" />
        <rect x="500.848" y="25.043" width="35.4153" height="35.4153" transform="rotate(-45 500.848 25.043)"
            fill="#DE5737" />
    </g>
    <defs>
        <clipPath id="clip0_2082_27473">
            <rect width="551" height="25" fill="white" />
        </clipPath>
    </defs>
</svg>