<svg width="70" height="389" viewBox="0 0 70 389" fill="none" xmlns="http://www.w3.org/2000/svg">
    <path d="M26.8266 63.2632L33.4876 56.2692V36.3973L26.8266 43.3913V63.2632Z" fill="white" />
    <path d="M26.8266 0.552246L33.4876 7.54625V27.4181L26.8266 20.4241V0.552246Z" fill="white" />
    <path d="M43.4794 63.2632L36.8184 56.2692V36.3973L43.4794 43.3913V63.2632Z" fill="white" />
    <path d="M43.4794 0.552246L36.8184 7.54625V27.4181L43.4794 20.4241V0.552246Z" fill="white" />
    <path d="M3.73071 23.5894L10.7247 30.2503H30.5966L23.6026 23.5894H3.73071Z" fill="white" />
    <path d="M66.4522 23.5894L59.4582 30.2503H39.5863L46.5804 23.5894H66.4522Z" fill="white" />
    <path d="M3.73071 40.2422L10.7247 33.5812H30.5966L23.6026 40.2422H3.73071Z" fill="white" />
    <path d="M66.4522 40.2422L59.4582 33.5812H39.5863L46.5804 40.2422H66.4522Z" fill="white" />
    <rect width="4.44064" height="4.44064" transform="matrix(0.707107 0.707107 0.707107 -0.707107 32.0433 31.9395)"
        fill="white" />
    <rect x="49.3458" y="150.259" width="11.4044" height="11.4044" transform="rotate(-180 49.3458 150.259)"
        fill="white" />
    <rect x="55.0491" y="155.104" width="11.4044" height="11.4044" transform="rotate(-180 55.0491 155.104)"
        fill="white" />
    <rect width="11.4044" height="11.4044" transform="matrix(-1 0 0 1 49.3458 121.747)" fill="white" />
    <rect x="20.8338" y="121.747" width="11.4044" height="11.4044" fill="white" />
    <rect width="11.4044" height="11.4044" transform="matrix(-1 0 0 1 26.5356 143.699)" fill="white" />
    <rect x="15.129" y="116.9" width="11.4044" height="11.4044" fill="white" />
    <rect width="11.4044" height="11.4044" transform="matrix(-1 0 0 1 55.0491 116.9)" fill="white" />
    <rect width="11.4044" height="11.4044" transform="matrix(-1 0 0 1 32.2374 138.854)" fill="white" />
    <rect width="5.70219" height="5.70219" transform="matrix(1 0 0 -1 32.2374 138.854)" fill="white" />
    <rect width="5.70219" height="5.70219" transform="matrix(1 0 0 -1 32.2374 155.959)" fill="white" />
    <rect width="5.70219" height="5.70219" transform="matrix(1 0 0 -1 9.43164 133.151)" fill="white" />
    <rect width="5.70219" height="5.70219" transform="matrix(1 0 0 -1 32.2374 110.344)" fill="white" />
    <rect width="5.70219" height="5.70219" transform="matrix(1 0 0 -1 55.0491 133.151)" fill="white" />
    <rect width="5.70219" height="5.70219" transform="matrix(1 0 0 -1 37.9422 161.662)" fill="white" />
    <rect width="5.70219" height="5.70219" transform="matrix(1 0 0 -1 15.129 138.854)" fill="white" />
    <rect width="5.70219" height="5.70219" transform="matrix(1 0 0 -1 37.9422 116.045)" fill="white" />
    <rect width="5.70219" height="5.70219" transform="matrix(1 0 0 -1 60.7524 138.854)" fill="white" />
    <rect width="5.70219" height="5.70219" transform="matrix(1 0 0 -1 26.5356 161.662)" fill="white" />
    <rect width="5.70219" height="5.70219" transform="matrix(1 0 0 -1 3.72833 138.854)" fill="white" />
    <rect width="5.70219" height="5.70219" transform="matrix(1 0 0 -1 26.5356 116.045)" fill="white" />
    <rect width="5.70219" height="5.70219" transform="matrix(1 0 0 -1 49.3458 138.854)" fill="white" />
    <rect width="5.70219" height="5.70219" transform="matrix(1 0 0 -1 32.2374 161.662)" fill="white" />
    <rect width="5.70219" height="5.70219" transform="matrix(1 0 0 -1 9.43164 138.854)" fill="white" />
    <rect width="5.70219" height="5.70219" transform="matrix(1 0 0 -1 32.2374 116.045)" fill="white" />
    <rect width="5.70219" height="5.70219" transform="matrix(1 0 0 -1 55.0491 138.854)" fill="white" />
    <rect width="5.70219" height="5.70219" transform="matrix(1 0 0 -1 32.2374 167.365)" fill="white" />
    <rect width="5.70219" height="5.70219" transform="matrix(1 0 0 -1 9.43164 144.556)" fill="white" />
    <rect width="5.70219" height="5.70219" transform="matrix(1 0 0 -1 32.2374 121.747)" fill="white" />
    <rect width="5.70219" height="5.70219" transform="matrix(1 0 0 -1 55.0491 144.556)" fill="white" />
    <rect width="5.64183" height="49.366" transform="matrix(0.707107 0.707107 0.707107 -0.707107 11.654 255.124)"
        fill="white" />
    <rect width="5.64183" height="49.366" transform="matrix(0.707107 0.707107 0.707107 -0.707107 3.67548 247.144)"
        fill="white" />
    <rect width="5.64183" height="49.366" transform="matrix(0.707107 0.707107 0.707107 -0.707107 19.6368 263.102)"
        fill="white" />
    <rect width="5.64183" height="49.366" transform="matrix(0.707107 0.707107 0.707107 -0.707107 27.6094 271.08)"
        fill="white" />
    <rect width="5.64183" height="49.366" transform="matrix(-0.707107 0.707107 0.707107 0.707107 23.6183 220.218)"
        fill="white" />
    <rect width="5.64183" height="49.366" transform="matrix(-0.707107 0.707107 0.707107 0.707107 31.5967 212.239)"
        fill="white" />
    <rect width="5.64183" height="49.366" transform="matrix(-0.707107 0.707107 0.707107 0.707107 15.6399 228.198)"
        fill="white" />
    <rect width="5.64183" height="49.366" transform="matrix(-0.707107 0.707107 0.707107 0.707107 7.6615 236.176)"
        fill="white" />
    <rect width="10.5437" height="10.5437" transform="matrix(0.707107 0.707107 0.707107 -0.707107 42.3328 354.273)"
        fill="white" />
    <rect width="10.5437" height="10.5437" transform="matrix(0.707107 0.707107 0.707107 -0.707107 12.939 354.273)"
        fill="white" />
    <rect width="6.21483" height="6.21483" transform="matrix(0.707107 0.707107 0.707107 -0.707107 30.7478 383.781)"
        fill="white" />
    <rect width="6.21483" height="6.21483" transform="matrix(0.707107 0.707107 0.707107 -0.707107 30.7478 324.334)"
        fill="white" />
    <path d="M20.3616 339.217L33.9518 353.429V338.599L20.3616 324.387V339.217Z" fill="white" />
    <path d="M36.3022 369.563L49.8924 383.775V368.945L36.3022 354.733V369.563Z" fill="white" />
    <path d="M33.946 369.563L20.3557 383.775V368.945L33.946 354.733V369.563Z" fill="white" />
    <path d="M36.3022 338.598L49.8924 324.386V339.216L36.3022 353.428V338.598Z" fill="white" />
</svg>