<svg width="1920" height="922" viewBox="0 0 1920 922" fill="none" xmlns="http://www.w3.org/2000/svg">
<g clip-path="url(#clip0_4032_12123)">
<path d="M-86.6328 466L-12.551 391.918L61.5312 466L-12.551 540.083L-86.6328 466Z" fill="#141414"/>
<path d="M61.5312 466L135.613 391.918L209.695 466L135.613 540.083L61.5312 466Z" fill="#141414"/>
<path d="M-31.2475 374.204L-143 262.452L104.452 15L216.204 126.753L-31.2475 374.204Z" fill="#141414"/>
<path d="M-143 669.548L-31.2476 557.796L216.204 805.248L104.452 917L-143 669.548Z" fill="#141414"/>
<circle cx="63.1004" cy="63.1004" r="63.1004" transform="matrix(-1 0 0 1 1975.94 402.18)" fill="#141414"/>
<circle cx="63.1004" cy="63.1004" r="63.1004" transform="matrix(-1 0 0 1 1849.74 402.18)" fill="#141414"/>
<rect width="135.375" height="385.829" rx="67.6873" transform="matrix(-0.707107 0.707107 0.707107 0.707107 1751.72 19)" fill="#141414"/>
<rect x="1751.72" y="912.275" width="135.375" height="385.829" rx="67.6873" transform="rotate(-135 1751.72 912.275)" fill="#141414"/>
</g>
<defs>
<clipPath id="clip0_4032_12123">
<rect width="1920" height="922" fill="white"/>
</clipPath>
</defs>
</svg>
