<svg width="80" height="15" viewBox="0 0 80 15" fill="none" xmlns="http://www.w3.org/2000/svg">
<path d="M12.8818 8.86865L11.4452 7.50039H7.3632L8.79987 8.86865H12.8818Z" fill="white"/>
<path d="M0 8.86865L1.43667 7.50039H5.51864L4.08197 8.86865H0Z" fill="white"/>
<path d="M12.8818 5.44775L11.4452 6.81601H7.3632L8.79987 5.44775H12.8818Z" fill="white"/>
<path d="M0 5.44775L1.43667 6.81601H5.51864L4.08197 5.44775H0Z" fill="white"/>
<path d="M4.73218 13.6128L6.10044 12.1761V8.09415L4.73218 9.53083V13.6128Z" fill="white"/>
<path d="M4.73218 0.729004L6.10044 2.16567V6.24764L4.73218 4.81097V0.729004Z" fill="white"/>
<path d="M8.15283 13.6128L6.78457 12.1761V8.09415L8.15283 9.53083V13.6128Z" fill="white"/>
<path d="M8.15283 0.729004L6.78457 2.16567V6.24764L8.15283 4.81097V0.729004Z" fill="white"/>
<rect width="0.912172" height="0.912172" transform="matrix(0.707107 -0.707107 -0.707107 -0.707107 6.44751 7.79688)" fill="white"/>
<rect x="30.7522" y="4.24268" width="2.34262" height="2.34262" transform="rotate(90 30.7522 4.24268)" fill="white"/>
<rect x="31.7473" y="3.07129" width="2.34262" height="2.34262" transform="rotate(90 31.7473 3.07129)" fill="white"/>
<rect width="2.34262" height="2.34262" transform="matrix(0 1 1 0 24.8953 4.24268)" fill="white"/>
<rect x="24.8953" y="10.0996" width="2.34262" height="2.34262" transform="rotate(-90 24.8953 10.0996)" fill="white"/>
<rect width="2.34262" height="2.34262" transform="matrix(0 1 1 0 29.4045 8.92822)" fill="white"/>
<rect x="23.8999" y="11.2715" width="2.34262" height="2.34262" transform="rotate(-90 23.8999 11.2715)" fill="white"/>
<rect width="2.34262" height="2.34262" transform="matrix(0 1 1 0 23.8999 3.07129)" fill="white"/>
<rect width="2.34262" height="2.34262" transform="matrix(0 1 1 0 28.4094 7.75732)" fill="white"/>
<rect width="1.17131" height="1.17131" transform="matrix(0 -1 -1 0 28.4094 7.75732)" fill="white"/>
<rect width="1.17131" height="1.17131" transform="matrix(0 -1 -1 0 31.9231 7.75732)" fill="white"/>
<rect width="1.17131" height="1.17131" transform="matrix(0 -1 -1 0 27.2378 12.4419)" fill="white"/>
<rect width="1.17131" height="1.17131" transform="matrix(0 -1 -1 0 22.553 7.75732)" fill="white"/>
<rect width="1.17131" height="1.17131" transform="matrix(0 -1 -1 0 27.2378 3.07129)" fill="white"/>
<rect width="1.17131" height="1.17131" transform="matrix(0 -1 -1 0 33.0942 6.58545)" fill="white"/>
<rect width="1.17131" height="1.17131" transform="matrix(0 -1 -1 0 28.4094 11.2715)" fill="white"/>
<rect width="1.17131" height="1.17131" transform="matrix(0 -1 -1 0 23.7241 6.58545)" fill="white"/>
<rect width="1.17131" height="1.17131" transform="matrix(0 -1 -1 0 28.4094 1.89941)" fill="white"/>
<rect width="1.17131" height="1.17131" transform="matrix(0 -1 -1 0 33.0942 8.92822)" fill="white"/>
<rect width="1.17131" height="1.17131" transform="matrix(0 -1 -1 0 28.4094 13.6133)" fill="white"/>
<rect width="1.17131" height="1.17131" transform="matrix(0 -1 -1 0 23.7241 8.92822)" fill="white"/>
<rect width="1.17131" height="1.17131" transform="matrix(0 -1 -1 0 28.4094 4.24268)" fill="white"/>
<rect width="1.17131" height="1.17131" transform="matrix(0 -1 -1 0 33.0942 7.75732)" fill="white"/>
<rect width="1.17131" height="1.17131" transform="matrix(0 -1 -1 0 28.4094 12.4419)" fill="white"/>
<rect width="1.17131" height="1.17131" transform="matrix(0 -1 -1 0 23.7241 7.75732)" fill="white"/>
<rect width="1.17131" height="1.17131" transform="matrix(0 -1 -1 0 28.4094 3.07129)" fill="white"/>
<rect width="1.17131" height="1.17131" transform="matrix(0 -1 -1 0 34.2659 7.75732)" fill="white"/>
<rect width="1.17131" height="1.17131" transform="matrix(0 -1 -1 0 29.5806 12.4419)" fill="white"/>
<rect width="1.17131" height="1.17131" transform="matrix(0 -1 -1 0 24.8953 7.75732)" fill="white"/>
<rect width="1.17131" height="1.17131" transform="matrix(0 -1 -1 0 29.5806 3.07129)" fill="white"/>
<rect width="1.15891" height="10.1405" transform="matrix(0.707107 -0.707107 -0.707107 -0.707107 52.2927 11.9854)" fill="white"/>
<rect width="1.15891" height="10.1405" transform="matrix(0.707107 -0.707107 -0.707107 -0.707107 50.6536 13.624)" fill="white"/>
<rect width="1.15891" height="10.1405" transform="matrix(0.707107 -0.707107 -0.707107 -0.707107 53.9316 10.3452)" fill="white"/>
<rect width="1.15891" height="10.1405" transform="matrix(0.707107 -0.707107 -0.707107 -0.707107 55.5703 8.70752)" fill="white"/>
<rect width="1.15891" height="10.1405" transform="matrix(0.707107 0.707107 0.707107 -0.707107 45.1228 9.52783)" fill="white"/>
<rect width="1.15891" height="10.1405" transform="matrix(0.707107 0.707107 0.707107 -0.707107 43.4839 7.88916)" fill="white"/>
<rect width="1.15891" height="10.1405" transform="matrix(0.707107 0.707107 0.707107 -0.707107 46.762 11.167)" fill="white"/>
<rect width="1.15891" height="10.1405" transform="matrix(0.707107 0.707107 0.707107 -0.707107 48.4009 12.8057)" fill="white"/>
<rect width="2.16583" height="2.16583" transform="matrix(0.707107 -0.707107 -0.707107 -0.707107 72.6597 5.68359)" fill="white"/>
<rect width="2.16583" height="2.16583" transform="matrix(0.707107 -0.707107 -0.707107 -0.707107 72.6597 11.7217)" fill="white"/>
<rect width="1.27662" height="1.27662" transform="matrix(0.707107 -0.707107 -0.707107 -0.707107 78.7207 8.06348)" fill="white"/>
<rect width="1.27662" height="1.27662" transform="matrix(0.707107 -0.707107 -0.707107 -0.707107 66.5095 8.06348)" fill="white"/>
<path d="M69.5667 10.1968L72.4861 7.40514H69.4398L66.5204 10.1968H69.5667Z" fill="white"/>
<path d="M75.8003 6.92236L78.7197 4.13073H75.6734L72.754 6.92236H75.8003Z" fill="white"/>
<path d="M75.8003 7.40625L78.7197 10.1979H75.6734L72.754 7.40625H75.8003Z" fill="white"/>
<path d="M69.4396 6.92236L66.5203 4.13073H69.5666L72.486 6.92236H69.4396Z" fill="white"/>
</svg>
