<svg width="768" height="989" viewBox="0 0 768 989" fill="none" xmlns="http://www.w3.org/2000/svg">
<g clip-path="url(#clip0_4032_12124)">
<circle cx="67.0226" cy="67.0226" r="67.0226" transform="matrix(-1 0 0 1 853.376 427.246)" fill="#141414"/>
<circle cx="67.0226" cy="67.0226" r="67.0226" transform="matrix(-1 0 0 1 719.33 427.245)" fill="#141414"/>
<rect width="143.789" height="409.811" rx="71.8947" transform="matrix(-0.707107 0.707107 0.707107 0.707107 615.22 20.248)" fill="#141414"/>
<rect x="615.22" y="969.048" width="143.789" height="409.811" rx="71.8947" transform="rotate(-135 615.22 969.048)" fill="#141414"/>
<path d="M-78.6328 495.01L-4.55103 420.928L69.5312 495.01L-4.55103 569.092L-78.6328 495.01Z" fill="#141414"/>
<path d="M69.5312 495.01L143.613 420.928L217.695 495.01L143.613 569.092L69.5312 495.01Z" fill="#141414"/>
<path d="M-23.2475 403.214L-135 291.462L112.452 44.0098L224.204 155.762L-23.2475 403.214Z" fill="#141414"/>
<path d="M-135 698.558L-23.2476 586.806L224.204 834.258L112.452 946.01L-135 698.558Z" fill="#141414"/>
</g>
<defs>
<clipPath id="clip0_4032_12124">
<rect width="768" height="988" fill="white" transform="translate(0 0.248047)"/>
</clipPath>
</defs>
</svg>
